<svg width="100" height="100" viewBox="0 0 100 100" fill="none" xmlns="http://www.w3.org/2000/svg">
<path d="M50.0372 41.7011L89.2144 2.52387C86.2947 0.925212 82.9569 0.0121681 79.4218 0.00882361C59.8733 -0.00455432 40.3215 -0.00120984 20.773 0.00882361C17.181 0.00882361 13.7964 0.908489 10.8398 2.50715L50.0372 41.7045V41.7011Z" fill="#03351A"/>
<path d="M98.2475 12.3574L50.1906 60.4143L1.88629 12.1133C1.1572 13.7153 0.61539 15.4344 0.297664 17.2471C0.250841 17.5079 0.100334 17.7487 0 17.9996V81.9996C0.277592 83.0598 0.491635 84.14 0.842806 85.1735C3.54515 93.13 8.9398 98.0598 17.2475 99.7019C17.5084 99.7521 17.7492 99.8992 18 99.9996H82C82.9565 99.7554 83.9164 99.528 84.8662 99.2671C93.7023 96.8223 99.9833 88.5849 99.99 79.3942C100 59.7889 100.003 40.1835 99.99 20.5782C99.99 17.6618 99.3612 14.8792 98.2475 12.3574Z" fill="#03351A"/>
</svg>
