<svg width="240" height="230" viewBox="0 0 240 230" fill="none" xmlns="http://www.w3.org/2000/svg">
<path d="M212.225 164.349C197.329 154.702 182.434 145.055 167.538 135.407C168.03 134.072 168.521 132.736 169.013 131.4C188.972 135.655 208.931 139.86 228.939 144.115C229.185 143.026 229.48 141.938 229.726 140.849C210.799 134.616 191.921 128.333 172.995 122.099C173.093 120.318 173.191 118.487 173.29 116.706C195.51 115.717 217.78 114.727 240 113.689L240 110.077L174.175 110.077L172.749 103.745C187.202 98.5993 201.606 93.4541 216.059 88.3089C215.715 86.9731 215.42 85.6376 215.076 84.2524C199.541 87.5671 184.007 90.9314 168.472 94.2461C167.931 93.0093 167.341 91.7724 166.801 90.5356L212.864 60.2085C212.225 58.8728 211.586 57.5863 210.947 56.2505C195.264 64.463 179.582 72.725 163.9 80.9375C162.72 79.8491 161.541 78.7606 160.41 77.6721C172.847 63.7207 185.285 49.819 197.772 35.8676L194.871 32.6023C181.205 45.3168 167.587 58.0318 153.921 70.6969C152.495 69.8559 151.119 69.0148 149.693 68.1737C158.444 51.0561 167.243 33.9383 175.994 16.7712L172.405 14.594C162.278 30.4749 152.2 46.3557 142.073 62.1871C140.549 61.5934 139.025 60.9503 137.501 60.3566C140.795 44.179 144.089 27.9521 147.383 11.7744L143.745 10.8347C138.485 26.4682 133.224 42.1015 128.013 57.6855C126.44 57.5371 124.867 57.4378 123.343 57.2893L123.343 0.296944C121.475 0.197993 119.656 0.0987681 117.788 -0.000182257C116.166 18.3543 114.544 36.6593 112.921 55.0138L109.087 55.8551C103.384 39.3311 97.6324 22.7575 91.9299 6.23352C90.8975 6.48088 89.8652 6.72836 88.8328 6.97574C92.3723 24.786 95.9118 42.6455 99.5005 60.4557C98.124 60.9999 96.7967 61.495 95.4202 62.0392C87.7512 50.4625 80.0331 38.8858 72.3641 27.3091C71.0859 28.0512 69.8078 28.793 68.4804 29.5351C74.7729 42.3486 81.1146 55.2118 87.4071 68.0253C86.3747 69.1137 85.3423 70.1527 84.31 71.2411C68.1854 56.3498 52.0609 41.4583 35.8872 26.6165C35.0024 27.4575 34.1175 28.3481 33.1834 29.1892C47.6857 45.1689 62.237 61.1484 76.7393 77.1281C75.9527 78.4639 75.1661 79.8 74.4287 81.1357C57.9109 72.6759 41.3931 64.2655 24.8753 55.8057L23.0072 59.2685L70.201 90.3872C69.5619 91.6735 68.8736 92.9599 68.2345 94.2462C47.8331 89.6948 27.3824 85.0937 6.98098 80.5422C6.68601 81.6306 6.39105 82.7192 6.09609 83.8076C25.1702 90.1896 44.2444 96.571 63.3677 103.002C63.0727 104.882 62.7777 106.713 62.5319 108.593L0.196828 108.593C0.147666 110.275 0.0493428 112.007 0.000179972 113.689C20.8933 114.629 41.7863 115.569 62.6794 116.509C63.0727 118.241 63.466 119.972 63.8592 121.703L7.0792 141.147C7.325 142.136 7.52164 143.076 7.76744 144.065C27.4315 139.91 47.0464 135.803 66.7105 131.648C67.4479 132.835 68.1362 134.072 68.8736 135.259C56.4852 143.768 44.0968 152.228 31.6593 160.738C32.2983 161.826 32.8883 162.964 33.5273 164.053C46.9972 157.621 60.4671 151.189 73.937 144.758C74.7728 145.797 75.6085 146.836 76.4442 147.875C63.4659 162.519 50.4876 177.163 37.5093 191.807C38.2958 192.549 39.0332 193.34 39.8198 194.082C54.1254 181.269 68.4311 168.455 82.7859 155.592C83.9165 156.285 85.0472 156.928 86.2271 157.621C79.0005 173.155 71.7248 188.641 64.4982 204.175C65.6289 204.719 66.7596 205.313 67.8903 205.857L94.7809 163.162C96.3541 163.558 97.9763 163.953 99.5495 164.349C96.0591 181.863 92.5195 199.376 89.0291 216.84C90.0615 217.186 91.143 217.483 92.1754 217.83C97.6813 201.701 103.187 185.573 108.693 169.445C110.021 169.445 111.348 169.445 112.724 169.445L118.181 227.823C119.508 227.774 120.836 227.724 122.114 227.625L122.114 169.89C124.031 169.395 125.948 168.95 127.866 168.456C134.945 188.987 142.024 209.468 149.103 230C149.889 229.802 150.676 229.604 151.463 229.406C146.792 207.984 142.122 186.612 137.501 165.19L141.926 162.717C152.003 178.4 162.081 194.033 172.208 209.716C173.437 209.122 174.666 208.529 175.895 207.935C167.145 190.817 158.394 173.65 149.644 156.532C150.774 155.494 151.905 154.504 153.036 153.465C169.357 168.653 185.727 183.841 202.048 199.03C203.032 198.188 204.064 197.298 205.047 196.457C189.906 180.032 174.765 163.607 159.623 147.182C160.508 145.995 161.442 144.807 162.327 143.67C178.55 151.833 194.724 159.995 210.946 168.158C211.438 166.872 211.93 165.586 212.47 164.25L212.225 164.349Z" fill="#FED44E"/>
</svg>
