<svg width="186" height="175" viewBox="0 0 186 175" fill="none" xmlns="http://www.w3.org/2000/svg">
<path d="M110.843 0.135834C136.95 -1.90568 161.91 19.3286 161.574 46.0616C179.811 55.911 187.863 76.2408 184.349 96.3829C182.131 109.093 174.233 120.096 163.274 126.704C163.257 142.718 155.699 156.719 142.614 165.681C127.92 175.746 109.632 177.793 93.9541 168.513C71.3098 182.019 41.4314 173.688 29.0742 150.475C25.5144 143.781 24.0132 136.792 23.291 129.28C-6.96198 111.873 -8.16762 66.6981 22.1651 48.6202C20.4935 13.801 60.9197 -11.0893 91.167 6.56747C97.3654 3.39436 103.786 0.681641 110.843 0.129975V0.135834ZM143.399 33.5685C138.651 22.9799 125.156 14.9153 113.584 15.3702C105.026 15.7058 97.7975 20.221 91.4512 25.5323C82.9554 18.1854 72.7708 14.1371 61.5 17.2306C48.6369 20.7619 38.5033 31.4011 37.6387 45.0489C37.3942 48.9329 38.0366 52.7723 38.3721 56.5597C32.1454 60.8984 25.4975 64.0712 20.9483 70.3888C9.75697 85.936 15.944 109.081 33.2881 117.014C36.5294 118.498 39.5149 117.93 39.3672 122.319C39.1739 127.887 38.6848 131.481 40.2315 137.048C45.7532 156.963 70.3942 166.38 87.4258 154.199C89.5696 152.664 91.3265 150.679 93.4873 149.178C99.2251 154.279 106.254 158.606 114.152 159.09C125.247 159.767 137.678 152.482 143.382 143.15C148.193 135.286 148.438 126.449 146.385 117.617C163.558 112.431 172.612 97.3329 168.967 79.5509C166.494 67.4972 157.182 59.1487 145.566 55.963C146.527 48.3162 146.6 40.715 143.399 33.5685ZM107.074 79.0011V96.044L92.874 104.539L78.1397 96.5782L77.668 95.628L77.8272 79.2852L92.3506 70.5274L107.074 79.0011ZM145.566 55.963C145.566 55.9646 145.567 55.9663 145.566 55.9679L145.561 55.962C145.562 55.9625 145.565 55.9625 145.566 55.963Z" fill="#FFE15D"/>
</svg>
