<svg width="110" height="110" viewBox="0 0 110 110" fill="none" xmlns="http://www.w3.org/2000/svg">
<g clip-path="url(#clip0_586_1759)">
<path d="M62.0575 82.2675C65.709 85.5487 69.15 89.0741 73.0211 92.0406C82.5538 99.3416 96.0408 97.9905 103.902 89.2162C112.038 80.1404 111.972 66.9981 103.866 57.9477C98.7469 52.2363 91.8623 50.3804 84.7927 48.8339C83.7684 48.6083 82.7255 48.4476 81.7788 48.2731C85.1181 44.6641 88.6296 41.3689 91.5371 37.6115C97.3959 30.021 98.3026 21.5768 94.0007 13.0075C89.6463 4.33221 82.2169 -0.0769659 72.5379 0.26279C62.9964 0.593699 55.9103 5.33774 52.1509 14.2097C50.2247 18.748 49.0554 23.6036 47.5794 28.2254C45.2265 25.8642 42.6803 23.2149 40.0374 20.6674C30.4708 11.436 16.983 11.2038 7.06852 20.0599C-4.72347 30.5943 -1.24739 51.6968 13.3922 57.7148C18.1343 59.6643 23.1319 60.9857 27.8532 62.5449C25.0455 65.4518 21.7855 68.4318 18.9874 71.7921C9.48008 83.2103 12.4138 99.7556 25.0955 107.077C37.7489 114.383 53.8407 108.28 58.4225 94.377C59.7653 90.3027 60.8991 86.1645 62.0649 82.2655L62.0575 82.2675ZM65.8461 61.4115C62.5685 67.4273 54.611 69.9214 49.4328 66.793C42.0788 62.3516 40.1615 55.3672 44.3332 48.0324C47.6788 42.1504 56.0456 41.0783 61.443 44.3079C67.3364 47.8367 69.3247 55.4738 65.8461 61.4115Z" fill="#FFDD6A"/>
</g>
<defs>
<clipPath id="clip0_586_1759">
<rect width="110" height="110" fill="white"/>
</clipPath>
</defs>
</svg>
