<svg width="323" height="344" viewBox="0 0 323 344" fill="none" xmlns="http://www.w3.org/2000/svg">
<g clip-path="url(#clip0_1141_961)">
<path d="M166.53 7.00098L160.748 11.7773C166.424 7.08902 166.53 7.00453 166.533 7.00488C166.534 7.00572 166.536 7.00808 166.537 7.00977C166.54 7.01311 166.543 7.01708 166.547 7.02148C166.554 7.03035 166.563 7.04156 166.574 7.05469C166.596 7.08103 166.624 7.11591 166.659 7.15918C166.73 7.24616 166.827 7.36736 166.949 7.52148C167.194 7.82972 167.539 8.27052 167.97 8.83789C168.831 9.97228 170.037 11.6142 171.473 13.71C174.341 17.8968 178.146 23.9254 181.948 31.3691C186.975 41.2102 192.095 53.7139 194.965 67.834C205.501 58.1165 216.918 51.0428 226.71 46.0674C234.12 42.3022 240.708 39.6842 245.468 38C247.85 37.1569 249.783 36.5443 251.142 36.1377C251.821 35.9343 252.357 35.782 252.735 35.6777C252.924 35.6256 253.074 35.5852 253.182 35.5566C253.236 35.5424 253.28 35.531 253.312 35.5225C253.329 35.5182 253.342 35.5146 253.354 35.5117C253.359 35.5103 253.364 35.5089 253.368 35.5078C253.37 35.5073 253.373 35.5072 253.374 35.5068C253.376 35.5062 253.378 35.5056 255.119 42.3418L253.379 35.5049L262.112 33.2812L262.713 42.2734L255.229 42.7734C262.713 42.2734 262.714 42.2758 262.714 42.2783C262.714 42.2794 262.714 42.282 262.714 42.2842C262.714 42.2885 262.714 42.2941 262.715 42.2998C262.716 42.3111 262.717 42.3251 262.718 42.3418C262.72 42.3758 262.722 42.4216 262.726 42.4775C262.732 42.5894 262.741 42.7446 262.75 42.9414C262.769 43.3355 262.791 43.897 262.81 44.6113C262.847 46.0396 262.868 48.0833 262.812 50.6309C262.698 55.72 262.271 62.855 261.021 71.1348C259.41 81.7971 256.401 94.5619 250.802 107.357C263.87 106.209 276.117 107.244 286.168 108.911C294.355 110.269 301.208 112.067 306.038 113.532C308.456 114.266 310.375 114.919 311.71 115.397C312.378 115.637 312.9 115.832 313.267 115.972C313.45 116.042 313.594 116.099 313.698 116.14C313.75 116.16 313.792 116.177 313.823 116.189C313.839 116.196 313.853 116.201 313.863 116.205C313.868 116.207 313.873 116.209 313.877 116.211C313.879 116.212 313.882 116.212 313.883 116.213C313.885 116.214 313.888 116.215 311.068 123.165L317.437 127.127C317.436 127.128 317.435 127.13 317.434 127.132C317.431 127.136 317.428 127.14 317.425 127.145C317.419 127.154 317.411 127.167 317.402 127.182C317.384 127.21 317.36 127.249 317.33 127.296C317.27 127.39 317.186 127.522 317.079 127.687C316.865 128.017 316.557 128.484 316.156 129.073C315.355 130.252 314.184 131.92 312.656 133.948C309.604 138 305.108 143.523 299.278 149.482C291.613 157.319 281.488 166.066 269.158 173.18C281.198 180.225 291.105 188.806 298.638 196.506C304.467 202.465 308.964 207.988 312.016 212.04C313.543 214.068 314.715 215.736 315.516 216.914C315.916 217.503 316.224 217.971 316.438 218.302C316.546 218.467 316.629 218.598 316.689 218.692C316.719 218.74 316.744 218.778 316.762 218.807C316.771 218.821 316.778 218.833 316.784 218.843C316.787 218.848 316.791 218.852 316.793 218.855C316.794 218.857 316.795 218.86 316.796 218.861C316.793 218.866 316.628 218.972 310.428 222.823L313.242 229.774C313.241 229.775 313.238 229.777 313.236 229.777C313.232 229.779 313.228 229.78 313.223 229.782C313.212 229.787 313.198 229.792 313.183 229.799C313.151 229.811 313.109 229.828 313.058 229.849C312.954 229.89 312.809 229.946 312.626 230.016C312.26 230.156 311.737 230.352 311.069 230.591C309.734 231.069 307.815 231.722 305.397 232.456C300.568 233.922 293.714 235.718 285.527 237.076C275.137 238.799 262.402 239.847 248.838 238.507C254.06 250.84 256.913 263.076 258.466 273.358C259.716 281.639 260.143 288.775 260.257 293.864C260.314 296.412 260.292 298.456 260.255 299.885C260.236 300.599 260.214 301.161 260.195 301.555C260.186 301.752 260.177 301.908 260.171 302.02C260.168 302.075 260.165 302.12 260.163 302.154C260.162 302.171 260.161 302.186 260.16 302.197C260.16 302.203 260.159 302.208 260.159 302.212C260.159 302.214 260.159 302.217 260.159 302.218L252.675 301.723L260.158 302.223L259.558 311.215L250.824 308.991L252.675 301.723L250.819 308.99C250.818 308.99 250.815 308.989 250.813 308.988C250.809 308.987 250.804 308.986 250.799 308.984C250.788 308.982 250.774 308.978 250.758 308.974C250.725 308.965 250.681 308.954 250.627 308.939C250.519 308.911 250.37 308.87 250.181 308.818C249.803 308.714 249.266 308.562 248.587 308.358C247.229 307.952 245.296 307.34 242.913 306.497C238.154 304.813 231.566 302.194 224.155 298.429C214.97 293.762 204.356 287.249 194.38 278.439C191.432 291.445 186.65 302.979 181.948 312.184C178.146 319.628 174.341 325.656 171.473 329.844C170.037 331.94 168.831 333.581 167.97 334.716C167.539 335.283 167.195 335.725 166.95 336.033C166.828 336.187 166.731 336.309 166.66 336.396C166.625 336.439 166.596 336.474 166.574 336.5C166.563 336.513 166.554 336.524 166.547 336.533C166.543 336.537 166.541 336.542 166.538 336.545C166.537 336.547 166.535 336.549 166.534 336.55L160.748 331.778L166.53 336.554L160.748 343.556L154.965 336.555L160.748 331.778L154.962 336.551C154.961 336.55 154.959 336.548 154.958 336.546C154.955 336.543 154.952 336.539 154.948 336.534C154.941 336.525 154.932 336.514 154.921 336.501C154.899 336.475 154.871 336.44 154.836 336.396C154.766 336.31 154.668 336.188 154.546 336.034C154.301 335.726 153.957 335.284 153.526 334.717C152.665 333.582 151.458 331.941 150.022 329.845C147.154 325.658 143.35 319.63 139.548 312.187C134.651 302.601 129.666 290.489 126.758 276.817C116.268 286.454 104.922 293.48 95.1826 298.429C87.772 302.194 81.1842 304.813 76.4248 306.497C74.0422 307.34 72.1092 307.952 70.751 308.358C70.0721 308.562 69.5361 308.714 69.1582 308.818C68.9692 308.871 68.8189 308.911 68.7109 308.939C68.6573 308.954 68.614 308.965 68.5811 308.974C68.5645 308.978 68.5502 308.982 68.5391 308.984C68.5335 308.986 68.5286 308.987 68.5244 308.988C68.5223 308.989 68.5196 308.99 68.5186 308.99L66.6631 301.723L68.5137 308.991L59.7803 311.215L59.1797 302.223L66.6631 301.723L59.1797 302.218C59.1796 302.217 59.1788 302.214 59.1787 302.212C59.1784 302.208 59.1781 302.203 59.1777 302.197C59.177 302.186 59.1759 302.171 59.1748 302.154C59.1727 302.12 59.1702 302.075 59.167 302.02C59.1606 301.908 59.1529 301.752 59.1436 301.555C59.125 301.161 59.1025 300.6 59.084 299.886C59.0469 298.457 59.0253 296.413 59.082 293.865C59.1955 288.776 59.6214 281.641 60.8721 273.361C62.4866 262.673 65.5061 249.872 71.1318 237.046C58.1396 238.165 45.968 237.133 35.9688 235.475C27.782 234.117 20.9283 232.32 16.0986 230.854C13.6809 230.121 11.7618 229.467 10.4268 228.989C9.75898 228.75 9.23642 228.554 8.87012 228.414C8.68701 228.344 8.5424 228.288 8.43848 228.247C8.38676 228.227 8.34508 228.21 8.31348 228.197C8.29763 228.191 8.28415 228.185 8.27344 228.181C8.26814 228.179 8.26282 228.177 8.25879 228.176C8.25688 228.175 8.25493 228.173 8.25391 228.173L11.0684 221.222C4.8758 217.375 4.70373 217.265 4.7002 217.26C4.70077 217.259 4.70197 217.256 4.70312 217.254C4.7054 217.25 4.70795 217.246 4.71094 217.241C4.71703 217.231 4.7253 217.22 4.73438 217.205C4.7525 217.176 4.77669 217.138 4.80664 217.091C4.86664 216.996 4.95048 216.865 5.05762 216.7C5.27192 216.37 5.57994 215.902 5.98047 215.312C6.78133 214.134 7.9527 212.467 9.48047 210.438C12.5325 206.386 17.0291 200.864 22.8584 194.904C30.3159 187.281 40.101 178.794 51.9795 171.788C40.1047 164.784 30.322 156.3 22.8662 148.678C17.0369 142.719 12.5403 137.196 9.48828 133.144C7.96039 131.115 6.78918 129.447 5.98828 128.269C5.58797 127.68 5.27968 127.212 5.06543 126.882C4.9584 126.717 4.87444 126.586 4.81445 126.491C4.7846 126.444 4.7603 126.406 4.74219 126.377C4.73312 126.363 4.72484 126.35 4.71875 126.34C4.71581 126.335 4.71317 126.331 4.71094 126.327C4.70983 126.325 4.70858 126.323 4.70801 126.322L11.0762 122.36C8.25683 115.41 8.25932 115.409 8.26172 115.408L8.28125 115.4C8.29195 115.396 8.30548 115.391 8.32129 115.385C8.35288 115.372 8.39456 115.355 8.44629 115.335C8.55024 115.294 8.69475 115.237 8.87793 115.167C9.24423 115.027 9.76683 114.832 10.4346 114.593C11.7696 114.115 13.6887 113.461 16.1064 112.728C20.9361 111.262 27.7898 109.464 35.9766 108.106C46.3193 106.391 58.9863 105.344 72.4814 106.657C67.0774 94.0986 64.1485 81.6052 62.5674 71.1377C61.3167 62.8574 60.8908 55.7216 60.7773 50.6318C60.7206 48.0839 60.7422 46.0397 60.7793 44.6113C60.7979 43.897 60.8203 43.3355 60.8389 42.9414C60.8482 42.7446 60.8559 42.5894 60.8623 42.4775C60.8655 42.4216 60.868 42.3758 60.8701 42.3418C60.8712 42.3251 60.8723 42.3111 60.873 42.2998C60.8734 42.2941 60.8737 42.2885 60.874 42.2842C60.8742 42.282 60.8749 42.2794 60.875 42.2783C60.8834 42.2764 61.1277 42.2904 68.3584 42.7734L60.875 42.2734L61.4756 33.2812L70.209 35.5049L68.3584 42.7734C70.209 35.5054 70.2114 35.5062 70.2139 35.5068C70.215 35.5071 70.2177 35.5073 70.2197 35.5078C70.224 35.5089 70.2288 35.5103 70.2344 35.5117C70.2456 35.5146 70.2598 35.5182 70.2764 35.5225C70.3093 35.531 70.3526 35.5424 70.4062 35.5566C70.5142 35.5853 70.6645 35.6256 70.8535 35.6777C71.2314 35.782 71.7674 35.9344 72.4463 36.1377C73.8045 36.5443 75.7375 37.1569 78.1201 38C82.8794 39.6842 89.4675 42.3022 96.8779 46.0674C106.128 50.7671 116.827 57.3392 126.864 66.2432C129.786 52.7764 134.71 40.8418 139.547 31.3721C143.349 23.9279 147.154 17.8993 150.022 13.7119C151.458 11.6157 152.664 9.97347 153.525 8.83887C153.956 8.27143 154.301 7.83073 154.546 7.52246C154.668 7.3683 154.766 7.24715 154.836 7.16016C154.871 7.11671 154.899 7.08107 154.921 7.05469C154.932 7.0416 154.941 7.03032 154.948 7.02148C154.952 7.0172 154.955 7.01303 154.958 7.00977C154.959 7.00817 154.961 7.00663 154.962 7.00586C154.972 7.01132 155.197 7.1929 160.748 11.7773L154.965 7.00195L160.747 0L166.53 7.00098ZM159.668 230.255C154.998 239.892 149.016 249.938 141.913 259.822V259.823C141.19 260.829 140.452 261.815 139.702 262.784C141.381 279.119 147.068 293.936 152.905 305.362C155.668 310.771 158.433 315.352 160.746 318.894C163.06 315.351 165.826 310.771 168.59 305.36C174.144 294.488 179.56 280.546 181.52 265.15C180.114 263.436 178.747 261.661 177.426 259.823C170.322 249.939 164.338 239.893 159.668 230.255ZM126.974 219.093C117.797 223.936 107.413 228.344 96.2686 232.004C93.9707 232.759 91.6717 233.421 89.3789 234.003C81.5092 248.014 77.5944 263.089 75.7041 275.603C74.7857 281.683 74.3597 287.08 74.1748 291.343C78.1046 289.853 83.0061 287.791 88.3887 285.057C99.9263 279.194 113.37 270.411 124.309 257.895C124.241 256.353 124.205 254.799 124.205 253.234C124.205 241.145 125.184 229.578 126.974 219.093ZM194.812 220.845C196.416 230.861 197.29 241.814 197.29 253.234C197.29 255.565 197.21 257.871 197.062 260.149C207.605 271.475 220.118 279.553 230.95 285.057C236.332 287.791 241.233 289.853 245.162 291.343C244.977 287.079 244.552 281.68 243.634 275.599C241.798 263.445 238.052 248.877 230.629 235.216C228.83 234.732 227.028 234.197 225.228 233.605C214.199 229.984 203.917 225.628 194.812 220.845ZM169.401 203.706C169.117 204.941 168.806 206.187 168.462 207.441C168.186 208.448 167.888 209.466 167.571 210.496C170.733 219.336 175.534 229.229 181.823 239.409C181.082 228.533 179.487 218.574 177.278 210.06C175.88 209.041 174.536 208.017 173.252 206.984C171.916 205.91 170.631 204.815 169.401 203.706ZM149.989 203.94C149.417 204.424 148.837 204.906 148.244 205.383C147.125 206.283 145.96 207.177 144.753 208.066C142.562 215.942 140.909 225.161 139.999 235.271C145.08 226.555 149.033 218.131 151.765 210.495C151.449 209.467 151.152 208.45 150.876 207.444C150.553 206.268 150.259 205.099 149.989 203.94ZM321.496 226.427L313.247 229.772L310.428 222.823L316.799 218.865L321.496 226.427ZM11.0684 221.222L8.24902 228.171L0 224.825L4.69727 217.264L11.0684 221.222ZM252.106 181.226C250.919 181.665 249.718 182.088 248.501 182.487C236.747 186.347 225.193 189.033 214.474 190.528C222.032 197.958 229.562 206.747 236.601 216.541C237.914 218.369 239.155 220.222 240.327 222.092C255.727 225.194 270.878 224.301 283.073 222.278C289.078 221.282 294.286 220.022 298.35 218.883C295.717 215.534 292.22 211.396 287.915 206.995C278.995 197.876 266.869 187.873 252.106 181.226ZM68.7236 179.927C54.262 186.573 42.3666 196.412 33.5811 205.394C29.2761 209.794 25.7768 213.932 23.1445 217.281C27.2083 218.421 32.4173 219.681 38.4229 220.677C50.2754 222.642 64.9207 223.541 79.8721 220.742C80.7867 219.33 81.7408 217.929 82.7373 216.542V216.541L83.96 214.856C90.9829 205.276 98.4606 196.7 105.945 189.474C95.7163 187.938 84.7691 185.337 73.6436 181.683C71.976 181.135 70.3361 180.548 68.7236 179.927ZM186.93 191.566C187.41 192.717 187.874 193.893 188.318 195.094C188.993 196.919 189.633 198.821 190.24 200.792C197.367 205.484 206.012 210.05 215.771 214.109C208.308 205.135 200.669 197.617 193.485 191.911C192.632 191.895 191.789 191.872 190.957 191.835C189.595 191.775 188.251 191.684 186.93 191.566ZM134.892 190.789C133.674 190.893 132.439 190.975 131.188 191.03C129.773 191.093 128.326 191.123 126.848 191.126C119.666 196.694 111.996 204.114 104.477 213.021C115.047 208.712 124.356 203.803 131.902 198.761C132.314 197.508 132.737 196.286 133.177 195.097C133.721 193.624 134.293 192.186 134.892 190.789ZM198.066 169.685C196.279 170.881 194.487 171.99 192.701 173.006C193.638 173.584 194.576 174.185 195.512 174.812C196.5 175.473 197.492 176.166 198.492 176.888C206.784 176.644 216.296 175.392 226.475 173.067C216.471 170.745 207.096 169.455 198.872 169.136C198.602 169.32 198.335 169.505 198.066 169.685ZM122.447 167.54C113.89 167.886 104.096 169.28 93.6494 171.79C103.938 174.262 113.594 175.651 122.059 176.024C122.65 175.61 123.239 175.205 123.826 174.812C125.465 173.715 127.106 172.689 128.744 171.743C127.67 171.088 126.594 170.403 125.521 169.685C124.503 169.003 123.479 168.286 122.447 167.54ZM283.714 123.71C271.81 121.736 257.088 120.835 242.069 123.678C241.14 125.116 240.171 126.543 239.156 127.955L239.155 127.956C231.572 138.507 223.419 147.892 215.274 155.667C225.585 157.197 236.632 159.813 247.86 163.501C249.316 163.979 250.75 164.488 252.164 165.022C267.191 158.377 279.519 148.232 288.556 138.993C292.861 134.592 296.359 130.453 298.991 127.104C294.928 125.964 289.719 124.706 283.714 123.71ZM81.1338 123.081C65.7492 119.99 50.6142 120.885 38.4307 122.905C32.4252 123.901 27.2161 125.161 23.1523 126.3C25.7847 129.649 29.2837 133.787 33.5889 138.188C42.373 147.168 54.2662 157.005 68.7246 163.651C70.3341 163.031 71.9713 162.446 73.6357 161.899C85.0025 158.166 96.1829 155.532 106.602 154.01C99.0291 146.571 91.4845 137.768 84.4326 127.956C83.2774 126.349 82.1794 124.722 81.1338 123.081ZM217.428 131.46C206.389 135.976 196.735 141.145 189.039 146.434C188.802 147.118 188.564 147.794 188.318 148.459C187.551 150.534 186.727 152.539 185.852 154.459C187.313 154.321 188.804 154.22 190.316 154.153C191.567 154.098 192.843 154.068 194.144 154.06C201.586 148.417 209.589 140.747 217.428 131.46ZM105.887 131.137C113.095 139.715 120.451 146.928 127.387 152.458C128.675 152.467 129.94 152.497 131.18 152.552C132.438 152.607 133.68 152.689 134.903 152.794C134.301 151.389 133.725 149.943 133.177 148.462C132.739 147.279 132.318 146.064 131.909 144.818C124.698 140 115.879 135.303 105.887 131.137ZM139.812 106.066C140.672 117.058 142.405 127.061 144.759 135.514C145.967 136.404 147.132 137.299 148.252 138.199C149.658 139.33 151.007 140.484 152.295 141.652C152.628 140.136 153.007 138.602 153.432 137.055C153.589 136.481 153.754 135.904 153.925 135.323C150.874 126.433 146.118 116.411 139.812 106.066ZM181.31 110.238C176.22 119.098 172.303 127.633 169.664 135.322C169.834 135.903 170 136.479 170.157 137.052C170.545 138.464 170.894 139.865 171.205 141.252C172.076 140.495 172.972 139.744 173.893 139.004C174.662 138.385 175.452 137.768 176.264 137.154C178.545 129.423 180.298 120.296 181.31 110.238ZM322.137 119.562L317.439 127.123L311.068 123.165L313.888 116.215L322.137 119.562ZM11.0762 122.36L4.70508 126.318L0.0078125 118.757L8.25684 115.41L11.0762 122.36ZM247.717 53.1533C243.787 54.6431 238.887 56.7059 233.505 59.4404C221.845 65.3647 208.237 74.27 197.236 86.999C197.271 88.1003 197.29 89.2075 197.29 90.3203C197.29 102.908 196.23 114.93 194.297 125.755C203.685 120.73 214.371 116.158 225.868 112.382C228.095 111.651 230.322 111.005 232.544 110.437C240.393 96.4418 244.301 81.3916 246.188 68.8945C247.107 62.814 247.532 57.4162 247.717 53.1533ZM75.8701 53.1533C76.0549 57.417 76.4808 62.8158 77.3994 68.8975C79.2647 81.2463 83.1018 96.0869 90.7637 109.937C92.5994 110.428 94.4383 110.973 96.2764 111.577C107.419 115.237 117.801 119.643 126.977 124.485C125.185 113.994 124.205 102.419 124.205 90.3203C124.205 88.45 124.255 86.5955 124.352 84.7588C113.731 73.2173 101.047 65.0107 90.084 59.4404C84.7014 56.7056 79.7999 54.6432 75.8701 53.1533ZM160.748 24.6602C158.434 28.2031 155.669 32.7847 152.905 38.1953C147.194 49.376 141.627 63.8025 139.816 79.7178C141.116 81.3168 142.382 82.9679 143.608 84.6738C150.93 94.8616 157.065 105.221 161.795 115.129C166.525 105.222 172.659 94.8634 179.979 84.6748L179.98 84.6738L180.619 83.7939C181.047 83.2111 181.48 82.6345 181.917 82.0645C180.413 65.2188 174.581 49.9194 168.59 38.1924C165.826 32.7829 163.061 28.2024 160.748 24.6602Z" fill="url(#paint0_radial_1141_961)"/>
</g>
<defs>
<radialGradient id="paint0_radial_1141_961" cx="0" cy="0" r="1" gradientUnits="userSpaceOnUse" gradientTransform="translate(105.5 9.84665e-06) rotate(62.9311) scale(355.996 574.017)">
<stop stop-color="#FFE986"/>
<stop offset="0.451923" stop-color="#FFE580"/>
<stop offset="0.702904" stop-color="#FDCC3B"/>
<stop offset="1" stop-color="#EBB101"/>
</radialGradient>
<clipPath id="clip0_1141_961">
<rect width="323" height="344" fill="white"/>
</clipPath>
</defs>
</svg>
