<svg width="250" height="250" viewBox="0 0 250 250" fill="none" xmlns="http://www.w3.org/2000/svg">
<path d="M173.036 63.9555C171.397 71.2122 168.329 78.3174 164.917 85.1002C170.795 82.0552 176.895 79.3276 183.166 77.6183C190.411 75.6435 198.039 74.9835 205.954 76.8089C213.875 78.6357 221.536 82.826 229.044 89.71C236.789 96.8035 240.972 108.323 242.144 119.2C243.32 130.111 241.686 142.391 235.478 151.301L235.477 151.302C228.535 161.262 220.953 167.813 212.591 171.289C204.177 174.787 195.735 174.855 187.679 173.183C179.754 171.539 171.974 168.164 164.641 164.54C164.457 164.449 164.273 164.358 164.089 164.266C169.325 175.432 172.491 185.221 173.379 193.998C174.103 201.159 173.327 207.766 170.862 213.887C168.406 219.986 164.441 225.189 159.374 229.8C151.227 237.22 139.835 241.466 128.599 242.333C117.363 243.199 105.281 240.75 96.0454 233.487L96.0432 233.485C87.0484 226.406 81.2135 218.821 78.2008 210.629C75.1773 202.407 75.2463 194.255 76.9185 186.495C78.5669 178.845 81.8131 171.395 85.3297 164.381C85.4245 164.192 85.5196 164.003 85.615 163.814C72.8829 169.421 62.351 172.709 53.2488 173.382C46.1762 173.905 39.8075 172.874 33.9269 170.094C28.1234 167.35 23.2603 163.122 18.8321 157.953L18.8269 157.947C11.455 149.324 7.77434 137.122 7.51504 125.503C7.2564 113.913 10.3834 101.473 18.4041 92.7943L18.4044 92.794C25.7426 84.855 33.4077 79.8132 41.5245 77.3823C49.6553 74.9471 57.6193 75.3177 65.236 77.1996C72.349 78.9572 79.3037 82.0693 86.0007 85.5624C81.1904 75.0328 78.2113 65.6981 77.1814 57.2954C75.3757 42.5646 79.596 30.862 89.2948 21.2887C97.367 13.3155 109.209 8.75396 120.82 7.72641C132.43 6.69901 145.07 9.10411 154.485 16.6786L154.488 16.6812C163.361 23.8275 169.103 31.4589 172.023 39.6938C174.953 47.9559 174.8 56.1409 173.036 63.9555Z" stroke="url(#paint0_linear_1142_1083)" stroke-width="15"/>
<defs>
<linearGradient id="paint0_linear_1142_1083" x1="241.5" y1="161" x2="29.9997" y2="63.5007" gradientUnits="userSpaceOnUse">
<stop stop-color="#ECBA4A"/>
<stop offset="0.192308" stop-color="#FACC54"/>
<stop offset="0.384615" stop-color="#FDD656"/>
<stop offset="0.769231" stop-color="#FFDF5B"/>
</linearGradient>
</defs>
</svg>
