<svg version="1.1" id="Layer_1" xmlns="http://www.w3.org/2000/svg" xmlns:xlink="http://www.w3.org/1999/xlink" x="0px" y="0px"
	 width="100%" viewBox="0 0 171 171" enable-background="new 0 0 171 171" xml:space="preserve">
<path fill="#000000" opacity="1.000000" stroke="none" 
	d="
M69.000000,172.000000 
	C46.415592,172.000000 23.831184,172.000000 1.000000,172.000000 
	C1.000000,154.646545 1.000000,137.291931 1.264603,119.142029 
	C10.177737,122.364990 15.606251,128.374039 15.274008,138.677383 
	C15.229393,140.060944 18.691929,142.867966 20.345058,142.733704 
	C24.252775,142.416306 28.278807,141.206589 31.849636,139.503555 
	C46.103512,132.705414 56.578484,121.172226 67.233391,110.029404 
	C70.763626,106.337486 71.255226,101.125504 69.032310,96.249741 
	C66.851685,91.466736 62.451664,91.143127 57.844700,90.935921 
	C49.370903,90.554817 41.188828,91.940781 33.434357,95.085609 
	C24.340397,98.773666 15.438093,102.957077 6.588408,107.208221 
	C4.451445,108.234756 2.848510,110.372986 0.999999,112.000000 
	C1.000000,95.312439 1.000000,78.624878 1.259816,61.144936 
	C5.999847,63.606800 10.480061,66.861046 15.118771,70.438217 
	C28.911499,76.877548 42.800236,81.996246 58.048595,82.013924 
	C62.864155,82.019508 66.945297,81.124771 69.392868,76.222656 
	C72.159088,70.682343 70.249924,66.143753 66.621490,62.234711 
	C61.669449,56.899689 56.261528,51.987820 50.918480,46.579494 
	C42.762093,41.150436 34.941982,35.667725 26.645462,31.038910 
	C19.992525,27.327091 15.611879,30.160601 14.997149,37.664253 
	C14.349649,45.567894 9.215978,51.559280 1.000000,54.000000 
	C1.000000,36.397449 1.000000,18.794899 1.000000,1.000000 
	C23.353861,1.000000 45.708271,1.000000 68.861069,1.288369 
	C65.501183,7.123860 64.952438,13.808238 65.271095,20.156992 
	C65.615891,27.026377 67.612160,33.824238 69.019829,40.626038 
	C70.793068,49.194309 72.556709,57.748791 79.532997,64.055191 
	C84.901459,68.908134 91.158432,68.238571 95.293228,62.344879 
	C102.265594,52.406563 104.945045,40.984398 106.959213,29.335085 
	C107.628952,25.461498 108.580238,21.409935 108.079926,17.614100 
	C107.339233,11.994442 105.418396,6.530333 104.000000,1.000000 
	C126.584404,1.000000 149.168808,1.000000 172.000000,1.000000 
	C172.000000,18.353449 172.000000,35.708065 171.744064,53.857635 
	C170.604019,53.901596 169.833359,52.899670 168.817383,52.440342 
	C162.236191,49.464947 158.985916,44.838165 158.765884,37.227402 
	C158.576736,30.684809 154.140167,28.376814 147.834152,30.741219 
	C143.183289,32.485035 138.443420,34.461498 134.417862,37.293339 
	C128.290192,41.603916 122.419121,46.408306 117.052292,51.632900 
	C112.269859,56.288570 107.788940,61.454430 104.163223,67.036987 
	C101.035889,71.852158 102.650345,80.419464 110.151031,80.982414 
	C115.770668,81.404175 121.587852,81.804138 127.075279,80.839020 
	C138.844772,78.769020 150.382324,75.608871 160.655426,69.056007 
	C164.409698,66.661285 168.216934,64.349579 172.000000,62.000000 
	C172.000000,78.354225 172.000000,94.708458 171.737549,111.855667 
	C168.352264,110.085091 165.229416,107.521538 161.978241,104.652161 
	C160.912872,103.860664 159.975845,103.374985 158.932281,102.609375 
	C158.252823,102.205589 157.679901,102.081741 156.938568,101.625969 
	C143.301086,96.281410 129.977951,90.778564 115.188332,90.939949 
	C110.657608,90.989403 106.533150,91.822166 104.135033,95.835167 
	C101.512405,100.223854 102.506660,105.041779 105.443108,108.681404 
	C109.862900,114.159561 115.076721,118.997101 120.078064,124.417572 
	C128.228836,132.446869 136.755096,139.326859 147.798386,142.397232 
	C154.004715,144.122818 159.449432,141.817337 158.781021,136.901978 
	C157.365646,126.493706 164.604446,122.328445 172.000000,119.000000 
	C172.000000,136.602554 172.000000,154.205093 172.000000,172.000000 
	C149.646133,172.000000 127.291725,172.000000 104.139404,171.722656 
	C104.558899,169.038513 106.246864,166.754532 106.912712,164.203751 
	C109.879364,152.839005 107.754616,141.813797 104.060364,130.552658 
	C102.323380,122.165771 100.027069,114.418106 93.977089,108.513481 
	C89.872482,104.507507 82.096710,104.388947 79.286537,108.357811 
	C69.836815,121.703857 66.226601,136.961685 65.090530,153.408569 
	C65.065544,155.215607 65.116096,156.609833 65.094749,158.370819 
	C65.312263,159.840866 65.601669,160.944168 65.937698,162.442627 
	C66.989548,165.891861 67.994774,168.945938 69.000000,172.000000 
M98.684128,88.838036 
	C98.074600,86.081711 98.043129,83.008720 96.741035,80.631775 
	C93.554550,74.814896 85.644135,73.390854 79.666649,77.089638 
	C74.638817,80.200790 73.461952,87.494553 76.964035,92.951775 
	C79.573059,97.017342 83.667320,98.278687 87.880646,97.848946 
	C92.807991,97.346367 96.576637,94.482338 98.684128,88.838036 
z"/>
<path fill="#FFD456" opacity="1.000000" stroke="none" 
	d="
M172.000000,61.555840 
	C168.216934,64.349579 164.409698,66.661285 160.655426,69.056007 
	C150.382324,75.608871 138.844772,78.769020 127.075279,80.839020 
	C121.587852,81.804138 115.770668,81.404175 110.151031,80.982414 
	C102.650345,80.419464 101.035889,71.852158 104.163223,67.036987 
	C107.788940,61.454430 112.269859,56.288570 117.052292,51.632900 
	C122.419121,46.408306 128.290192,41.603916 134.417862,37.293339 
	C138.443420,34.461498 143.183289,32.485035 147.834152,30.741219 
	C154.140167,28.376814 158.576736,30.684809 158.765884,37.227402 
	C158.985916,44.838165 162.236191,49.464947 168.817383,52.440342 
	C169.833359,52.899670 170.604019,53.901596 171.744064,54.326294 
	C172.000000,56.370556 172.000000,58.741116 172.000000,61.555840 
M148.421890,56.960796 
	C147.057343,54.638344 145.692780,52.315891 144.100845,49.606430 
	C138.647598,54.232910 133.375534,58.705673 128.103470,63.178440 
	C128.356293,63.712440 128.609131,64.246437 128.861954,64.780434 
	C135.497696,62.394547 142.133423,60.008659 148.421890,56.960796 
z"/>
<path fill="#FFD456" opacity="1.000000" stroke="none" 
	d="
M0.999999,112.437500 
	C2.848510,110.372986 4.451445,108.234756 6.588408,107.208221 
	C15.438093,102.957077 24.340397,98.773666 33.434357,95.085609 
	C41.188828,91.940781 49.370903,90.554817 57.844700,90.935921 
	C62.451664,91.143127 66.851685,91.466736 69.032310,96.249741 
	C71.255226,101.125504 70.763626,106.337486 67.233391,110.029404 
	C56.578484,121.172226 46.103512,132.705414 31.849636,139.503555 
	C28.278807,141.206589 24.252775,142.416306 20.345058,142.733704 
	C18.691929,142.867966 15.229393,140.060944 15.274008,138.677383 
	C15.606251,128.374039 10.177737,122.364990 1.264603,118.673370 
	C1.000000,116.958336 1.000000,114.916664 0.999999,112.437500 
M43.126812,108.992569 
	C36.997185,111.025948 30.867556,113.059326 24.506027,115.169632 
	C26.231222,118.447212 27.468241,120.797333 29.032137,123.768463 
	C34.553425,118.797859 39.635590,114.222572 45.159267,109.260620 
	C45.314495,108.921066 45.469727,108.581512 45.624958,108.241966 
	C45.058613,108.467957 44.492271,108.693947 43.126812,108.992569 
z"/>
<path fill="#FFDA59" opacity="1.000000" stroke="none" 
	d="
M103.555832,1.000000 
	C105.418396,6.530333 107.339233,11.994442 108.079926,17.614100 
	C108.580238,21.409935 107.628952,25.461498 106.959213,29.335085 
	C104.945045,40.984398 102.265594,52.406563 95.293228,62.344879 
	C91.158432,68.238571 84.901459,68.908134 79.532997,64.055191 
	C72.556709,57.748791 70.793068,49.194309 69.019829,40.626038 
	C67.612160,33.824238 65.615891,27.026377 65.271095,20.156992 
	C64.952438,13.808238 65.501183,7.123860 69.329727,1.288369 
	C71.370560,1.000000 73.741112,1.000000 76.227798,1.296998 
	C80.692047,5.689413 86.094727,5.399114 91.326981,4.688871 
	C93.020370,4.459006 94.449821,2.284809 96.000000,1.000001 
	C98.370560,1.000000 100.741112,1.000000 103.555832,1.000000 
M88.952057,38.245590 
	C90.037422,32.628822 91.122787,27.012053 92.231323,21.275387 
	C88.369911,21.275387 85.282837,21.275387 81.404579,21.275387 
	C83.044998,29.268085 84.599754,36.843449 86.154518,44.418812 
	C86.419952,44.419849 86.685394,44.420887 86.950829,44.421925 
	C87.480492,42.602272 88.010155,40.782619 88.952057,38.245590 
z"/>
<path fill="#F9CB50" opacity="1.000000" stroke="none" 
	d="
M172.000000,118.562500 
	C164.604446,122.328445 157.365646,126.493706 158.781021,136.901978 
	C159.449432,141.817337 154.004715,144.122818 147.798386,142.397232 
	C136.755096,139.326859 128.228836,132.446869 120.229607,124.093521 
	C121.463448,122.061676 122.406036,120.090637 123.932999,119.386055 
	C127.166275,117.894142 130.704453,117.063019 134.429413,116.088806 
	C137.951981,118.833633 141.162735,121.450554 144.137390,123.875053 
	C145.777130,120.863358 147.212555,118.226913 148.702576,115.490211 
	C147.877487,114.983818 146.937439,114.406868 146.065933,113.499672 
	C149.791977,109.432251 153.449478,105.695068 157.106964,101.957893 
	C157.679901,102.081741 158.252823,102.205589 158.936035,102.940262 
	C160.066406,104.020058 161.086487,104.489014 162.106567,104.957977 
	C165.229416,107.521538 168.352264,110.085091 171.737549,112.324326 
	C172.000000,114.041664 172.000000,116.083336 172.000000,118.562500 
z"/>
<path fill="#FFDC5B" opacity="1.000000" stroke="none" 
	d="
M14.960276,70.115295 
	C10.480061,66.861046 5.999847,63.606800 1.259816,60.676277 
	C1.000000,58.958332 1.000000,56.916668 1.000000,54.437500 
	C9.215978,51.559280 14.349649,45.567894 14.997149,37.664253 
	C15.611879,30.160601 19.992525,27.327091 26.645462,31.038910 
	C34.941982,35.667725 42.762093,41.150436 50.691200,46.845482 
	C45.396366,49.561760 40.198238,51.697006 34.652973,53.811703 
	C32.432476,52.454166 30.559116,51.117180 28.607334,49.724224 
	C27.213926,52.593327 26.054638,54.980370 24.946114,57.262882 
	C26.525719,58.284752 27.818686,59.121193 28.805721,60.123024 
	C23.986618,63.564045 19.473448,66.839668 14.960276,70.115295 
z"/>
<path fill="#F9CB50" opacity="1.000000" stroke="none" 
	d="
M69.444168,172.000000 
	C67.994774,168.945938 66.989548,165.891861 66.242294,162.276215 
	C70.366577,158.092300 74.213669,154.449051 78.115089,150.864960 
	C78.916832,150.128418 79.921585,149.612885 80.909546,149.429260 
	C81.602898,150.572113 82.176247,151.841858 82.843498,151.893295 
	C85.763245,152.118317 88.710205,151.990173 92.188744,151.990173 
	C91.714600,148.020172 91.297707,144.529449 91.184341,140.874542 
	C95.695648,137.459213 99.903427,134.208054 104.111198,130.956894 
	C107.754616,141.813797 109.879364,152.839005 106.912712,164.203751 
	C106.246864,166.754532 104.558899,169.038513 103.670746,171.722656 
	C101.629440,172.000000 99.258888,172.000000 96.772095,171.718140 
	C92.317123,167.374329 87.113899,166.727844 81.713875,168.252487 
	C79.931946,168.755615 78.559616,170.709488 77.000000,172.000000 
	C74.629440,172.000000 72.258888,172.000000 69.444168,172.000000 
z"/>
<path fill="#000000" opacity="1.000000" stroke="none" 
	d="
M77.468269,172.000000 
	C78.559616,170.709488 79.931946,168.755615 81.713875,168.252487 
	C87.113899,166.727844 92.317123,167.374329 96.327927,171.718140 
	C89.978844,172.000000 83.957695,172.000000 77.468269,172.000000 
z"/>
<path fill="#000000" opacity="1.000000" stroke="none" 
	d="
M95.531731,1.000001 
	C94.449821,2.284809 93.020370,4.459006 91.326981,4.688871 
	C86.094727,5.399114 80.692047,5.689413 76.671959,1.296998 
	C83.021156,1.000000 89.042305,1.000000 95.531731,1.000001 
z"/>
<path fill="#FFDA59" opacity="1.000000" stroke="none" 
	d="
M35.000111,53.832253 
	C40.198238,51.697006 45.396366,49.561760 50.821770,47.160522 
	C56.261528,51.987820 61.669449,56.899689 66.621490,62.234711 
	C70.249924,66.143753 72.159088,70.682343 69.392868,76.222656 
	C66.945297,81.124771 62.864155,82.019508 58.048595,82.013924 
	C42.800236,81.996246 28.911499,76.877548 15.118773,70.438217 
	C19.473448,66.839668 23.986618,63.564045 29.199986,60.142609 
	C34.909100,61.359154 39.918018,62.721516 45.032265,64.361282 
	C45.673351,64.662659 46.209103,64.686615 46.744858,64.710571 
	C46.411289,64.267097 46.077721,63.823624 45.519375,63.121506 
	C41.863102,59.852657 38.431606,56.842453 35.000111,53.832253 
z"/>
<path fill="#FDCF53" opacity="1.000000" stroke="none" 
	d="
M104.060364,130.552658 
	C99.903427,134.208054 95.695648,137.459213 90.844147,140.680634 
	C89.175400,136.550919 88.150368,132.450928 87.125336,128.350937 
	C86.769058,128.395218 86.412781,128.439499 86.056503,128.483780 
	C84.315254,135.320999 82.574005,142.158234 80.832764,148.995468 
	C79.921585,149.612885 78.916832,150.128418 78.115089,150.864960 
	C74.213669,154.449051 70.366577,158.092300 66.195671,161.881042 
	C65.601669,160.944168 65.312263,159.840866 65.419922,158.300568 
	C67.194313,156.368546 68.571655,154.873489 70.826851,152.425552 
	C67.977745,152.712555 66.571907,152.854156 65.166069,152.995773 
	C66.226601,136.961685 69.836815,121.703857 79.286537,108.357811 
	C82.096710,104.388947 89.872482,104.507507 93.977089,108.513481 
	C100.027069,114.418106 102.323380,122.165771 104.060364,130.552658 
z"/>
<path fill="#FDCF53" opacity="1.000000" stroke="none" 
	d="
M156.938568,101.625969 
	C153.449478,105.695068 149.791977,109.432251 145.687988,113.567650 
	C139.068100,111.860153 132.894699,109.754448 126.721291,107.648743 
	C126.562157,108.027740 126.403015,108.406738 126.243874,108.785736 
	C128.868454,111.177460 131.493027,113.569183 134.117599,115.960907 
	C130.704453,117.063019 127.166275,117.894142 123.932999,119.386055 
	C122.406036,120.090637 121.463448,122.061676 120.104538,123.782928 
	C115.076721,118.997101 109.862900,114.159561 105.443108,108.681404 
	C102.506660,105.041779 101.512405,100.223854 104.135033,95.835167 
	C106.533150,91.822166 110.657608,90.989403 115.188332,90.939949 
	C129.977951,90.778564 143.301086,96.281410 156.938568,101.625969 
z"/>
<path fill="#FFD456" opacity="1.000000" stroke="none" 
	d="
M98.404457,89.119965 
	C96.576637,94.482338 92.807991,97.346367 87.880646,97.848946 
	C83.667320,98.278687 79.573059,97.017342 76.964035,92.951775 
	C73.461952,87.494553 74.638817,80.200790 79.666649,77.089638 
	C85.644135,73.390854 93.554550,74.814896 96.741035,80.631775 
	C98.043129,83.008720 98.074600,86.081711 98.404457,89.119965 
z"/>
<path fill="#F9CB50" opacity="1.000000" stroke="none" 
	d="
M65.090530,153.408569 
	C66.571907,152.854156 67.977745,152.712555 70.826851,152.425552 
	C68.571655,154.873489 67.194313,156.368546 65.491806,157.933823 
	C65.116096,156.609833 65.065544,155.215607 65.090530,153.408569 
z"/>
<path fill="#FDCF53" opacity="1.000000" stroke="none" 
	d="
M161.978241,104.652161 
	C161.086487,104.489014 160.066406,104.020058 159.042572,103.220200 
	C159.975845,103.374985 160.912872,103.860664 161.978241,104.652161 
z"/>
<path fill="#000000" opacity="1.000000" stroke="none" 
	d="
M148.595520,57.291782 
	C142.133423,60.008659 135.497696,62.394547 128.861954,64.780434 
	C128.609131,64.246437 128.356293,63.712440 128.103470,63.178440 
	C133.375534,58.705673 138.647598,54.232910 144.100845,49.606430 
	C145.692780,52.315891 147.057343,54.638344 148.595520,57.291782 
z"/>
<path fill="#000000" opacity="1.000000" stroke="none" 
	d="
M44.717754,109.647293 
	C39.635590,114.222572 34.553425,118.797859 29.032137,123.768463 
	C27.468241,120.797333 26.231222,118.447212 24.506027,115.169632 
	C30.867556,113.059326 36.997185,111.025948 43.721146,109.141556 
	C44.449570,109.409447 44.583664,109.528366 44.717754,109.647293 
z"/>
<path fill="#000000" opacity="1.000000" stroke="none" 
	d="
M44.120705,109.105240 
	C44.492271,108.693947 45.058613,108.467957 45.624954,108.241966 
	C45.469727,108.581512 45.314495,108.921066 44.938511,109.453957 
	C44.583664,109.528366 44.449570,109.409447 44.120705,109.105240 
z"/>
<path fill="#000000" opacity="1.000000" stroke="none" 
	d="
M88.745941,38.604279 
	C88.010155,40.782619 87.480492,42.602272 86.950829,44.421925 
	C86.685394,44.420887 86.419952,44.419849 86.154518,44.418812 
	C84.599754,36.843449 83.044998,29.268085 81.404579,21.275387 
	C85.282837,21.275387 88.369911,21.275387 92.231323,21.275387 
	C91.122787,27.012053 90.037422,32.628822 88.745941,38.604279 
z"/>
<path fill="#000000" opacity="1.000000" stroke="none" 
	d="
M134.429413,116.088806 
	C131.493027,113.569183 128.868454,111.177460 126.243874,108.785736 
	C126.403015,108.406738 126.562157,108.027740 126.721291,107.648743 
	C132.894699,109.754448 139.068100,111.860153 145.619446,113.897888 
	C146.937439,114.406868 147.877487,114.983818 148.702576,115.490211 
	C147.212555,118.226913 145.777130,120.863358 144.137390,123.875053 
	C141.162735,121.450554 137.951981,118.833633 134.429413,116.088806 
z"/>
<path fill="#000000" opacity="1.000000" stroke="none" 
	d="
M44.926937,64.083878 
	C39.918018,62.721516 34.909100,61.359154 29.505917,59.977211 
	C27.818686,59.121193 26.525719,58.284752 24.946114,57.262882 
	C26.054638,54.980370 27.213926,52.593327 28.607334,49.724224 
	C30.559116,51.117180 32.432476,52.454166 34.652973,53.811703 
	C38.431606,56.842453 41.863102,59.852657 45.311493,63.293282 
	C45.194572,63.843761 45.060753,63.963818 44.926937,64.083878 
z"/>
<path fill="#000000" opacity="1.000000" stroke="none" 
	d="
M80.909546,149.429260 
	C82.574005,142.158234 84.315254,135.320999 86.056503,128.483780 
	C86.412781,128.439499 86.769058,128.395218 87.125336,128.350937 
	C88.150368,132.450928 89.175400,136.550919 90.540619,140.844818 
	C91.297707,144.529449 91.714600,148.020172 92.188744,151.990173 
	C88.710205,151.990173 85.763245,152.118317 82.843498,151.893295 
	C82.176247,151.841858 81.602898,150.572113 80.909546,149.429260 
z"/>
<path fill="#000000" opacity="1.000000" stroke="none" 
	d="
M45.536270,63.551926 
	C46.077721,63.823624 46.411289,64.267097 46.744858,64.710571 
	C46.209103,64.686615 45.673351,64.662659 45.032265,64.361282 
	C45.060753,63.963818 45.194572,63.843761 45.536270,63.551926 
z"/>
</svg>