<svg width="300" height="300" viewBox="0 0 300 300" fill="none" xmlns="http://www.w3.org/2000/svg">
<path d="M243.098 33.0705C234.145 36.861 227.06 39.8827 218.217 43.6183C217.009 34.1146 216.02 26.3139 214.757 16.2608C207.452 21.0402 200.971 25.3251 192.787 30.6538C189.162 22.3037 185.757 14.4478 180.264 1.59304C175.266 10.7123 171.366 17.8536 165.709 28.1814C158.679 15.6562 154.834 8.84427 149.836 -0.000231844C145.332 8.45974 141.762 15.162 136.928 24.1713C129.898 17.8538 124.186 12.7448 116.936 6.31745C114.025 14.1731 111.278 21.8094 107.763 31.3131C99.6344 25.7097 93.318 21.3148 84.5849 15.3269L84.5849 43.6185C74.0393 39.9928 66.185 37.3012 57.0125 34.1699C57.9462 42.52 58.825 50.2109 59.9784 60.264C50.6412 59.4949 42.8968 58.8905 32.9005 58.0665C36.1411 65.9222 38.9971 72.8436 43.0066 82.4572C33.5596 83.7757 25.2659 84.9298 15.0499 86.3581C20.103 93.3898 24.6617 99.7071 30.7035 108.112C21.8606 111.463 14.5554 114.21 5.49277 117.671C10.7106 123.219 15.8187 128.603 22.904 136.184C15.3793 141.018 8.40375 145.523 0.000230611 150.962C7.63479 155.082 14.5553 158.817 28.1767 166.178C18.0705 171.617 11.095 175.407 0.32972 181.23C13.3469 186.394 21.0914 189.47 30.0991 193.041C24.7713 201.007 20.3774 207.544 14.5554 216.169C24.332 216.664 32.1312 217.048 42.4022 217.543C38.9419 227.321 36.1408 235.177 32.9002 244.186C41.9079 242.867 49.5974 241.714 59.5388 240.231C58.715 250.064 58.1108 257.864 57.2869 267.862C65.5256 264.237 72.501 261.161 81.7833 257.04C83.0466 266.874 84.0901 274.51 85.3534 284.508C92.4936 280.003 98.81 275.938 107.818 270.28C110.948 279.674 113.64 287.749 116.825 297.417C122.538 290.715 127.701 284.727 134.511 276.817C140.169 285.112 144.837 291.979 150.275 300C154.669 292.364 158.623 285.607 165.379 273.906C171.805 282.86 176.474 289.342 182.516 297.802C185.427 288.353 187.734 280.937 190.809 271.049C199.268 276.048 206.463 280.223 215.251 285.387C215.855 276.268 216.349 268.576 217.008 258.304C225.961 261.49 233.101 264.017 242.439 267.313C241.285 258.743 240.297 251.217 239.033 241.439C248.59 241.988 256.939 242.482 266.441 243.031C263.036 234.901 260.07 227.65 256.28 218.586C266.551 217.817 274.46 217.212 285.006 216.443C279.623 208.533 275.009 201.666 269.132 193.041C277.975 189.8 285.39 187.108 297.144 182.823C288.301 178.208 280.776 174.253 269.407 168.375C284.456 159.64 291.212 155.685 300 150.631C291.761 146.127 285.116 142.501 276.218 137.612C283.193 130.086 288.96 123.823 294.947 117.395C287.148 114.978 279.568 112.616 269.572 109.485C275.009 100.75 279.403 93.6087 285.006 84.5994L257.104 84.5995C260.454 74.7661 263.091 66.9656 266.112 58.1211C256.994 58.9451 249.25 59.714 239.308 60.593C240.681 50.8145 241.725 43.2336 243.153 33.1805L243.098 33.0705Z" fill="#FFD85A"/>
</svg>
