<svg width="175" height="175" viewBox="0 0 175 175" fill="none" xmlns="http://www.w3.org/2000/svg">
<path d="M161.201 137.963C156.527 128.889 152.478 119.411 147.079 110.841C139.969 99.6159 140.956 91.3816 152.708 84.559C158.864 80.9629 164.789 76.7283 170.155 72.0231C172.69 69.8049 175.488 65.3684 174.928 62.6461C174.368 60.0919 169.562 58.4789 166.567 56.5296C166.172 56.2607 165.48 56.4285 164.954 56.3277C129.534 49.9422 129.665 49.9424 130.686 12.0319C130.785 8.06611 128.415 4.03282 127.164 -0.000196764C123.444 1.68023 119.066 2.58777 116.07 5.14202C88.6491 28.3992 88.7809 28.3993 60.5041 5.20939C57.3769 2.65515 52.9987 1.71395 49.2131 -7.61484e-05C47.9293 3.99935 45.8225 7.89814 45.5262 11.9648C44.6374 23.9966 48.7522 39.7253 42.794 47.1528C36.8028 54.5803 20.9033 53.5384 9.51352 56.6976C6.09002 57.6386 3.16033 60.2937 0.000174576 62.1758C2.0411 65.7383 3.35778 70.1411 6.22166 72.729C15.0438 80.795 29.9557 86.8445 32.1283 96.1876C34.268 105.43 23.6683 117.664 18.8622 128.687C17.4138 132.015 16.7554 135.711 14.4511 143.677C27.7501 140.45 38.1853 138.803 47.962 135.342C60.9648 130.737 68.108 133.897 72.9141 147.676C76.3046 157.456 83.382 165.926 88.8465 175C93.6525 165.993 99.7096 157.422 102.968 147.878C107.873 133.493 115.938 130.368 129.336 135.375C138.257 138.702 147.737 140.484 156.954 142.937C158.403 141.257 159.884 139.576 161.333 137.862L161.201 137.963Z" fill="#FFD157"/>
</svg>
