<svg width="300" height="300" viewBox="0 0 300 300" fill="none" xmlns="http://www.w3.org/2000/svg">
<g clip-path="url(#clip0_1141_962)">
<path d="M268.419 101.047C285.796 107.514 297.369 124.978 299.593 143.08C302.408 165.969 290.464 190.387 268.419 198.858C285.645 241.1 241.843 285.092 199.351 268.937C196.698 272.924 194.879 277.304 191.774 281.024C167.296 310.391 115.814 305.164 101.205 268.867C58.7242 284.57 14.6097 242.375 31.1874 199.206C24.6189 195.857 18.2126 191.974 13.3122 186.389C-7.73716 162.446 -3.50874 122.128 23.7616 104.86C25.117 104.002 30.921 101.627 31.1874 100.676C14.8067 58.388 59.037 14.0253 101.217 31.6174C114.783 -5.06176 167.238 -10.4043 191.462 18.6146C194.647 22.4273 196.686 26.8659 199.374 30.98C208.619 27.9785 217.203 26.7153 226.888 28.3146C259.348 33.6803 281.382 70.1045 268.419 101.047ZM182.217 71.5415V46.3702C182.217 45.8371 179.031 37.8755 178.487 36.7977C168.385 17.1659 135.971 15.6014 123.425 33.8541C122.371 35.3954 118.003 43.9018 118.003 45.2113V71.5415C116.995 71.7965 116.845 71.1243 116.265 70.6723C110.311 66.1063 105.654 58.7473 99.0969 54.2855C73.3557 36.7629 40.2235 64.5534 50.7887 92.7726C54.6812 103.156 65.8141 108.904 71.7223 117.828H45.9811C44.7647 117.828 36.609 121.629 35.103 122.568C17.0077 133.902 16.22 163.57 33.3537 176.167C34.6049 177.083 44.0233 182.054 44.8226 182.054H71.7223C71.9771 183.062 71.3052 183.213 70.8534 183.793C64.8757 191.604 55.1446 196.587 51.1942 206.368C41.3472 230.693 63.4508 254.601 88.5316 250.661C100.8 248.726 108.48 234.819 118.003 228.352V255.262C118.003 255.888 122.788 265.46 123.541 266.515C136.064 284.142 167.493 282.797 178.058 263.838C178.707 262.667 182.217 254.729 182.217 254.115V228.364C191.971 235.039 197.416 247.323 209.87 250.186C240.094 257.116 264.098 222.28 243.558 197.978C239.503 193.18 233.062 188.648 229.367 183.816C228.915 183.236 228.255 183.086 228.498 182.077H254.818C255.884 182.077 264.654 177.523 266.055 176.538C284.301 163.755 282.807 132.928 263.588 121.791C262.256 121.015 255.212 117.84 254.239 117.84H228.498C228.243 116.831 228.915 116.681 229.367 116.101C234.707 109.125 244.102 103.747 248.099 95.496C260.587 69.7336 233.109 40.2628 206.522 51.0174C196.744 54.9808 191.763 64.704 183.955 70.6839C183.376 71.1359 183.225 71.7965 182.217 71.5531V71.5415Z" fill="url(#paint0_linear_1141_962)"/>
</g>
<defs>
<linearGradient id="paint0_linear_1141_962" x1="150" y1="0" x2="150" y2="300" gradientUnits="userSpaceOnUse">
<stop stop-color="#FFDE5C"/>
<stop offset="0.600486" stop-color="#FED055"/>
<stop offset="1" stop-color="#F9CB50"/>
</linearGradient>
<clipPath id="clip0_1141_962">
<rect width="300" height="300" fill="white"/>
</clipPath>
</defs>
</svg>
