<svg width="285" height="250" viewBox="0 0 285 250" fill="none" xmlns="http://www.w3.org/2000/svg">
<g clip-path="url(#clip0_586_1757)">
<path d="M188.204 98.8279C195.691 85.8596 203.439 73.4944 210.118 60.5748C216.462 48.2896 220.094 35.0008 220.297 21.0291C220.409 13.6742 219.736 6.27274 212.332 2.26309C205.214 -1.59616 198.655 1.73934 192.69 5.44961C176.633 15.4537 165.321 29.9938 155.576 45.845C150.513 54.0743 145.882 62.5536 141.094 70.8477C137.245 63.5963 133.266 55.4101 128.685 47.5637C119.658 32.1213 108.646 18.2814 94.042 7.663C91.3393 5.6965 88.3776 3.9085 85.2808 2.65166C72.9991 -2.31494 64.2833 3.13394 63.1247 16.3823C61.9715 29.54 65.012 42.1357 70.342 53.8195C77.3817 69.2708 85.811 84.0717 93.4048 98.6713C83.3389 98.5141 71.8295 97.6954 60.3802 98.2859C41.8731 99.2376 23.5974 101.869 7.67526 112.639C-3.707 120.328 -3.82028 131.009 7.44027 138.745C24.6954 150.581 44.5486 153 64.6802 153.72C74.4619 154.072 84.2964 153.252 95.0453 152.929C91.2669 158.636 87.6562 163.674 84.4833 168.98C73.888 186.683 65.1312 205.12 63.1332 226.037C62.8753 228.7 62.8249 231.435 63.033 234.101C64.2455 249.89 74.4457 255.436 88.2484 247.472C110.232 234.798 123.265 214.332 134.772 192.672C136.958 188.561 138.91 184.315 141.562 178.911C145.741 187.103 149.026 194.357 153.002 201.198C162.984 218.363 174.158 234.624 191.584 245.247C198.107 249.217 205.191 254.025 212.842 248.961C220.209 244.092 220.828 235.859 220.109 227.727C217.726 200.563 205.315 177.606 189.903 155.931C189.255 155.026 188.582 154.137 187.373 152.502C195.35 152.953 202.605 153.549 209.873 153.715C227.994 154.134 245.814 152.129 262.892 145.682C266.857 144.191 270.787 142.274 274.291 139.908C287.448 131.01 286.917 118.66 273.108 110.828C255.57 100.859 236.254 98.2663 216.523 97.9334C207.347 97.7747 198.144 98.4747 188.192 98.8212L188.204 98.8279ZM141.596 99.9722C144.07 94.4181 145.789 89.8189 148.102 85.5155C155.782 71.159 164.205 57.2466 178.141 47.9705C185.787 42.8881 190.647 45.6313 190.897 54.7102C190.946 56.7065 190.587 58.7331 190.255 60.7127C187.331 77.5336 179.15 91.9451 169.498 105.663C168.055 107.704 166.67 109.778 164.664 112.712C169.198 112.237 172.299 111.81 175.412 111.608C192.574 110.473 209.68 110.461 225.676 117.885C228.762 119.323 233.114 123.242 232.838 125.503C232.451 128.607 228.652 132.755 225.48 133.735C216.12 136.625 206.426 139.12 196.697 140.001C186.195 140.951 175.51 139.92 165.413 139.761C169.748 146.575 174.487 153.419 178.58 160.625C184.957 171.819 190.181 183.551 190.845 196.696C191.273 205.143 185.972 208.596 178.844 204.215C174.512 201.558 170.442 198.068 167.133 194.206C156.648 181.966 146.673 169.303 142.575 153.051C141.547 153.645 141.043 153.76 140.886 154.06C140.245 155.251 139.627 156.457 139.174 157.726C133.417 173.724 123.505 186.948 111.582 198.762C109.096 201.231 105.946 203.255 102.755 204.755C96.4553 207.694 92.4134 205.345 92.6056 198.364C92.7715 192.618 93.3404 186.418 95.6608 181.291C102.212 166.782 109.76 152.709 116.184 139.907C106.274 139.965 94.5427 141.018 83.0453 139.8C73.4011 138.777 63.6904 135.951 54.6575 132.329C48.1074 129.703 48.1685 123.49 54.087 119.941C58.2585 117.445 62.9882 114.927 67.6862 114.438C84.288 112.651 100.983 111.731 117.272 110.514C116.24 109.059 114.116 106.224 112.132 103.283C103.761 90.9208 96.6643 77.92 93.6228 63.1371C92.4295 57.3404 89.6277 50.0059 96.1292 46.5275C102.355 43.2024 107.468 48.966 111.833 53.0794C125.335 65.7953 134.17 81.5958 141.62 99.9857L141.596 99.9722Z" fill="#FFDD5B"/>
</g>
<defs>
<clipPath id="clip0_586_1757">
<rect width="285" height="250" fill="white"/>
</clipPath>
</defs>
</svg>
