<svg width="240" height="230" viewBox="0 0 240 230" fill="none" xmlns="http://www.w3.org/2000/svg">
<path d="M123.343 0.296875V54.1582C125.244 54.2965 127.119 54.5247 128.966 54.8389C131.257 47.9933 133.556 41.1386 135.86 34.2793L143.744 10.835L147.382 11.7744C144.304 26.8923 141.225 42.0532 138.147 57.1768C140.084 57.8409 141.976 58.6029 143.815 59.457C148.295 52.4482 152.768 45.4319 157.239 38.4092L172.404 14.5947L175.993 16.7715C167.958 32.5356 159.882 48.2586 151.84 63.9775C153.626 65.1766 155.344 66.4706 156.984 67.8525C169.622 56.128 182.227 44.3661 194.871 32.6025L197.771 35.8682C186.311 48.6729 174.892 61.4365 163.477 74.2344C164.842 75.7999 166.127 77.438 167.323 79.1426C181.864 71.5216 196.406 63.8658 210.946 56.251C211.585 57.5866 212.224 58.8733 212.863 60.209L172.022 87.0967C172.951 88.9936 173.781 90.9475 174.505 92.9521C184.145 90.8883 193.785 88.8145 203.425 86.7461L215.076 84.2529C215.334 85.2917 215.564 86.3028 215.809 87.3066L216.059 88.3096C203.029 92.9481 190.038 97.5851 177.017 102.224C177.49 104.787 177.798 107.409 177.928 110.077H240V113.688C219.315 114.656 198.587 115.58 177.896 116.501C177.758 118.856 177.483 121.174 177.077 123.446C189.906 127.678 202.717 131.928 215.538 136.167L229.726 140.85C229.48 141.938 229.184 143.027 228.938 144.115C210.819 140.262 192.74 136.447 174.665 132.602C173.96 134.604 173.15 136.556 172.241 138.453C185.569 147.085 198.897 155.718 212.225 164.35L212.471 164.25C211.93 165.586 211.438 166.873 210.946 168.159C196.505 160.892 182.101 153.626 167.668 146.359C166.426 148.167 165.088 149.904 163.657 151.559C177.454 166.525 191.25 181.491 205.047 196.457C204.064 197.298 203.032 198.189 202.049 199.03C187.232 185.242 172.375 171.451 157.551 157.663C155.877 159.109 154.12 160.463 152.29 161.716C160.158 177.115 168.028 192.545 175.896 207.936C174.667 208.529 173.437 209.122 172.208 209.716C162.86 195.24 153.555 180.805 144.253 166.336C142.316 167.254 140.322 168.071 138.276 168.777C140.331 178.29 142.394 187.795 144.463 197.299L151.463 229.406C150.676 229.604 149.889 229.802 149.103 230C142.338 210.379 135.573 190.804 128.808 171.188C126.615 171.554 124.382 171.8 122.114 171.918V227.625C120.836 227.724 119.508 227.774 118.181 227.823L112.934 171.691C111.322 171.527 109.73 171.296 108.16 171.005C102.832 186.613 97.5042 202.222 92.1758 217.83C91.1435 217.484 90.0616 217.186 89.0293 216.84L94.2891 190.613C95.7737 183.221 97.257 175.824 98.7344 168.427C96.7743 167.71 94.8633 166.891 93.0068 165.979L67.8906 205.857C66.7599 205.313 65.6287 204.719 64.498 204.175C71.2031 189.761 77.948 175.389 84.6592 160.981C83.2093 159.942 81.8085 158.838 80.4609 157.675C66.886 169.838 53.3526 181.961 39.8193 194.083C39.0328 193.341 38.2953 192.549 37.5088 191.807L73.7725 150.889C72.5782 149.465 71.4501 147.983 70.3926 146.449C58.1041 152.317 45.8159 158.185 33.5273 164.053C32.8883 162.964 32.2983 161.826 31.6592 160.737L50.2852 147.998C55.3211 144.552 60.3517 141.105 65.3828 137.652C64.5924 135.936 63.8816 134.175 63.2559 132.375C44.7485 136.282 26.28 140.153 7.76758 144.065C7.52178 143.076 7.3249 142.136 7.0791 141.146L60.8018 122.75C60.4552 120.666 60.2187 118.545 60.0967 116.393C40.0646 115.491 20.032 114.59 0 113.688L0.0449219 112.42C0.0787241 111.569 0.11854 110.713 0.152344 109.862L0.196289 108.593H60.1631C60.3229 106.428 60.5992 104.296 60.9863 102.203C42.6606 96.0425 24.3782 89.9247 6.0957 83.8076L6.98047 80.542C25.7759 84.7352 44.614 88.9682 63.416 93.168C64.1103 91.2224 64.9034 89.3237 65.79 87.4785L23.0068 59.2686L24.875 55.8057C40.1293 63.6184 55.3834 71.39 70.6377 79.1963C71.786 77.5565 73.0153 75.9776 74.3203 74.4658C60.6191 59.3741 46.88 44.2813 33.1836 29.1895C33.6505 28.7691 34.1053 28.3361 34.5537 27.9033L35.8867 26.6162C50.8933 40.3871 65.8571 54.2019 80.8184 68.0186C82.3478 66.7191 83.9448 65.4968 85.6025 64.3564C79.9029 52.758 74.1724 41.1258 68.4805 29.5352L70.4404 28.4219L72.3643 27.3096C79.5005 38.082 86.6782 48.8554 93.8203 59.6279C95.4755 58.8457 97.1729 58.1382 98.9082 57.5098C95.5223 40.6765 92.1764 23.804 88.832 6.97559L91.9297 6.2334C97.5209 22.4347 103.159 38.6845 108.752 54.8877C110.146 54.6435 111.557 54.4472 112.983 54.3027L117.788 0C119.656 0.0989296 121.475 0.197945 123.343 0.296875ZM119.5 66C93.8188 66 73 86.8188 73 112.5C73 138.181 93.8188 159 119.5 159C145.181 159 166 138.181 166 112.5C166 86.8188 145.181 66 119.5 66Z" fill="#FFDD6A"/>
</svg>
