<svg width="232" height="232" viewBox="0 0 232 232" fill="none" xmlns="http://www.w3.org/2000/svg">
<path d="M114.949 0.00629934C121.569 -0.152957 127.551 2.7184 131.762 7.37544L131.765 7.38032C134.396 10.2923 137.5 14.2995 139.606 19.1967C144.484 14.703 154.853 7.19417 168.2 12.8403L168.202 12.8413L168.883 13.142C175.816 16.3258 179.549 21.9755 181.129 27.5073C182.421 32.0309 182.28 36.7395 182.27 38.476C182.27 38.5668 182.338 39.6844 182.252 41.3247C184.628 40.8189 187.141 40.5034 189.788 40.4526H189.798L190.446 40.4467C197.197 40.4581 205.445 42.6038 210.864 49.7631C216.561 57.289 216.035 66.177 213.409 73.019L213.148 73.6743C212.179 76.0377 210.923 78.6231 209.347 81.2036C210.317 81.4587 211.291 81.7406 212.267 82.0532L212.278 82.0571C216.333 83.3582 228.451 87.6005 230.674 101.566L230.673 101.567C232.612 113.742 225.955 123.224 217.26 127.685L216.845 127.893L216.843 127.894L214.999 128.792C216.937 130.647 218.779 132.733 220.469 135.092L220.47 135.091C224.75 141.063 227.736 149.75 224.379 158.629C220.824 168.032 212.2 172.412 204.19 173.308H204.191C202.185 173.533 200.159 173.663 198.13 173.705C199.788 178.107 204.767 192.021 193.709 203.175H193.71C183.049 213.93 169.61 210.488 162.432 206.14C162.04 208.486 161.463 210.869 160.66 213.273L160.445 213.902L160.444 213.904L160.223 214.515C157.856 220.854 152.951 227.788 144.218 230.189C135.314 232.636 127.407 228.99 122.196 224.807V224.808C119.624 222.745 117.433 220.487 115.561 218.116C114.695 219.235 113.767 220.337 112.772 221.414L112.275 221.944C106.846 227.649 97.8606 233.131 87.286 230.215C77.2462 227.446 72.2306 218.847 70.1463 211.562L69.954 210.862L69.951 210.851C69.551 209.33 69.2305 207.822 68.9813 206.33C67.6365 206.943 66.241 207.507 64.7928 208.012L64.0926 208.251L64.0887 208.252L63.3758 208.48C55.9225 210.77 45.9109 211.05 38.1942 204.075C29.9224 196.598 29.7932 185.866 32.1424 177.947V177.948C32.4845 176.794 32.8645 175.646 33.2782 174.508C29.5283 174.291 25.6347 173.573 21.6717 172.143L21.1014 171.93C15.2004 169.661 9.16299 165.137 6.59752 157.518C3.97728 149.735 6.20076 142.333 9.51549 136.979L9.51451 136.978C11.3723 133.975 13.5109 131.36 15.8329 129.083C13.8947 127.921 11.9865 126.594 10.1288 125.078C4.14472 120.195 -0.797203 112.373 0.107286 103.023C1.08416 92.9272 8.34297 86.109 16.6522 83.3461V83.3452C18.4719 82.7397 20.3209 82.2203 22.1844 81.7778C21.2528 80.3578 20.3672 78.8727 19.537 77.3178C18.1469 74.7161 16.2235 70.5088 15.7987 65.5395C15.3192 59.9286 16.8151 52.9621 22.7831 47.6401L22.7928 47.6323C25.9927 44.7837 29.8275 42.9512 33.2362 41.9155C36.5235 40.9168 41.2544 40.1002 46.2264 41.229L46.2254 41.2299C47.18 41.4455 48.1411 41.6801 49.1063 41.934C49.0297 41.1296 48.9686 40.3166 48.9266 39.4956L48.8807 38.5288C48.7768 36.0382 48.7543 31.9718 49.954 27.8071C51.5604 22.2306 55.269 16.7065 61.951 13.3637L61.9579 13.3598L61.9647 13.3569C73.6457 7.52834 84.8665 12.1158 91.3358 18.9819C93.0447 14.9903 95.469 11.0207 98.9315 7.35396V7.35493C102.88 3.17299 108.466 0.162422 114.949 0.00629934ZM120.346 17.1313C117.318 14.0915 112.969 14.3368 109.838 17.6528C104.087 23.7426 102.64 31.554 102.255 39.4594C101.832 48.0741 102.161 56.7176 102.161 64.2827C100.047 59.5168 97.9888 53.143 94.578 47.6206C90.5844 41.1619 85.6978 35.1944 80.6424 29.5112C77.6168 26.1071 73.1722 24.5283 68.662 26.7788C64.0902 29.066 63.7048 33.5637 63.868 37.8647L63.9071 38.7221C64.4428 49.2468 68.9998 58.4197 74.243 67.2612C76.4605 70.9963 79.0072 74.533 81.704 78.6274C74.5251 73.0955 68.1828 67.3552 61.0321 62.977C55.5446 59.6201 49.1923 57.2753 42.9061 55.8569C39.8241 55.1571 35.2097 56.6606 32.7665 58.8354C29.5954 61.6633 30.6032 65.9125 32.3983 69.5336L32.7665 70.2495C38.7991 81.5498 48.9478 88.3209 59.5848 94.5053C62.4131 96.1507 65.3261 97.6449 68.2108 99.2241C59.8856 97.6638 51.6729 95.2421 43.3758 94.8354C36.0748 94.4761 28.294 95.2808 21.3876 97.5786C13.5992 100.166 12.9763 107.785 19.3046 113.2L19.6112 113.456C26.9311 119.432 35.811 121.446 44.9256 122.401C51.569 123.101 58.2506 123.394 63.3905 123.763C55.6572 126.42 46.4388 129.248 37.5028 132.775C31.3481 135.196 25.8975 139.007 22.2704 144.87C18.8477 150.394 20.3196 155.421 26.1815 157.81L26.7626 158.033C34.2046 160.718 41.7222 159.583 48.8729 157.124C56.0892 154.647 62.9865 151.233 70.0243 148.236C70.8228 147.895 71.6125 147.526 73.1249 146.836C66.6508 153.512 60.2614 159.121 55.1122 165.711C51.3443 170.524 48.2617 176.35 46.5233 182.212C43.6479 191.905 49.728 197.21 59.369 194.014C69.7988 190.553 76.7994 182.629 83.452 174.402C86.2051 170.998 88.621 167.319 91.9754 162.676C89.57 170.061 87.3522 176.132 85.6327 182.335C83.3869 190.439 82.2591 198.676 84.4579 207.036C87.0419 216.832 94.3991 218.969 101.409 211.603L102.093 210.864C109.016 203.151 111.559 193.343 113.352 183.367C114.33 177.967 114.78 172.463 115.353 167.924C117.129 176.624 118.718 186.222 121.133 195.603C122.808 202.107 125.743 208.186 131.059 212.677L131.582 213.107C137.727 218.043 143.629 216.539 146.288 208.946C149.436 199.953 148.044 190.875 145.573 181.996C143.947 176.133 141.787 170.421 139.419 163.319C144.014 169.22 147.284 174.563 151.653 178.733C157.253 184.085 163.446 188.936 169.939 193.144C173.886 195.697 179.157 196.548 183.057 192.615C187.05 188.586 185.753 183.385 184.024 178.808L183.691 177.955C180.165 169.191 174.082 162.164 167.346 155.688C164.79 153.229 162.121 150.903 158.785 147.858C167.223 151.205 174.506 154.94 182.229 156.898C188.732 158.553 195.865 159.149 202.517 158.402L202.902 158.354C210.904 157.262 213.087 150.541 208.277 143.83C202.602 135.905 194.069 132.179 185.303 129.172C179.007 127.007 172.457 125.569 166.763 124.008C174.712 123.252 183.499 123.082 191.993 121.389C198.298 120.131 204.396 117.294 210.231 114.429C214.159 112.5 216.64 108.812 215.86 103.923C215.127 99.3182 211.378 97.5213 207.694 96.3393L206.653 96.021C195.891 92.8757 185.088 94.3114 174.355 96.8032C170.728 97.6448 167.148 98.6939 165.325 99.1762L165.288 99.186C173.219 93.342 182.54 87.0342 191.147 79.8569C194.708 76.8876 197.481 72.3483 199.275 67.9702C202.385 60.4054 198.241 55.2985 190.076 55.4497C182.681 55.5915 176.517 59.0527 170.71 63.0336C163.268 68.1306 156.135 73.6823 149.604 78.4956C151.549 75.5547 154.603 71.8948 156.586 67.7153C160.316 59.8478 163.502 51.715 166.734 43.6206C167.354 42.0792 167.27 40.197 167.27 38.476C167.289 33.8425 167.382 28.7834 162.355 26.6557L161.883 26.4682C157.017 24.6702 152.927 27.1834 149.304 30.6645C139.653 39.9222 133.79 51.431 129.505 63.9038C129.204 64.7926 128.932 65.7008 128.594 66.5708C128.49 66.8355 128.227 67.0434 127.616 67.7807C128.086 63.45 128.613 59.6676 128.894 55.8569C129.656 45.455 130.068 35.0247 125.849 25.1713C124.647 22.3534 122.702 19.7234 120.635 17.435L120.346 17.1313ZM108.071 99.895C112.892 94.4862 119.16 94.5617 123.745 100.075C124.696 101.218 126.292 102.163 127.765 102.51L128.058 102.571C133.165 103.515 136.561 107.308 136.324 112.324L136.29 112.812C136.047 115.474 135.723 118.132 135.403 120.789C135.967 121.802 136.273 122.883 136.273 124.006C136.273 124.356 136.242 124.702 136.184 125.043C136.281 130.078 133.062 133.558 127.598 134.808C125.869 135.205 123.999 136.217 122.796 137.503C118.426 142.175 112.459 142.222 108.09 137.702C106.502 136.056 104.284 134.685 102.104 134.023C96.0812 132.207 93.2903 126.543 95.6864 120.765L95.7899 120.496C96.275 119.116 96.3017 117.263 95.7997 115.952C93.3287 109.474 96.8894 103.338 103.664 102.382C105.233 102.155 106.991 101.105 108.071 99.895Z" fill="url(#paint0_linear_1142_1082)"/>
<defs>
<linearGradient id="paint0_linear_1142_1082" x1="115.505" y1="0" x2="115.505" y2="231.024" gradientUnits="userSpaceOnUse">
<stop stop-color="#FFDC5B"/>
<stop offset="0.5" stop-color="#FFDA5A"/>
<stop offset="0.75" stop-color="#F7C950"/>
<stop offset="1" stop-color="#F1C14C"/>
</linearGradient>
</defs>
</svg>
