<svg width="375" height="375" viewBox="0 0 375 375" fill="none" xmlns="http://www.w3.org/2000/svg">
<g clip-path="url(#clip0_1141_965)">
<path d="M175.023 16.1612C177.429 9.12868 184.05 -5.97659 192.934 2.52745L192.939 2.52159C205.345 14.3964 206.729 56.5688 207.59 73.2394L222.543 41.9083C227.704 33.6139 240.619 9.61909 251.974 11.4357C256.089 12.0958 257.419 17.2999 258.019 20.7169C261.724 41.7973 251.772 65.8623 246.706 86.0724C259.99 75.0445 288.068 40.8102 306.596 42.837C307.617 42.9479 308.639 42.9132 309.535 43.503C315.669 52.2821 308.739 64.9809 304.41 73.462C297.183 87.6265 286.939 100.138 277.515 112.877C292.759 106.691 307.254 97.5556 323.223 93.1398C375.059 78.7941 347.333 114.665 325.491 129.186L297.676 147.859L333.775 144.325C341.691 144.121 373.111 144.915 374.727 154.337C376.466 164.465 356.199 171.966 348.621 175.254L304.79 187.502C320.889 191.34 337.784 194.728 352.992 201.311C373.777 210.306 388.931 224.348 354.999 229.33C336.727 232.011 317.183 228.291 298.863 227.175L326.4 245.802C332.078 251.555 339.155 255.977 344.506 262.128C363.503 283.974 348.74 287.753 326.376 282.297C309.778 278.249 292.402 269.113 277.532 260.977L306.191 304.481C309.161 311.017 318.229 332.173 305.39 332.208C287.509 332.255 258.862 299.966 246.712 287.793C250.685 305.731 258.244 323.348 258.589 341.945C258.72 349.159 259.58 357.605 253.814 363.02C244.883 367.324 233.469 350.065 229.128 344.142L207.596 300.626C206.675 319.049 205.975 339.381 200.398 357.097C198.225 364.012 194.935 373.248 187.025 375C179.495 372.091 176.692 363.989 174.465 357.097C168.829 339.597 168.307 320.024 167.268 301.788L152.314 333.12C148.027 340.656 131.851 368.393 121.037 363.025C114.351 359.702 116.714 335.906 117.641 329.323C119.689 314.773 125.194 300.638 129.339 286.625C121.316 294.738 113.643 303.558 105.08 311.14C98.791 316.712 72.7275 338.773 64.4375 330.654C60.5127 322.67 64.7051 313.739 68.084 306.228C75.3229 290.136 86.9744 276.293 97.3428 262.146C81.5645 268.536 66.9319 277.542 50.1856 281.625C43.5581 283.243 21.8362 288.839 21.6104 277.899C21.2897 262.204 63.9507 235.948 76.0059 227.163C57.7513 228.226 38.0774 232.017 19.8643 229.318C-13.3968 224.389 0.77792 210.388 21.8711 201.299C36.0105 195.207 51.9141 191.317 67.0987 188.636C68.5833 188.373 71.0887 188.092 68.8975 186.346C53.5645 183.729 37.1566 179.979 22.8272 173.934C5.9621 166.819 -15.4516 151.743 16.4434 145.826C36.0817 142.181 57.5077 146.218 77.1817 147.854L37.8399 119.858C32.9585 114.957 13.3617 96.0781 25.9151 91.0314C42.3052 84.4368 81.517 105.99 97.337 112.877C88.3105 99.9391 77.5441 87.6549 70.418 73.4903C59.729 52.2291 56.9557 31.05 87.5264 49.6651C102.877 59.0108 114.487 74.694 128.14 86.0724C125.384 72.7199 119.434 59.2623 117.581 45.7462C108.846 -17.9855 144.678 21.5989 156.816 50.296L167.256 73.2394C168.74 54.5657 168.895 34.0464 175.023 16.1612ZM187.5 125C152.982 125 125 152.982 125 187.5C125 222.018 152.982 250 187.5 250C222.018 250 250 222.018 250 187.5C250 152.982 222.018 125 187.5 125Z" fill="url(#paint0_linear_1141_965)"/>
</g>
<defs>
<linearGradient id="paint0_linear_1141_965" x1="268.5" y1="-58" x2="60" y2="364.5" gradientUnits="userSpaceOnUse">
<stop offset="0.447115" stop-color="#FFE15D"/>
<stop offset="0.778846" stop-color="#FBD053"/>
<stop offset="1" stop-color="#EDBC4A"/>
</linearGradient>
<clipPath id="clip0_1141_965">
<rect width="375" height="375" fill="white"/>
</clipPath>
</defs>
</svg>
