<svg width="240" height="241" viewBox="0 0 240 241" fill="none" xmlns="http://www.w3.org/2000/svg">
<path d="M188.22 157.147C193.178 157.147 197.221 157.616 201.121 157.047C209.394 155.842 217.866 154.995 225.743 152.396C242.313 146.941 244.67 132.697 231.604 120.962C222.758 113.02 212.16 108.536 201.187 104.71C200.339 104.409 199.502 104.085 197.827 103.472C201.341 100.416 204.768 98.0397 207.434 95.0057C213.008 88.6588 218.461 82.1669 223.386 75.3068C225.325 72.6075 226.239 68.8484 226.724 65.4463C227.98 56.6677 224.245 51.135 215.773 48.8818C204.283 45.8144 193.211 48.4692 182.271 51.9159C178.647 53.0648 175.122 54.5372 171.982 55.6973C172.511 44.989 173.469 34.5037 173.348 24.0408C173.293 19.2221 171.817 14.0799 169.746 9.68499C165.383 0.393299 157.043 -1.69256 148.087 3.42737C137.467 9.50659 130.746 19.1887 124.621 29.4174C123.2 31.7933 121.944 34.2584 120.424 37.0247C115.83 30.0755 111.819 23.104 106.895 16.8575C103.293 12.2953 98.9299 8.0231 94.1266 4.78831C82.1074 -3.28754 71.3881 1.29698 67.9839 15.5636C65.0755 27.7555 66.3644 39.9138 68.6559 52.0388C68.8542 53.0984 69.1296 54.147 69.4932 55.7867C62.3102 53.5447 55.7223 50.5664 48.8699 49.596C40.8387 48.4471 32.3998 47.934 24.4568 49.1722C15.0595 50.6334 11.2367 58.2185 13.7264 67.5659C17.3509 81.1967 27.0455 90.3211 37.1809 99.0439C38.7012 100.36 40.2656 101.621 42.0283 103.093C34.7573 106.305 27.4201 108.748 20.9312 112.63C14.883 116.244 9.04422 120.751 4.32905 125.993C-2.74371 133.879 -0.892947 143.361 8.00856 149.217C16.5796 154.861 26.3515 156.478 36.3106 157.047C41.18 157.326 46.0824 157.092 50.8637 157.092C46.7654 166.395 42.4578 175.14 39.0977 184.242C37.4121 188.804 36.7733 194.024 36.8614 198.932C37.0597 210.778 44.2977 216.568 55.7551 214.504C68.4904 212.217 78.5597 204.833 88.0892 196.534C89.5654 195.251 91.0527 193.969 92.0552 193.087C95.3492 203.718 98.2465 214.192 101.915 224.376C103.303 228.246 106.046 231.86 108.867 234.939C115.895 242.591 124.764 242.747 131.176 234.638C135.549 229.105 138.601 222.412 141.708 215.987C143.371 212.541 144.098 208.592 144.924 204.788C145.751 201.018 146.169 197.148 146.919 192.351C149.893 194.827 152.438 196.969 155.005 199.066C163.631 206.127 172.731 212.351 183.891 214.459C196.075 216.757 203.555 210.366 203.489 197.872C203.423 185.748 198.455 175.207 192.803 164.922C191.503 162.546 190.06 160.248 188.209 157.147L188.22 157.147ZM143.481 120.617C143.47 133.79 133.082 144.342 120.06 144.398C107.269 144.454 96.5832 133.623 96.5942 120.594C96.5942 107.454 107.082 96.9021 120.082 96.9356C133.225 96.9802 143.492 107.376 143.481 120.605L143.481 120.617Z" fill="#FFD658"/>
</svg>
