<svg width="221" height="221" viewBox="0 0 221 221" fill="none" xmlns="http://www.w3.org/2000/svg">
<g clip-path="url(#clip0_1141_970)">
<path d="M104.024 144.755C107.864 135.075 112.774 134.815 116.524 144.755C117.628 147.682 118.547 151.4 119.269 155.623C119.327 155.965 119.384 156.309 119.44 156.657C119.493 156.99 119.546 157.325 119.597 157.663C119.671 158.155 119.742 158.654 119.811 159.157C119.954 160.204 120.087 161.275 120.208 162.365C122.343 181.611 120.944 207.024 114.874 218.504C114.464 219.274 113.385 221.213 112.855 221.724V221.714C108.565 225.804 105.264 219.994 103.794 216.384C101.895 211.719 100.561 205.324 99.7716 198.173C97.7533 179.907 99.2871 156.701 104.024 144.755ZM123.855 133.643C126.975 132.693 130.684 135.373 133.004 137.283C136.738 140.351 140.727 144.879 144.62 150.151C144.86 150.476 145.1 150.803 145.339 151.133C145.653 151.566 145.966 152.004 146.277 152.446C154.409 163.973 161.888 178.36 165.41 188.936C165.744 189.938 166.043 190.905 166.304 191.833C167.2 195.026 168.706 201.131 168.056 205.078C167.51 208.402 165.437 210.196 160.183 207.435C145.963 199.964 120.234 154.255 121.503 138.295C121.609 137.017 122.398 134.291 123.693 133.706C123.746 133.682 123.8 133.66 123.855 133.643ZM95.1281 133.317C100.722 132.899 99.1154 142.642 97.1847 149.403C92.6547 165.233 79.2847 187.834 67.8947 199.714H67.8849C64.7407 202.996 58.3783 208.65 54.5949 208.029C52.6102 207.709 51.3314 205.667 51.5929 200.654C52.463 184.034 74.8729 145.964 88.5929 136.334C91.4354 134.34 93.5638 133.431 95.1281 133.317ZM135.316 122.642C136.754 122.136 138.652 122.01 139.894 122.033C140.017 122.035 140.134 122.038 140.243 122.042C144.263 122.222 149.688 123.742 155.729 126.146C156.571 126.482 157.425 126.834 158.288 127.202C159.594 127.759 160.923 128.352 162.266 128.978C164.165 129.863 166.094 130.813 168.032 131.815C169.286 132.464 170.544 133.135 171.8 133.824C172.291 134.094 172.782 134.366 173.272 134.642C174.156 135.138 175.038 135.643 175.916 136.156C176.231 136.34 176.546 136.525 176.859 136.711C177.33 136.989 177.799 137.27 178.266 137.553C181.38 139.436 184.42 141.402 187.292 143.402C196.108 149.541 203.354 155.987 206.383 161.232C207.064 162.412 207.518 163.452 207.764 164.36C207.822 164.573 207.865 164.78 207.9 164.979C207.935 165.181 207.962 165.376 207.975 165.564C208.175 168.595 205.389 169.733 200.613 169.494C195.407 169.235 188.465 167.025 181.044 163.725C180.499 163.482 179.953 163.233 179.403 162.98C178.923 162.758 178.441 162.532 177.957 162.302C177.704 162.182 177.452 162.06 177.198 161.938C176.649 161.672 176.098 161.402 175.546 161.127C173.096 159.905 170.628 158.591 168.184 157.215C167.566 156.867 166.949 156.516 166.335 156.16C165.027 155.403 163.73 154.629 162.449 153.844C152.314 147.634 143.228 140.705 138.473 135.305C136.794 133.403 133.235 129.202 133.04 125.963C132.989 125.13 133.16 124.361 133.643 123.712C133.993 123.24 134.597 122.893 135.316 122.642ZM81.3136 121.523C84.6702 121.524 86.4457 122.357 87.1798 123.642C88.7533 126.378 85.5806 131.167 82.8429 134.334C82.5673 134.652 82.2733 134.975 81.965 135.305C73.3901 144.471 52.435 157.714 35.4689 164.36C29.0892 166.86 23.2734 168.428 18.8927 168.494C17.5772 168.514 16.4176 168.4 15.4552 168.138C12.5653 167.351 11.4579 165.22 13.2433 161.304C19.9933 146.494 65.3836 121.513 81.3136 121.523ZM108.203 -0.545889C109.816 -2.0976 111.27 -2.30185 112.561 -1.65429L112.57 -1.6494C116.788 0.467095 119.268 11.6605 119.873 14.6543C123.133 30.8242 122.993 52.6041 119.274 68.6641C118.385 72.4865 115.544 83.7982 110.722 84.002C125.255 84.1212 137 95.9385 137 110.5C137 125.135 125.136 137 110.5 137C95.8646 137 84.0002 125.136 84.0001 110.5C84.0001 95.8645 95.8646 84 110.5 84C110.558 84 110.616 84.0006 110.674 84.001C106.211 83.0052 104.662 77.3214 103.523 73.4141C98.4826 56.0741 98.4326 25.2037 104.023 8.01368C104.793 5.65368 106.463 1.12411 108.193 -0.545889H108.203ZM168.823 100.254C182.723 99.4139 203.084 99.8639 215.984 105.214C219.108 106.508 222.98 108.664 223.027 111.35C223.054 112.569 222.292 113.898 220.314 115.305C207.134 124.675 153.693 124.215 140.303 115.005C137.995 113.415 137.15 111.947 137.238 110.623C137.447 107.391 143.237 105.015 146.963 103.844C153.453 101.814 162.023 100.654 168.823 100.244V100.254ZM10.4904 102.074C29.8203 97.2105 65.5566 98.1 79.0929 105.314C93.6729 113.094 71.3527 118.354 65.1827 119.404C60.3325 120.233 51.1405 120.939 41.0665 120.968C39.732 120.972 38.382 120.964 37.0245 120.942C36.3613 120.932 35.6963 120.918 35.0304 120.901C34.7802 120.895 34.5298 120.888 34.2794 120.881C33.7268 120.865 33.1739 120.846 32.6212 120.825C30.8763 120.76 29.1334 120.671 27.4093 120.556C27.1687 120.54 26.9284 120.523 26.6886 120.506C14.5394 119.635 3.44828 117.42 -0.636593 112.904H-0.626827C-4.14681 109.014 -0.197088 106.154 3.3429 104.494C5.31903 103.572 7.73871 102.765 10.4904 102.074ZM198.734 53.2627C217.734 50.4328 205.165 64.4922 198.605 70.3623H198.595L198.593 70.3643H198.592C186.592 81.1038 166.113 93.1232 150.574 97.4629C149.006 97.9004 146.982 98.4001 144.872 98.7783C137.337 100.131 128.704 99.9314 135.863 89.7549C141.504 81.7412 155.069 72.1 168.952 64.7002C169.391 64.4665 169.829 64.2349 170.268 64.0059C170.46 63.9053 170.653 63.8057 170.846 63.7061C181.206 58.3456 191.553 54.3285 198.734 53.2627ZM15.3165 52.2402C16.6011 51.7074 18.4534 51.5059 20.923 51.6943C36.593 52.9043 65.5434 70.3242 77.4034 80.8242L77.3927 80.834C80.6427 83.714 87.8035 91.0045 87.9835 95.3545C88.026 96.379 87.6852 97.1385 87.1075 97.6982C85.3844 99.3836 81.5157 99.265 79.3829 99.0547C62.5229 97.3845 25.5628 75.7647 15.7628 61.8447C12.4461 57.1251 12.0233 53.5957 15.3165 52.2402ZM153.164 21.4629C157.644 16.8128 169.864 6.11371 169.454 20.0234C169.453 20.0759 169.449 20.1286 169.447 20.1817C169.438 20.44 169.422 20.7044 169.401 20.9746C169.374 21.3178 169.336 21.6699 169.291 22.0313C169.268 22.2189 169.246 22.4092 169.218 22.6016C169.104 23.3962 168.949 24.2306 168.759 25.1006C168.698 25.3802 168.632 25.6634 168.564 25.9502C168.089 27.9298 167.438 30.0771 166.637 32.3438C166.534 32.6342 166.429 32.9265 166.321 33.2207C165.84 34.5386 165.311 35.894 164.737 37.2774C164.532 37.7722 164.322 38.2708 164.107 38.7725C162.906 41.563 161.541 44.4519 160.054 47.3682C158.625 50.1701 157.082 52.9969 155.462 55.7852C155.243 56.1622 155.023 56.5386 154.801 56.9141C154.363 57.6551 153.92 58.3929 153.473 59.126C152.564 60.614 151.636 62.0823 150.695 63.5225C147.708 68.0998 144.59 72.3844 141.525 76.0518C141.022 76.6535 140.52 77.2386 140.021 77.8057C136.41 81.9065 132.916 85.0643 129.843 86.7344C128.445 87.4948 127.27 87.9049 126.289 88.0254C126.051 88.0547 125.825 88.0665 125.609 88.0625C125.384 88.0582 125.17 88.0362 124.968 87.9971C124.879 87.9799 124.792 87.9583 124.707 87.9346C124.672 87.9248 124.638 87.9152 124.604 87.9043C123.369 87.5115 122.632 86.4136 122.255 84.8877C121.886 83.3965 121.862 81.4983 122.064 79.4541C122.185 78.2241 122.402 76.9167 122.702 75.5449C122.796 75.1181 122.897 74.685 123.006 74.2461C123.536 72.1182 124.249 69.8541 125.113 67.501C125.275 67.0607 125.441 66.6171 125.613 66.1709C125.822 65.6305 126.038 65.0862 126.261 64.5381C126.424 64.1354 126.591 63.7305 126.762 63.3242C128.127 60.0791 129.723 56.7248 131.467 53.3711C131.685 52.9524 131.905 52.5337 132.127 52.1152C132.561 51.2974 133.004 50.4805 133.454 49.666C133.835 48.9758 134.222 48.2873 134.612 47.6016C134.829 47.2215 135.047 46.8421 135.266 46.4639C135.737 45.6502 136.217 44.8427 136.698 44.0401C136.756 43.944 136.813 43.8478 136.871 43.752C139.458 39.4592 142.166 35.3527 144.816 31.6895C144.956 31.4954 145.096 31.3029 145.236 31.1113C148.033 27.285 150.748 23.9678 153.164 21.4629ZM53.2433 23.8643C51.9812 16.7928 52.6244 10.5973 58.882 13.04C59.8652 13.4218 60.9876 14.0157 62.2628 14.8545C76.2627 24.0644 95.7731 59.7239 98.8234 76.124C99.7601 81.1701 99.5413 84.572 98.3624 86.3408C96.5479 89.0763 92.4445 87.9248 86.7638 82.9238H86.7736C74.0036 71.6837 56.2233 40.5642 53.2433 23.8643Z" fill="#FED157"/>
</g>
<defs>
<clipPath id="clip0_1141_970">
<rect width="221" height="221" fill="white"/>
</clipPath>
</defs>
</svg>
