<svg width="170" height="170" viewBox="0 0 170 170" fill="none" xmlns="http://www.w3.org/2000/svg">
<path d="M77.1426 108.408C81.2233 103.011 87.9902 103.234 92.6289 108.399C94.7692 110.774 96.5695 113.596 97.8437 116.498L98.0918 117.079C102.666 128.18 104.871 139.812 106.336 151.762L106.345 151.77C105.715 155.908 105.538 160.176 104.426 164.175L104.19 164.971C102.605 170.023 98.7119 171.306 94.1719 168.527L93.5859 168.18C87.5507 164.706 81.8689 164.707 75.7265 168.405C70.9711 171.265 68.0847 170.268 65.8017 165.47L65.623 165.08C64.7494 163.12 64.1713 160.948 64.0097 158.841C63.1052 147.283 65.3711 136.019 68.8515 125.074L69.2051 123.998C71.0229 118.624 73.6308 113.305 76.9502 108.669L77.1426 108.408ZM84.9951 124.748C84.411 126.066 83.8829 127.42 83.4179 128.794L83.1455 129.623C80.7322 137.213 79.1737 144.335 78.8672 151.208C80.8815 150.797 82.9714 150.582 85.1328 150.604C87.2154 150.625 89.223 150.865 91.1523 151.282C89.8727 141.605 88.0833 132.863 84.9951 124.748ZM53.6181 89.5785C58.8904 89.7747 64.2406 90.0604 66.9199 94.891C69.5905 99.7055 67.5745 104.39 64.7402 108.705C64.5852 108.934 64.4383 109.18 64.2402 109.368C56.4437 116.7 49.0436 124.49 40.6699 131.184C35.656 135.197 29.3238 137.928 23.2158 140.437C17.2111 142.897 13.0069 139.865 13.2051 133.661C13.4204 126.901 10.4911 122.274 4.15916 119.242C-0.33788 117.092 -1.14814 113.863 1.5742 109.841L1.95994 109.296C2.8902 108.026 4.03975 106.796 5.374 106.024L8.93845 103.958C12.5125 101.896 16.1341 99.8921 19.959 98.3656C30.788 94.0416 41.8845 90.3545 53.6181 89.5697V89.5785ZM115.645 89.6762C124.571 89.6844 146.608 95.8229 157.187 101.782C161.024 103.935 164.648 106.714 167.685 109.828L168.283 110.454C171.071 113.432 170.333 116.908 167.011 118.527L166.681 118.678C159.262 121.861 156.038 127.031 156.251 134.485L156.282 135.213C156.506 139.194 154.508 140.944 150.321 141.05C148.65 141.091 146.918 140.731 145.299 140.265C135.392 137.412 127.767 131.094 120.487 124.612C114.586 119.356 108.624 113.773 104.386 107.332L104.076 106.852C97.8683 96.9797 102.781 89.8959 115.046 89.6811L115.645 89.6762ZM122.215 105.59C124.569 108.061 127.328 110.618 130.464 113.411L130.463 113.412C135.17 117.603 139.088 120.813 142.974 123.05C143.646 121.111 144.539 119.197 145.689 117.338C146.436 116.132 147.256 115.01 148.135 113.966C144.167 112.01 138.148 109.777 131.659 107.915C128.079 106.888 124.861 106.121 122.215 105.59ZM46.4648 105.647C40.3624 106.87 34.1278 108.934 27.4638 111.53L25.5215 112.295L25.5185 112.297L24.8017 112.591C23.7556 113.034 22.7206 113.526 21.6562 114.071C22.4329 115.004 23.1641 116 23.8359 117.069C24.9492 118.839 25.8192 120.669 26.4814 122.528C28.3624 121.54 29.9503 120.55 31.2959 119.473L31.3027 119.467C36.6435 115.197 41.2793 110.69 46.4648 105.647ZM84.9941 74.0932C91.0848 74.1749 96.4178 79.3241 96.4697 85.1684C96.5214 90.8737 90.9734 95.9829 84.7363 95.975V95.9828C78.7144 95.9747 73.4927 91.0454 73.4238 85.3236C73.3551 79.0544 78.5503 74.0034 84.9941 74.0932ZM146.351 29.5697C152.493 27.2566 156.49 30.1672 156.353 36.2895C156.202 42.9803 159.125 47.5846 165.174 50.6674L165.77 50.9613C170.421 53.1846 171.093 56.2259 168.069 60.2719C167.003 61.697 165.702 63.0935 164.217 64.1313L163.917 64.3344C149.452 73.808 133.032 78.1151 116.81 80.6654V80.682C114.311 80.4287 112.734 80.3635 111.192 80.102C102.543 78.6387 99.1664 72.5647 102.905 65.0365C103.991 62.8461 105.154 60.4834 106.929 58.8324L112.74 53.4174C118.562 48.0068 124.445 42.6542 130.706 37.7436C135.229 34.1963 140.837 31.6377 146.351 29.5697ZM13.2207 37.2006C13.1174 29.6316 17.4508 26.6807 24.8252 30.0238C31.5966 33.0891 38.3253 36.7672 43.9853 41.3773C51.5406 47.516 58.3468 54.5699 64.8769 61.7221C68.2281 65.384 69.6488 70.4441 67.0127 75.1195C64.411 79.7294 59.32 80.3346 54.289 80.4164H53.1172C52.4194 80.3592 50.9802 80.3343 49.5674 80.1137C36.8948 78.1111 24.851 74.2122 13.376 68.8256L12.6914 68.4965C9.27944 66.811 6.03269 64.5626 3.27048 62.0414C-1.64869 57.5539 -0.950993 53.4749 4.9072 50.3852L5.41697 50.1088C10.6057 47.2148 13.2958 43.1474 13.2207 37.2006ZM65.9375 4.6918C67.5227 -0.392043 70.8052 -1.20907 75.5605 1.58634C81.8495 5.28095 87.682 5.46037 94.0312 1.68399C98.9589 -1.25035 102.845 0.237293 104.404 5.61563C105.567 9.62086 105.765 13.8802 106.463 18.4984H106.454C104.826 26.6149 103.706 35.1648 101.26 43.3549C99.3817 49.6324 96.5817 55.9434 92.7998 61.3627C88.7507 67.1662 81.3068 66.9044 76.8701 61.3461L76.3476 60.684C73.7478 57.3415 71.3725 53.5401 70.3144 49.6166C67.7041 39.955 65.5157 30.121 64.2148 20.2387L64.1572 19.7631C63.605 14.8258 64.4435 9.47473 65.9375 4.6918ZM26.4922 47.6391C25.8083 49.5268 24.9085 51.3688 23.7656 53.1391C23.0859 54.1919 22.3507 55.1727 21.5722 56.0863C29.7327 59.7705 38.1189 62.5734 46.7724 64.3617C42.7657 60.2541 38.7396 56.4422 34.5263 53.019L34.5195 53.0131L34.5127 53.0082C32.1704 51.1005 29.4708 49.3203 26.4922 47.6391ZM143.136 47.4486C142.162 48.0039 141.277 48.5689 140.485 49.1508L139.963 49.5463V49.5473L138.521 50.6918C133.285 54.8991 128.293 59.4442 123.067 64.2992C132.025 62.4513 140.436 59.8975 148.131 56.0971C147.372 55.198 146.656 54.2382 145.992 53.2133C144.787 51.3529 143.846 49.4217 143.136 47.4486ZM91.1172 18.7943C89.0217 19.2335 86.8483 19.4616 84.6015 19.4359C82.7283 19.4145 80.9164 19.2183 79.1679 18.8783C80.3429 27.5427 82.2775 36.3239 84.6582 45.1947C85.5068 43.2318 86.2551 41.1732 86.8867 39.0629V39.0619C88.8183 32.5958 89.6436 26.6229 91.1172 18.7943Z" fill="url(#paint0_linear_1142_1044)"/>
<defs>
<linearGradient id="paint0_linear_1142_1044" x1="50" y1="24.5" x2="150" y2="170" gradientUnits="userSpaceOnUse">
<stop stop-color="#FFDE5C"/>
<stop offset="0.5" stop-color="#FFD456"/>
<stop offset="0.971154" stop-color="#F7C950"/>
<stop offset="1" stop-color="#F6C84F"/>
</linearGradient>
</defs>
</svg>
