<svg width="219" height="214" viewBox="0 0 219 214" fill="none" xmlns="http://www.w3.org/2000/svg">
<g clip-path="url(#clip0_1141_999)">
<path d="M186.684 168.742C190.869 169.807 194.345 165.423 192.354 161.591L169.981 118.535C168.859 116.376 169.453 113.724 171.389 112.251L210.098 82.782C213.537 80.1636 212.258 74.7093 208.013 73.8935L160.887 64.8369C158.482 64.3745 156.765 62.2369 156.833 59.7878L158.185 11.1544C158.305 6.83791 153.265 4.40936 149.964 7.19279L112.55 38.7374C110.683 40.3117 107.951 40.3066 106.09 38.7253L69.0785 7.28331C65.7766 4.47836 60.7132 6.91396 60.8436 11.2444L62.302 59.6829C62.3758 62.1341 60.661 64.277 58.2533 64.7425L11.0266 73.8732C6.7758 74.695 5.50758 80.1636 8.96272 82.7725L47.6284 111.968C49.573 113.436 50.176 116.092 49.056 118.256L26.6416 161.565C24.6549 165.404 28.1461 169.785 32.3315 168.705L79.3388 156.575C81.7164 155.961 84.1877 157.165 85.1703 159.415L104.514 203.715C106.246 207.682 111.858 207.724 113.648 203.783L133.764 159.523C134.766 157.319 137.203 156.15 139.549 156.747L186.684 168.742Z" fill="#FFD157"/>
</g>
<defs>
<clipPath id="clip0_1141_999">
</clipPath>
</defs>
</svg>
