<svg width="1920" height="1080" viewBox="0 0 1920 1080" fill="none" xmlns="http://www.w3.org/2000/svg">
<mask id="mask0_1246_15675" style="mask-type:alpha" maskUnits="userSpaceOnUse" x="-103" y="899" width="301" height="301">
<path d="M46.3514 1084.68C35.5982 1097.28 35.2836 1111.97 33.9019 1125.97C32.055 1144.61 32.5338 1163.38 37.2127 1181.71C38.3756 1186.28 40.0037 1190.9 42.3158 1194.98C45.5444 1200.66 50.0318 1200.55 52.6448 1194.24C55.7367 1186.73 58.295 1178.72 59.3073 1170.71C61.6331 1152.16 63.0011 1133.48 58.5958 1114.94C56.2701 1105.19 53.8759 1095.47 51.3996 1085.27C53.9853 1084.58 58.4453 1083.41 61.3457 1082.65C64.205 1092.29 66.1614 1101.94 69.9236 1110.84C75.1224 1123.14 80.841 1135.39 87.914 1146.67C94.0157 1156.42 102.252 1164.84 109.667 1173.73C110.939 1175.25 112.745 1176.67 114.592 1177.29C117.027 1178.11 120.406 1179.18 122.13 1178.11C123.799 1177.08 125.085 1173.14 124.497 1171.07C121.104 1159.32 118.299 1147.17 112.977 1136.3C106.602 1123.29 98.6124 1110.9 89.9524 1099.26C84.0148 1091.28 75.7653 1085.01 68.3092 1077.72C70.1699 1075.94 73.3985 1072.86 76.6819 1069.73C92.8938 1092.95 115.878 1106.46 140.407 1117.73C148.014 1121.22 156.113 1123.95 164.267 1125.77C168.125 1126.63 172.64 1124.52 176.853 1123.77C175.39 1119.92 174.993 1114.87 172.27 1112.45C161.75 1103.15 151.038 1093.89 139.381 1086.14C123.594 1075.64 106.356 1067.85 87.3119 1064.98C85.1366 1064.65 82.934 1064.61 80.5673 1064.42C81.6754 1060.08 82.7152 1055.96 83.8507 1051.46C111.637 1066.37 141.174 1064.17 170.67 1060.75C178.194 1059.87 185.746 1057.22 192.737 1054.13C198.756 1051.48 198.661 1046.52 192.641 1043.66C186.745 1040.87 180.328 1038.68 173.912 1037.62C149.437 1033.57 124.88 1033.19 100.61 1039.12C94.6038 1040.58 89.0631 1043.98 83.0982 1046.56C81.8806 1042.14 80.5809 1037.36 79.5548 1033.64C117.328 1029.65 147.138 1010.69 173.173 984.625C175.499 982.297 175.649 977.779 176.798 974.288C172.366 973.576 167.646 971.536 163.528 972.385C145.702 976.054 129.599 984.255 114.482 994.058C104.782 1000.34 95.6983 1007.68 86.9425 1015.25C83.0161 1018.65 80.5809 1023.77 76.9007 1028.89C74.4245 1026.15 71.36 1022.74 68.2544 1019.29C91.3477 1003.89 103.975 980.736 115.344 956.886C119.503 948.165 121.938 938.513 124.264 929.066C124.989 926.136 122.814 922.494 121.952 919.181C118.627 920.167 114.113 920.126 112.197 922.33C102.374 933.611 92.2095 944.811 84.0831 957.297C74.2876 972.344 65.9697 988.458 63.4114 1006.72C63.0146 1009.56 63.0694 1012.45 62.9052 1015.66C58.9104 1014.58 54.7103 1013.43 50.2093 1012.21C57.1865 1001.25 59.2386 989.17 60.21 976.862C61.9748 954.49 62.3989 932.119 55.4489 910.46C54.0808 906.215 49.9492 902.861 47.0899 899.11C44.2853 902.929 40.058 906.366 38.8951 910.637C30.7003 940.731 31.0013 971.015 38.7447 1001.18C39.7297 1005.04 42.206 1008.53 44.0256 1012.27C39.935 1013.35 35.8581 1014.44 31.8496 1015.5C30.5635 989.102 17.5393 967.47 3.40694 946.522C-2.39377 937.924 -9.82254 930.325 -17.1555 922.918C-19.4949 920.55 -23.9275 920.262 -27.3888 919.03C-28.2096 922.795 -30.3986 926.861 -29.6461 930.271C-22.9288 960.597 -7.37357 986.281 13.2025 1009.13C15.0084 1011.14 17.2794 1012.77 19.4684 1014.39C21.4521 1015.87 23.6274 1017.09 25.4332 1018.24C22.5739 1021.36 19.6326 1024.58 16.7322 1027.74C10.6442 1015.28 -0.109027 1007.53 -10.9443 999.972C-28.4148 987.801 -46.9934 977.697 -67.8294 972.686C-72.2346 971.618 -79.3214 971.44 -81.5787 974.014C-85.4641 978.45 -80.32 983.064 -76.9819 986.692C-61.2762 1003.83 -41.4526 1014.95 -20.726 1024.62C-9.78133 1029.72 1.51904 1033.99 14.0234 1033.28C12.8742 1037.34 11.7798 1041.22 10.9042 1044.33C-22.4772 1032.15 -56.1596 1031.94 -90.2113 1040.22C-92.838 1040.87 -95.4784 1041.84 -97.8041 1043.21C-104.508 1047.15 -104.59 1052.01 -97.2569 1054.79C-89.0483 1057.9 -80.3199 1060.25 -71.6189 1061.34C-48.6624 1064.18 -25.6648 1064.27 -3.1324 1057.98C1.76536 1056.61 6.34843 1054.11 11.4651 1051.96C12.6006 1056.08 13.873 1060.72 15.3642 1066.13C2.95563 1062.97 -7.59233 1067.47 -17.9077 1072.03C-40.1118 1081.83 -61.153 1093.61 -77.5564 1112.01C-80.2241 1115.01 -80.7303 1119.92 -82.2352 1123.96C-77.9667 1124.63 -73.3426 1126.73 -69.4983 1125.74C-40.9463 1118.46 -16.047 1104.07 5.71922 1084.41C10.2886 1080.28 13.23 1074.37 17.1427 1069C19.7284 1072.03 22.7109 1075.49 25.9806 1079.31C6.86843 1091.65 -5.66326 1110.08 -15.5135 1130.28C-21.3552 1142.25 -25.4458 1155.13 -29.55 1167.85C-30.535 1170.89 -28.4145 1174.93 -27.7167 1178.51C-24.2007 1177.48 -19.8913 1177.44 -17.3056 1175.29C-2.89964 1163.28 7.38837 1147.85 15.7063 1131.31C21.6028 1119.62 26.1037 1107.19 30.6047 1094.85C32.0138 1090.99 31.4256 1086.39 31.7813 1081.8C36.3097 1082.68 40.7012 1083.54 46.3651 1084.65L46.3514 1084.68Z" fill="url(#paint0_linear_1246_15675)"/>
</mask>
<g mask="url(#mask0_1246_15675)">
<g filter="url(#filter0_f_1246_15675)">
<rect x="-1132.3" y="566.289" width="1364.21" height="909.612" fill="url(#paint1_linear_1246_15675)"/>
</g>
</g>
<mask id="mask1_1246_15675" style="mask-type:alpha" maskUnits="userSpaceOnUse" x="285" y="790" width="251" height="251">
<path d="M370.507 846.52C362.689 839.435 355.238 832.203 347.203 825.649C343.483 822.621 338.824 820.406 334.246 818.779C329.564 817.118 326.485 819.683 327.389 824.52C328.305 829.424 329.827 834.475 332.311 838.769C337.336 847.447 343.185 855.651 349.228 864.86C342.246 861.673 336.134 858.464 329.724 856.08C323.395 853.718 316.848 851.65 310.209 850.532C307.164 850.012 303.662 852.069 300.377 852.95C301.304 856.046 301.292 860.103 303.33 862.08C310.621 869.165 318.496 875.663 326.371 882.126C329.392 884.601 332.998 886.398 335.539 888.002C324.287 887.675 312.384 887.098 300.491 887.109C296.805 887.109 292.914 888.194 289.491 889.652C283.986 892.002 283.402 895.844 288.518 899.392C293.898 903.121 299.93 906.206 306.088 908.455C314.032 911.359 322.399 913.144 331.075 915.551C322.628 917.811 314.535 919.529 306.786 922.207C300.926 924.23 295.26 927.111 289.983 930.365C287.786 931.721 285.6 935.1 285.726 937.439C285.817 939.145 289.48 941.371 291.941 942.129C303.89 945.824 316.058 944.66 328.19 942.942C330.319 942.637 332.471 942.4 336.008 941.959C327.572 948.038 320.178 952.897 313.368 958.434C309.156 961.858 305.481 966.073 302.254 970.423C300.8 972.378 299.85 976.232 300.857 977.983C301.864 979.735 305.836 981.045 308.137 980.605C315.554 979.203 322.982 977.384 330.079 974.842C336.649 972.491 342.807 969 350.281 965.474C346.848 970.051 343.631 973.587 341.285 977.61C336.741 985.384 332.277 993.249 328.625 1001.45C327.378 1004.24 328.66 1008.13 328.786 1011.52C332.345 1011.09 336.809 1011.85 339.304 1010.01C348.69 1003.06 357.458 995.306 366.363 987.735C367.714 986.582 368.561 984.865 370.346 984.22C368.057 993.848 365.493 1003.42 363.593 1013.13C362.735 1017.49 362.7 1022.18 363.273 1026.58C363.593 1029.05 365.493 1032.56 367.485 1033.22C369.442 1033.86 373.322 1032.15 374.764 1030.29C379.927 1023.6 384.734 1016.59 389.026 1009.33C391.968 1004.36 393.834 998.752 396.867 991.893C397.416 999.204 397.37 1005.08 398.401 1010.78C399.866 1018.87 401.766 1026.93 404.227 1034.78C404.982 1037.18 408.347 1040.56 410.247 1040.39C412.685 1040.19 415.707 1037.28 416.977 1034.8C422.62 1023.77 422.804 1011.58 423.742 999.577C423.891 997.633 424.028 995.678 424.177 993.554C429.488 1003.46 434.284 1013.01 439.71 1022.21C441.861 1025.85 445.055 1029.11 448.409 1031.78C453.101 1035.51 457.554 1033.61 457.645 1027.43C457.771 1019.42 457.027 1011.32 455.711 1003.4C454.589 996.628 452.129 990.085 450.492 984.243C458.286 991.204 466.459 998.752 474.94 1005.93C477.779 1008.32 481.259 1010.22 484.761 1011.51C486.993 1012.33 490.599 1012.57 492.133 1011.33C493.621 1010.12 494.365 1006.16 493.495 1004.3C489.065 994.82 484.178 985.542 479.095 976.378C477.195 972.954 474.334 970.062 470.889 965.598C478.249 969.022 484.097 972.118 490.232 974.491C496.402 976.887 502.755 979.169 509.233 980.344C512.747 980.977 518.092 980.469 520.141 978.243C523.552 974.536 519.844 970.05 516.925 967.485C508.306 959.892 499.126 952.897 490.13 945.722C488.882 944.727 487.417 943.993 486.387 942.151C491.766 942.795 497.146 944.004 502.514 943.936C511.396 943.835 520.313 943.213 529.126 942.151C531.461 941.868 535.101 939.303 535.262 937.529C535.468 935.235 533.361 931.924 531.255 930.376C521.423 923.144 509.748 920.229 498.039 917.551C495.647 917.009 493.232 916.557 489.054 915.709C496.803 913.709 503.052 912.602 508.913 910.443C516.536 907.652 524.021 904.353 531.187 900.556C533.373 899.403 535.811 895.539 535.342 893.55C534.838 891.392 531.187 888.68 528.714 888.476C518.321 887.618 507.86 887.437 497.409 887.38C493.46 887.358 489.512 888.352 484.864 888.985C492.396 883.685 499.721 879.132 506.303 873.719C511.202 869.673 515.666 864.871 519.386 859.741C523.587 853.955 520.966 849.209 513.926 850.339C505.01 851.763 496.265 854.611 487.669 857.504C482.369 859.289 477.482 862.317 471.793 865.086C477.367 856.746 482.839 849.232 487.543 841.266C490.279 836.621 492.362 831.423 493.701 826.203C495.361 819.762 491.366 816.146 485.448 819.31C477.528 823.547 470.42 829.31 463.174 834.7C458.481 838.192 454.178 842.17 451.19 844.69C452.781 838.531 455.402 830.169 456.993 821.627C458.046 815.965 458.081 810.01 457.783 804.225C457.428 797.106 452.987 795.049 447.848 799.886C443.121 804.326 439.012 809.671 435.669 815.22C431.514 822.112 428.424 829.627 424.212 838.215C423.937 834.158 423.994 831.164 423.491 828.26C421.717 818.112 420.183 807.897 417.619 797.953C416.829 794.914 413.029 792.631 410.614 789.998C408.084 792.801 404.078 795.264 403.311 798.473C400.724 809.4 399.259 820.576 397.439 831.672C397.142 833.469 397.211 835.333 397.05 838.136C392.621 829.299 388.935 821.163 384.517 813.445C381.827 808.767 378.313 804.428 374.524 800.53C372.819 798.778 369.076 797.162 367.176 797.874C365.219 798.609 363.342 802.225 363.273 804.632C363.113 810.79 363.433 817.062 364.555 823.107C366.031 830.983 368.469 838.689 370.495 846.498L370.507 846.52ZM410.946 956.152C388.351 957.203 368.893 937.179 369.373 915.257C369.877 892.307 388.054 874.431 411.564 874.589C433.609 874.747 452.335 893.81 452.06 915.947C451.82 935.925 435.063 956.931 410.946 956.152Z" fill="url(#paint2_linear_1246_15675)"/>
</mask>
<g mask="url(#mask1_1246_15675)">
<g filter="url(#filter1_f_1246_15675)">
<rect width="454.173" height="428.679" transform="matrix(-0.8154 -0.578897 -0.588788 0.808288 672.991 942.867)" fill="url(#paint3_linear_1246_15675)"/>
</g>
</g>
<mask id="mask2_1246_15675" style="mask-type:alpha" maskUnits="userSpaceOnUse" x="1259" y="310" width="283" height="283">
<path d="M1369.66 496.288C1365.26 503.189 1360.58 509.937 1356.5 517.018C1347.56 532.472 1340.25 548.592 1339.56 566.906C1339.4 570.766 1339.98 574.765 1340.94 578.528C1344.54 592.649 1356.61 596.994 1368.38 588.372C1380.43 579.541 1387.04 566.67 1390.73 552.772C1394.67 537.901 1396.64 522.489 1399.42 507.313C1399.83 505.091 1399.99 502.828 1399.51 500.87C1402.43 516.713 1404.6 532.764 1408.49 548.356C1412.21 563.227 1418.57 577.112 1430.86 587.206C1443.46 597.564 1456.58 593.009 1460.25 576.973C1463.3 563.671 1460.2 550.953 1454.76 539.248C1447.44 523.502 1438.57 508.507 1432.15 496.524C1440.53 503.175 1451.65 512.825 1463.6 521.267C1474.67 529.084 1486.92 535.068 1500.72 536.207C1505.42 536.596 1510.4 536.415 1514.95 535.291C1524.58 532.902 1528.74 523.211 1524.83 513.2C1520.21 501.356 1510.9 493.678 1500.49 487.833C1484.34 478.78 1467.22 471.81 1448.99 468.116C1445.81 467.478 1442.6 467.019 1439.58 465.228C1447.48 465.742 1455.41 466.992 1463.27 466.617C1481.64 465.742 1500.39 466.047 1517.48 457.744C1524.34 454.412 1531.14 450.08 1536.51 444.72C1545.67 435.584 1542.43 423.033 1530.69 417.729C1519.72 412.786 1508.08 412.647 1497.07 415.382C1482.82 418.923 1469.05 424.588 1455.15 429.544C1450.18 431.322 1445.41 433.696 1439.88 434.862C1445.11 430.572 1450.22 426.157 1455.55 422.033C1472.29 409.064 1486.37 393.708 1494.4 373.797C1496.95 367.466 1497.33 359.829 1497.06 352.845C1496.77 345.431 1491.56 341.779 1484.23 341.099C1475.07 340.252 1467.75 344.5 1461.09 349.832C1446.16 361.773 1435.14 376.838 1427.15 394.347C1423.76 401.761 1419.58 408.801 1416.68 414.313C1418.97 398.332 1422.27 380.698 1423.8 362.925C1425.07 348.346 1423.32 333.698 1415.54 320.73C1406.92 306.359 1393.3 306.387 1385.07 321.007C1376.22 336.697 1375.47 354.109 1377.33 371.437C1378.95 386.502 1382.2 401.4 1384.56 415.326C1380.36 406.996 1376.01 397.304 1370.74 388.154C1360.57 370.451 1349.07 353.789 1330.39 344.07C1327.62 342.626 1324.42 341.682 1321.32 341.265C1309.71 339.696 1302.91 345.653 1302.78 357.552C1302.65 368.104 1306.9 377.338 1312.26 386.071C1323.04 403.636 1337.98 417.145 1353.95 429.628C1355.54 430.863 1357.12 432.113 1358.07 434.501C1353.03 432.155 1348.05 429.628 1342.94 427.49C1323.43 419.325 1303.67 412.327 1282.02 414.549C1269.77 415.812 1261.26 421.477 1259.38 429.406C1257.5 437.375 1262.71 446.248 1273.32 452.732C1292.63 464.534 1314.15 466.436 1335.98 466.797C1342.58 466.908 1349.21 466.811 1354.29 466.811C1343.08 470.504 1329.82 473.476 1317.87 479.21C1305.89 484.958 1294.73 492.845 1284.13 501.037C1279.83 504.369 1276.92 510.645 1275.29 516.171C1272.32 526.238 1277.81 533.93 1288.04 535.804C1302.85 538.512 1316.05 533.472 1328.56 526.391C1335.91 522.239 1342.93 517.407 1349.66 512.284C1356.37 507.16 1362.54 501.287 1368.95 495.733C1369.19 495.914 1369.44 496.108 1369.69 496.288H1369.66ZM1416.2 460.938C1416.17 469.963 1409.03 477.1 1400.05 477.086C1391.47 477.072 1384.72 470.046 1384.63 461.035C1384.52 451.649 1391.28 444.596 1400.27 444.693C1409.42 444.79 1416.22 451.732 1416.2 460.938Z" fill="url(#paint4_linear_1246_15675)"/>
</mask>
<g mask="url(#mask2_1246_15675)">
<g filter="url(#filter2_f_1246_15675)">
<rect x="997.126" y="1519.48" width="1353.67" height="902.133" transform="rotate(-90 997.126 1519.48)" fill="url(#paint5_linear_1246_15675)"/>
</g>
</g>
<path d="M1299.11 965.224C1301.59 965.224 1303.61 965.458 1305.56 965.174C1309.7 964.572 1313.93 964.148 1317.87 962.848C1326.16 960.121 1327.33 952.999 1320.8 947.132C1316.38 943.161 1311.08 940.919 1305.59 939.006C1305.17 938.855 1304.75 938.693 1303.91 938.386C1305.67 936.858 1307.38 935.67 1308.72 934.153C1311.5 930.98 1314.23 927.734 1316.69 924.304C1317.66 922.954 1318.12 921.075 1318.36 919.374C1318.99 914.984 1317.12 912.218 1312.89 911.091C1307.14 909.558 1301.61 910.885 1296.14 912.608C1294.32 913.183 1292.56 913.919 1290.99 914.499C1291.26 909.145 1291.73 903.902 1291.67 898.671C1291.65 896.262 1290.91 893.69 1289.87 891.493C1287.69 886.847 1283.52 885.804 1279.04 888.364C1273.73 891.404 1270.37 896.245 1267.31 901.359C1266.6 902.547 1265.97 903.78 1265.21 905.163C1262.91 901.688 1260.91 898.203 1258.45 895.079C1256.65 892.798 1254.46 890.662 1252.06 889.045C1246.05 885.007 1240.69 887.299 1238.99 894.432C1237.54 900.528 1238.18 906.607 1239.33 912.67C1239.43 913.2 1239.56 913.724 1239.75 914.544C1236.16 913.423 1232.86 911.934 1229.43 911.449C1225.42 910.874 1221.2 910.618 1217.23 911.237C1212.53 911.967 1210.62 915.76 1211.86 920.433C1213.68 927.249 1218.52 931.811 1223.59 936.172C1224.35 936.831 1225.13 937.461 1226.01 938.197C1222.38 939.803 1218.71 941.025 1215.47 942.966C1212.44 944.773 1209.52 947.026 1207.16 949.647C1203.63 953.59 1204.55 958.331 1209 961.259C1213.29 964.081 1218.18 964.89 1223.16 965.174C1225.59 965.314 1228.04 965.196 1230.43 965.196C1228.38 969.848 1226.23 974.22 1224.55 978.771C1223.71 981.052 1223.39 983.663 1223.43 986.117C1223.53 992.04 1227.15 994.934 1232.88 993.902C1239.25 992.759 1244.28 989.067 1249.04 984.917C1249.78 984.276 1250.53 983.635 1251.03 983.194C1252.67 988.509 1254.12 993.746 1255.96 998.838C1256.65 1000.77 1258.02 1002.58 1259.43 1004.12C1262.95 1007.95 1267.38 1008.02 1270.59 1003.97C1272.77 1001.2 1274.3 997.857 1275.85 994.644C1276.69 992.921 1277.05 990.946 1277.46 989.045C1277.88 987.159 1278.08 985.224 1278.46 982.826C1279.95 984.064 1281.22 985.135 1282.5 986.183C1286.82 989.714 1291.37 992.826 1296.95 993.88C1303.04 995.029 1306.78 991.833 1306.74 985.587C1306.71 979.524 1304.23 974.254 1301.4 969.112C1300.75 967.924 1300.03 966.775 1299.1 965.224L1299.11 965.224ZM1276.74 946.959C1276.74 953.545 1271.54 958.822 1265.03 958.849C1258.63 958.877 1253.29 953.462 1253.3 946.948C1253.3 940.378 1258.54 935.102 1265.04 935.118C1271.61 935.141 1276.75 940.339 1276.74 946.953L1276.74 946.959Z" fill="url(#paint6_linear_1246_15675)"/>
<path d="M1925.95 929.929C1918.66 933.016 1912.89 935.476 1905.69 938.518C1904.71 930.779 1903.9 924.427 1902.88 916.241C1896.93 920.133 1891.65 923.622 1884.99 927.961C1882.03 921.162 1879.26 914.765 1874.79 904.297C1870.72 911.723 1867.54 917.538 1862.94 925.948C1857.21 915.749 1854.08 910.202 1850.01 903C1846.34 909.889 1843.44 915.346 1839.5 922.683C1833.78 917.538 1829.12 913.378 1823.22 908.144C1820.85 914.541 1818.61 920.759 1815.75 928.498C1809.13 923.935 1803.99 920.357 1796.88 915.481L1796.88 938.518C1788.29 935.566 1781.89 933.374 1774.43 930.825C1775.19 937.624 1775.9 943.887 1776.84 952.073C1769.24 951.447 1762.93 950.954 1754.79 950.283C1757.43 956.68 1759.76 962.316 1763.02 970.145C1755.33 971.218 1748.57 972.158 1740.26 973.321C1744.37 979.047 1748.08 984.191 1753 991.035C1745.8 993.764 1739.85 996.001 1732.47 998.819C1736.72 1003.34 1740.88 1007.72 1746.65 1013.89C1740.52 1017.83 1734.84 1021.5 1728 1025.93C1734.22 1029.28 1739.85 1032.32 1750.94 1038.32C1742.71 1042.75 1737.03 1045.83 1728.27 1050.58C1738.87 1054.78 1745.17 1057.29 1752.51 1060.19C1748.17 1066.68 1744.59 1072 1739.85 1079.03C1747.81 1079.43 1754.16 1079.74 1762.53 1080.14C1759.71 1088.11 1757.43 1094.5 1754.79 1101.84C1762.13 1100.77 1768.39 1099.83 1776.48 1098.62C1775.81 1106.63 1775.32 1112.98 1774.65 1121.12C1781.36 1118.17 1787.04 1115.66 1794.6 1112.31C1795.62 1120.31 1796.47 1126.53 1797.5 1134.67C1803.32 1131.01 1808.46 1127.7 1815.8 1123.09C1818.34 1130.74 1820.54 1137.31 1823.13 1145.19C1827.78 1139.73 1831.99 1134.85 1837.53 1128.41C1842.14 1135.17 1845.94 1140.76 1850.37 1147.29C1853.95 1141.07 1857.17 1135.57 1862.67 1126.04C1867.9 1133.33 1871.7 1138.61 1876.62 1145.5C1878.99 1137.81 1880.87 1131.77 1883.38 1123.71C1890.26 1127.79 1896.12 1131.18 1903.28 1135.39C1903.77 1127.96 1904.17 1121.7 1904.71 1113.34C1912 1115.93 1917.81 1117.99 1925.42 1120.67C1924.48 1113.69 1923.67 1107.57 1922.64 1099.6C1930.43 1100.05 1937.22 1100.45 1944.96 1100.9C1942.19 1094.28 1939.77 1088.37 1936.69 1080.99C1945.05 1080.37 1951.49 1079.88 1960.08 1079.25C1955.7 1072.81 1951.94 1067.22 1947.15 1060.19C1954.35 1057.55 1960.39 1055.36 1969.96 1051.87C1962.76 1048.11 1956.64 1044.89 1947.38 1040.11C1959.63 1032.99 1965.13 1029.77 1972.29 1025.66C1965.58 1021.99 1960.17 1019.04 1952.92 1015.06C1958.6 1008.93 1963.3 1003.83 1968.17 998.595C1961.82 996.626 1955.65 994.703 1947.51 992.153C1951.94 985.041 1955.52 979.225 1960.08 971.889L1937.36 971.889C1940.09 963.882 1942.23 957.53 1944.69 950.328C1937.27 950.999 1930.96 951.625 1922.87 952.341C1923.99 944.378 1924.84 938.205 1926 930.019L1925.95 929.929Z" fill="url(#paint7_linear_1246_15675)"/>
<path d="M750.427 919.724C744.22 915.704 738.014 911.684 731.807 907.665C732.012 907.108 732.217 906.552 732.422 905.995C740.738 907.768 749.054 909.52 757.391 911.293C757.494 910.839 757.616 910.386 757.719 909.932C749.833 907.335 741.967 904.717 734.081 902.12C734.122 901.378 734.163 900.615 734.204 899.873C743.462 899.46 752.741 899.048 762 898.615L762 897.11L734.573 897.11L733.979 894.472C740.001 892.328 746.002 890.184 752.025 888.04C751.881 887.484 751.758 886.927 751.615 886.35C745.142 887.731 738.669 889.133 732.197 890.514C731.971 889.999 731.726 889.483 731.5 888.968L750.693 876.332C750.427 875.775 750.161 875.239 749.894 874.683C743.36 878.104 736.826 881.547 730.292 884.969C729.8 884.515 729.308 884.062 728.837 883.608C734.02 877.795 739.202 872.003 744.405 866.19L743.196 864.829C737.502 870.127 731.828 875.425 726.134 880.702C725.54 880.351 724.966 880.001 724.372 879.651C728.018 872.518 731.685 865.386 735.331 858.233L733.835 857.326C729.616 863.943 725.417 870.56 721.197 877.156C720.562 876.909 719.927 876.641 719.292 876.393C720.665 869.653 722.037 862.892 723.409 856.151L721.894 855.759C719.702 862.273 717.51 868.787 715.339 875.281C714.683 875.219 714.028 875.177 713.393 875.115L713.393 851.369C712.615 851.327 711.857 851.286 711.078 851.245C710.402 858.893 709.726 866.52 709.05 874.167L707.453 874.518C705.077 867.633 702.68 860.727 700.304 853.842C699.874 853.945 699.444 854.048 699.014 854.151C700.488 861.572 701.963 869.014 703.458 876.435C702.885 876.662 702.332 876.868 701.758 877.095C698.563 872.271 695.347 867.447 692.152 862.624C691.619 862.933 691.087 863.242 690.533 863.551C693.155 868.89 695.798 874.25 698.42 879.589C697.989 880.042 697.559 880.475 697.129 880.929C690.411 874.724 683.692 868.519 676.953 862.335C676.584 862.686 676.216 863.057 675.826 863.407C681.869 870.065 687.932 876.723 693.975 883.382C693.647 883.938 693.319 884.495 693.012 885.051C686.13 881.527 679.247 878.022 672.365 874.497L671.586 875.94L691.25 888.906C690.984 889.442 690.697 889.978 690.431 890.514C681.93 888.618 673.409 886.701 664.909 884.804C664.786 885.258 664.663 885.711 664.54 886.165C672.488 888.824 680.435 891.483 688.403 894.163C688.28 894.946 688.157 895.709 688.055 896.492L662.082 896.492C662.062 897.193 662.021 897.914 662 898.615C670.706 899.007 679.411 899.399 688.116 899.79C688.28 900.512 688.444 901.233 688.608 901.955L664.95 910.056C665.052 910.468 665.134 910.86 665.236 911.272C673.43 909.541 681.603 907.83 689.796 906.098C690.103 906.593 690.39 907.108 690.697 907.603C685.535 911.148 680.374 914.673 675.191 918.219C675.458 918.672 675.703 919.147 675.97 919.6C681.582 916.92 687.195 914.24 692.807 911.561C693.155 911.994 693.503 912.426 693.852 912.859C688.444 918.961 683.036 925.063 677.629 931.164C677.957 931.474 678.264 931.803 678.592 932.113C684.552 926.774 690.513 921.435 696.494 916.075C696.965 916.364 697.436 916.632 697.928 916.92C694.917 923.393 691.885 929.845 688.874 936.318C689.345 936.545 689.816 936.792 690.288 937.019L701.492 919.229C702.147 919.394 702.823 919.559 703.479 919.724C702.025 927.021 700.55 934.318 699.095 941.595C699.526 941.739 699.976 941.863 700.406 942.007C702.7 935.287 704.995 928.567 707.289 921.847C707.842 921.847 708.395 921.847 708.968 921.847L711.242 946.171C711.795 946.151 712.348 946.13 712.881 946.089L712.881 922.032C713.68 921.826 714.478 921.641 715.277 921.435C718.227 929.989 721.176 938.523 724.126 947.078C724.454 946.996 724.782 946.913 725.109 946.831C723.163 937.905 721.217 929 719.292 920.074L721.136 919.043C725.335 925.578 729.534 932.092 733.753 938.626C734.265 938.379 734.777 938.132 735.29 937.884C731.644 930.752 727.997 923.599 724.351 916.467C724.823 916.034 725.294 915.622 725.765 915.189C732.565 921.517 739.386 927.845 746.187 934.174C746.596 933.823 747.027 933.452 747.436 933.102C741.127 926.258 734.818 919.414 728.51 912.571C728.878 912.076 729.267 911.581 729.636 911.107C736.396 914.508 743.135 917.91 749.894 921.311C750.099 920.775 750.304 920.239 750.529 919.682L750.427 919.724Z" fill="url(#paint8_linear_1246_15675)"/>
<path d="M1596 1109.54C1591.33 1100.47 1587.28 1090.99 1581.88 1082.42C1574.77 1071.19 1575.76 1062.96 1587.51 1056.14C1593.66 1052.54 1599.59 1048.31 1604.95 1043.6C1607.49 1041.38 1610.29 1036.95 1609.73 1034.22C1609.17 1031.67 1604.36 1030.06 1601.37 1028.11C1600.97 1027.84 1600.28 1028.01 1599.75 1027.91C1564.33 1021.52 1564.47 1021.52 1565.49 983.61C1565.58 979.644 1563.21 975.611 1561.96 971.578C1558.24 973.258 1553.87 974.166 1550.87 976.72C1523.45 999.977 1523.58 999.977 1495.3 976.788C1492.18 974.233 1487.8 973.292 1484.01 971.578C1482.73 975.577 1480.62 979.476 1480.33 983.543C1479.44 995.575 1483.55 1011.3 1477.59 1018.73C1471.6 1026.16 1455.7 1025.12 1444.31 1028.28C1440.89 1029.22 1437.96 1031.87 1434.8 1033.75C1436.84 1037.32 1438.16 1041.72 1441.02 1044.31C1449.84 1052.37 1464.76 1058.42 1466.93 1067.77C1469.07 1077.01 1458.47 1089.24 1453.66 1100.27C1452.21 1103.59 1451.56 1107.29 1449.25 1115.25C1462.55 1112.03 1472.99 1110.38 1482.76 1106.92C1495.76 1102.32 1502.91 1105.47 1507.71 1119.25C1511.1 1129.03 1518.18 1137.5 1523.65 1146.58C1528.45 1137.57 1534.51 1129 1537.77 1119.46C1542.67 1105.07 1550.74 1101.95 1564.14 1106.95C1573.06 1110.28 1582.54 1112.06 1591.75 1114.52C1593.2 1112.83 1594.68 1111.15 1596.13 1109.44L1596 1109.54Z" fill="url(#paint9_linear_1246_15675)"/>
<mask id="mask3_1246_15675" style="mask-type:alpha" maskUnits="userSpaceOnUse" x="860" y="663" width="200" height="214">
<path d="M959.786 663C959.786 663 979.148 686.441 979.148 715.362C979.148 744.278 970.48 767.724 959.786 767.724C949.093 767.724 940.425 744.284 940.425 715.362C940.425 686.446 959.786 663 959.786 663Z" fill="url(#paint10_linear_1246_15675)"/>
<path d="M959.786 685.945C960.595 685.945 961.251 686.608 961.251 687.426V726.165C961.251 726.983 960.595 727.646 959.786 727.646C958.977 727.646 958.321 726.983 958.321 726.165V687.426C958.321 686.608 958.977 685.945 959.786 685.945Z" fill="url(#paint11_linear_1246_15675)"/>
<path d="M1022.77 683.664C1022.77 683.664 1024.81 714.136 1008 737.534C991.185 760.927 970.543 774.743 961.891 768.386C953.239 762.028 959.855 737.914 976.668 714.516C993.48 691.123 1022.77 683.664 1022.77 683.664Z" fill="url(#paint12_linear_1246_15675)"/>
<path d="M1009.43 702.229C1010.09 702.711 1010.23 703.636 1009.75 704.299L987.229 735.637C986.753 736.3 985.838 736.444 985.182 735.963C984.527 735.482 984.384 734.557 984.86 733.894L1007.38 702.556C1007.86 701.892 1008.78 701.748 1009.43 702.229Z" fill="url(#paint13_linear_1246_15675)"/>
<path d="M1060 737.261C1060 737.261 1043.93 763.124 1016.73 772.059C989.523 780.993 964.794 779.903 961.488 769.62C958.183 759.338 977.555 743.757 1004.76 734.823C1031.96 725.888 1060 737.261 1060 737.261Z" fill="url(#paint14_linear_1246_15675)"/>
<path d="M1038.41 744.345C1038.66 745.12 1038.24 745.959 1037.47 746.211L1001.03 758.182C1000.26 758.434 999.435 758.011 999.187 757.231C998.938 756.455 999.356 755.616 1000.13 755.365L1036.57 743.393C1037.34 743.142 1038.16 743.564 1038.41 744.345Z" fill="url(#paint15_linear_1246_15675)"/>
<path d="M898.194 683.664C898.194 683.664 927.488 691.123 944.3 714.516C961.113 737.908 967.729 762.028 959.077 768.386C950.425 774.743 929.783 760.927 912.97 737.534C896.158 714.141 898.194 683.664 898.194 683.664Z" fill="url(#paint16_linear_1246_15675)"/>
<path d="M911.537 702.228C912.193 701.747 913.108 701.896 913.584 702.554L936.108 733.892C936.584 734.555 936.436 735.48 935.786 735.961C935.13 736.443 934.215 736.293 933.739 735.635L911.215 704.297C910.739 703.634 910.887 702.709 911.537 702.228Z" fill="url(#paint17_linear_1246_15675)"/>
<path d="M860.005 736.722C860.005 736.722 888.04 725.349 915.245 734.284C942.45 743.218 961.822 758.799 958.517 769.081C955.211 779.363 930.482 780.454 903.277 771.52C876.072 762.585 860.005 736.722 860.005 736.722Z" fill="url(#paint18_linear_1246_15675)"/>
<path d="M881.593 743.813C881.842 743.038 882.672 742.61 883.439 742.861L919.878 754.833C920.65 755.084 921.068 755.924 920.819 756.699C920.571 757.474 919.74 757.902 918.974 757.651L882.535 745.679C881.763 745.428 881.345 744.588 881.593 743.813Z" fill="url(#paint19_linear_1246_15675)"/>
<path d="M860 802.627C860 802.627 876.067 776.764 903.272 767.829C930.476 758.894 955.206 759.985 958.512 770.267C961.817 780.549 942.445 796.13 915.24 805.065C888.035 814 860 802.627 860 802.627Z" fill="url(#paint20_linear_1246_15675)"/>
<path d="M881.588 795.535C881.34 794.76 881.758 793.921 882.53 793.669L918.968 781.697C919.741 781.446 920.566 781.869 920.814 782.649C921.063 783.425 920.645 784.264 919.873 784.515L883.434 796.487C882.662 796.738 881.837 796.316 881.588 795.535Z" fill="url(#paint21_linear_1246_15675)"/>
<path d="M897.063 856.3C897.063 856.3 895.027 825.828 911.839 802.43C928.652 779.037 949.294 765.221 957.946 771.578C966.598 777.936 959.982 802.05 943.169 825.448C926.357 848.841 897.063 856.3 897.063 856.3Z" fill="url(#paint22_linear_1246_15675)"/>
<path d="M910.406 837.736C909.75 837.255 909.607 836.33 910.083 835.667L932.608 804.329C933.083 803.666 933.998 803.522 934.654 804.003C935.31 804.484 935.453 805.409 934.977 806.072L912.452 837.41C911.977 838.073 911.062 838.218 910.406 837.736Z" fill="url(#paint23_linear_1246_15675)"/>
<path d="M959.786 876.334C959.786 876.334 940.425 852.893 940.425 823.972C940.425 795.056 949.093 771.609 959.786 771.609C970.48 771.609 979.148 795.05 979.148 823.972C979.148 852.888 959.786 876.334 959.786 876.334Z" fill="url(#paint24_linear_1246_15675)"/>
<path d="M959.786 853.38C958.977 853.38 958.321 852.717 958.321 851.899V813.161C958.321 812.343 958.977 811.68 959.786 811.68C960.595 811.68 961.251 812.343 961.251 813.161V851.899C961.251 852.717 960.595 853.38 959.786 853.38Z" fill="url(#paint25_linear_1246_15675)"/>
<path d="M1021.07 856.3C1021.07 856.3 991.777 848.841 974.965 825.448C958.152 802.055 951.536 777.936 960.188 771.578C968.84 765.221 989.482 779.037 1006.29 802.43C1023.11 825.822 1021.07 856.3 1021.07 856.3Z" fill="url(#paint26_linear_1246_15675)"/>
<path d="M1007.73 837.735C1007.07 838.216 1006.16 838.066 1005.68 837.409L983.156 806.071C982.68 805.407 982.828 804.482 983.479 804.001C984.135 803.52 985.05 803.67 985.526 804.327L1008.05 835.666C1008.53 836.329 1008.38 837.254 1007.73 837.735Z" fill="url(#paint27_linear_1246_15675)"/>
<path d="M1059.57 803.697C1059.57 803.697 1031.54 815.07 1004.33 806.135C977.128 797.201 957.756 781.62 961.061 771.338C964.367 761.056 989.096 759.965 1016.3 768.899C1043.51 777.834 1059.57 803.697 1059.57 803.697Z" fill="url(#paint28_linear_1246_15675)"/>
<path d="M1037.98 796.605C1037.73 797.38 1036.9 797.808 1036.13 797.557L999.694 785.585C998.921 785.334 998.504 784.494 998.752 783.719C999.001 782.944 999.831 782.516 1000.6 782.767L1037.04 794.739C1037.81 794.99 1038.23 795.83 1037.98 796.605Z" fill="url(#paint29_linear_1246_15675)"/>
<circle cx="960" cy="770" r="7" fill="#D9D9D9"/>
</mask>
<g mask="url(#mask3_1246_15675)">
<g filter="url(#filter3_f_1246_15675)">
<rect width="281.885" height="269.699" transform="matrix(0.96521 -0.261476 0.256185 0.966628 766 701.234)" fill="url(#paint30_linear_1246_15675)"/>
</g>
</g>
<mask id="mask4_1246_15675" style="mask-type:alpha" maskUnits="userSpaceOnUse" x="1615" y="433" width="137" height="136">
<path d="M1670.68 488.351C1652.85 478.432 1637.19 466.43 1620.8 484.161C1613.04 492.565 1613.8 509.586 1621.18 518.227C1631.04 529.732 1641.56 529.069 1669.57 514.534C1660.9 531.65 1647.98 548.316 1668.19 564.224C1677.31 571.397 1693.03 569.693 1701.3 562.164C1712.23 552.222 1711.13 539.509 1696.27 514.274C1714.39 522.985 1731.87 537.047 1747.6 514.486C1753.53 505.964 1751.59 489.203 1744.29 482.528C1727.67 467.282 1713.01 478.835 1696.24 488.067C1705.55 470.265 1718.43 453.694 1698.5 437.643C1689.26 430.21 1672.51 432.175 1664.41 440.176C1654.53 449.93 1655.86 463.329 1670.64 488.399L1670.68 488.351Z" fill="url(#paint31_linear_1246_15675)"/>
</mask>
<g mask="url(#mask4_1246_15675)">
<g filter="url(#filter4_f_1246_15675)">
<rect width="842.047" height="562.898" transform="matrix(0.0654929 -0.997853 0.997882 0.0650576 1345.74 1145.09)" fill="url(#paint32_linear_1246_15675)"/>
</g>
</g>
<mask id="mask5_1246_15675" style="mask-type:alpha" maskUnits="userSpaceOnUse" x="1633" y="117" width="235" height="235">
<path d="M1778.36 235.168C1788.23 243.591 1799.74 243.838 1810.71 244.92C1825.31 246.367 1840.01 245.992 1854.37 242.327C1857.95 241.416 1861.57 240.14 1864.76 238.329C1869.21 235.8 1869.13 232.285 1864.18 230.238C1858.31 227.816 1852.03 225.812 1845.76 225.019C1831.23 223.197 1816.59 222.126 1802.07 225.576C1794.43 227.398 1786.81 229.274 1778.82 231.213C1778.29 229.188 1777.37 225.694 1776.78 223.422C1784.33 221.183 1791.89 219.65 1798.86 216.703C1808.49 212.631 1818.09 208.151 1826.93 202.611C1834.56 197.831 1841.16 191.379 1848.12 185.571C1849.31 184.574 1850.42 183.16 1850.91 181.713C1851.55 179.805 1852.39 177.158 1851.55 175.808C1850.74 174.501 1847.66 173.493 1846.04 173.954C1836.83 176.612 1827.31 178.809 1818.8 182.978C1808.61 187.972 1798.9 194.23 1789.79 201.014C1783.53 205.665 1778.62 212.127 1772.92 217.968C1771.52 216.51 1769.11 213.981 1766.65 211.409C1784.84 198.71 1795.43 180.706 1804.25 161.491C1806.99 155.532 1809.12 149.188 1810.55 142.801C1811.22 139.779 1809.57 136.242 1808.98 132.941C1805.97 134.088 1802.01 134.399 1800.11 136.531C1792.83 144.773 1785.58 153.164 1779.51 162.294C1771.29 174.662 1765.18 188.165 1762.93 203.082C1762.67 204.786 1762.64 206.512 1762.49 208.366C1759.09 207.497 1755.86 206.683 1752.35 205.794C1764.02 184.028 1762.3 160.891 1759.62 137.785C1758.93 131.891 1756.85 125.976 1754.44 120.499C1752.36 115.784 1748.47 115.859 1746.23 120.574C1744.04 125.193 1742.33 130.219 1741.5 135.246C1738.33 154.418 1738.03 173.654 1742.67 192.666C1743.82 197.37 1746.48 201.71 1748.51 206.383C1745.04 207.337 1741.3 208.355 1738.38 209.159C1735.26 179.57 1720.41 156.218 1699.99 135.824C1698.16 134.002 1694.62 133.885 1691.89 132.984C1691.33 136.457 1689.73 140.154 1690.4 143.38C1693.27 157.343 1699.7 169.957 1707.38 181.799C1712.3 189.397 1718.05 196.513 1723.98 203.372C1726.64 206.447 1730.65 208.355 1734.66 211.238C1732.52 213.177 1729.84 215.578 1727.14 218.011C1715.08 199.921 1696.94 190.029 1678.26 181.124C1671.43 177.866 1663.87 175.958 1656.47 174.137C1654.17 173.569 1651.32 175.273 1648.72 175.948C1649.49 178.552 1649.46 182.088 1651.19 183.589C1660.03 191.283 1668.8 199.246 1678.58 205.611C1690.37 213.285 1702.99 219.8 1717.3 221.804C1719.52 222.115 1721.78 222.072 1724.3 222.201C1723.45 225.33 1722.55 228.62 1721.6 232.146C1713.01 226.68 1703.55 225.073 1693.91 224.312C1676.38 222.93 1658.86 222.597 1641.89 228.042C1638.57 229.113 1635.94 232.35 1633 234.589C1635.99 236.786 1638.68 240.098 1642.03 241.009C1665.6 247.428 1689.33 247.192 1712.95 241.127C1715.98 240.355 1718.71 238.415 1721.64 236.99C1722.49 240.194 1723.35 243.388 1724.17 246.528C1703.49 247.535 1686.55 257.737 1670.14 268.808C1663.4 273.352 1657.45 279.171 1651.65 284.915C1649.8 286.748 1649.57 290.22 1648.6 292.931C1651.55 293.574 1654.74 295.289 1657.41 294.699C1681.16 289.437 1701.28 277.253 1719.18 261.135C1720.76 259.72 1722.04 257.941 1723.3 256.226C1724.46 254.672 1725.42 252.968 1726.32 251.554C1728.76 253.794 1731.28 256.098 1733.76 258.37C1724 263.139 1717.93 271.562 1712.01 280.05C1702.47 293.735 1694.56 308.288 1690.63 324.61C1689.8 328.06 1689.66 333.612 1691.68 335.38C1695.15 338.423 1698.76 334.394 1701.61 331.779C1715.03 319.476 1723.74 303.948 1731.31 287.712C1735.31 279.139 1738.66 270.287 1738.1 260.492C1741.28 261.392 1744.32 262.249 1746.76 262.935C1737.21 289.084 1737.05 315.468 1743.54 342.142C1744.04 344.2 1744.81 346.268 1745.88 348.09C1748.97 353.341 1752.77 353.405 1754.95 347.661C1757.39 341.231 1759.23 334.394 1760.08 327.578C1762.31 309.595 1762.37 291.581 1757.45 273.93C1756.38 270.094 1754.41 266.504 1752.73 262.496C1755.96 261.606 1759.6 260.609 1763.83 259.441C1761.35 269.161 1764.88 277.424 1768.45 285.504C1776.13 302.897 1785.36 319.38 1799.77 332.229C1802.12 334.319 1805.97 334.715 1809.13 335.894C1809.66 332.55 1811.3 328.928 1810.53 325.917C1804.82 303.551 1793.55 284.047 1778.15 266.996C1774.92 263.417 1770.29 261.113 1766.08 258.048C1768.45 256.023 1771.17 253.686 1774.16 251.125C1783.82 266.096 1798.26 275.913 1814.09 283.629C1823.46 288.205 1833.55 291.409 1843.52 294.624C1845.9 295.396 1849.06 293.735 1851.86 293.188C1851.06 290.434 1851.02 287.058 1849.34 285.033C1839.93 273.748 1827.85 265.689 1814.89 259.173C1805.73 254.554 1795.99 251.029 1786.33 247.503C1783.31 246.399 1779.7 246.86 1776.11 246.581C1776.8 243.034 1777.47 239.594 1778.34 235.157L1778.36 235.168Z" fill="url(#paint33_linear_1246_15675)"/>
</mask>
<g mask="url(#mask5_1246_15675)">
<g filter="url(#filter5_f_1246_15675)">
<rect x="1372.29" y="1158.45" width="1068.63" height="712.529" transform="rotate(-90 1372.29 1158.45)" fill="url(#paint34_linear_1246_15675)"/>
</g>
</g>
<mask id="mask6_1246_15675" style="mask-type:alpha" maskUnits="userSpaceOnUse" x="-26" y="557" width="249" height="249">
<path d="M204.454 652.171C212.903 643.668 214.216 635.403 209.426 625.99C204.579 616.475 197.875 612.94 186.924 614.497C192.45 603.857 188.985 595.274 180.627 588.487C173.583 582.769 165.69 580.382 156.721 587.089C158.012 573.925 150.832 567.536 140.221 564.364C130.867 561.579 124.434 564.103 118.443 572.208C114.672 559.874 105.76 555.975 94.2084 557.225C85.6243 558.158 79.4183 562.443 77.663 572.675C71.1626 562.261 62.1821 561.818 52.9977 565.274C43.8926 568.696 37.7547 575.085 39.1816 586.748C28.4004 579.825 19.6124 583.361 12.206 591.307C5.96607 598.003 3.73512 605.869 9.12567 614.554C-2.0858 612.815 -8.72215 616.385 -13.8636 626.718C-18.5067 636.04 -17.2384 643.566 -10.4662 650.182C-14.3846 653.115 -19.5487 655.366 -22.1081 659.322C-24.7807 663.448 -25.8791 669.189 -25.9924 674.259C-26.2076 683.82 -21.7343 689.254 -12.55 692.153C-24.4409 698.405 -24.5543 708.193 -20.9644 718.822C-18.0086 727.587 -11.9952 731.543 -2.12002 731.918C-8.12213 742.115 -7.87298 749.515 -1.24803 757.746C5.26367 765.84 12.3983 767.988 22.5452 764.919C20.3482 776.344 23.6211 783.369 33.7793 789.065C42.3408 793.862 50.0869 793.066 57.5726 786.2C58.4899 798.796 66.2812 803.968 77.4474 805.025C86.326 805.878 93.9928 803.832 97.1071 795.124C100.946 798.182 104.332 802.388 108.67 803.911C112.984 805.423 118.443 805.139 123.029 804.059C133.086 801.706 137.015 796.556 137.955 786.234C146.2 794.226 155.033 793.612 163.764 788.019C172.077 782.698 176.573 775.377 172.881 764.908C185.225 767.84 192.994 764.748 199.086 754.767C203.854 746.969 203.231 738.875 198.044 732.713C202.031 731.19 207.138 730.485 210.388 727.632C213.842 724.608 216.345 719.822 217.829 715.332C221.09 705.407 217.987 698.211 208.667 692.357C220.026 688.696 223.321 679.863 221.883 669.723C220.603 660.754 216.866 652.375 204.42 652.171L204.454 652.171ZM97.1185 764.965C49.4414 763.885 13.3609 726.018 14.4141 678.147C15.4108 632.925 54.4132 595.638 100.086 597.116C145.962 598.605 182.371 635.619 181.578 682.683C180.797 728.632 142.304 765.988 97.1298 764.965L97.1185 764.965Z" fill="url(#paint35_linear_1246_15675)"/>
</mask>
<g mask="url(#mask6_1246_15675)">
<g filter="url(#filter6_f_1246_15675)">
<rect width="463.585" height="439.89" transform="matrix(-0.810807 -0.585313 -0.582373 0.812922 391.943 704.406)" fill="url(#paint36_linear_1246_15675)"/>
</g>
</g>
<mask id="mask7_1246_15675" style="mask-type:alpha" maskUnits="userSpaceOnUse" x="339" y="539" width="117" height="109">
<path d="M396.509 546.73C387.757 539.085 378.002 537.064 367.783 542.972C357.28 549.042 354.262 558.792 356.553 570.012C352.846 572.558 348.966 574.521 345.948 577.403C333.47 589.33 338.592 611.277 354.983 616.583C356.965 617.224 357.409 617.944 357.113 619.958C354.623 637.009 368.671 650.522 385.434 647.283C389.894 646.421 393.549 644.096 396.702 640.883C397.063 640.513 397.513 640.228 398.034 639.82C406.793 648.242 416.973 649.842 426.993 643.746C436.865 637.741 440.951 628.14 437.907 616.279C449.22 612.211 455.797 604.411 455.527 592.485C455.256 580.623 448.487 573.012 437.212 569.494C439.252 557.568 435.951 547.851 425.152 542.033C414.734 536.423 405.1 538.943 396.503 546.736L396.509 546.73ZM408.466 586.998L408.466 599.805C404.637 602.111 400.93 604.346 397.526 606.4C393.659 604.255 389.772 602.092 386.039 600.019L386.039 587.211C389.83 584.944 393.556 582.716 397.159 580.558C400.724 582.593 404.502 584.743 408.46 586.998L408.466 586.998Z" fill="url(#paint37_linear_1246_15675)"/>
</mask>
<g mask="url(#mask7_1246_15675)">
<g filter="url(#filter7_f_1246_15675)">
<rect width="477.924" height="488.289" transform="matrix(0.0102162 -0.999948 -0.999946 -0.0103528 627.507 774.5)" fill="url(#paint38_linear_1246_15675)"/>
</g>
</g>
<mask id="mask8_1246_15675" style="mask-type:alpha" maskUnits="userSpaceOnUse" x="581" y="592" width="143" height="143">
<path d="M625.912 667.028C616.083 667.685 606.789 670.773 597.718 674.395C593.446 676.1 589.477 678.517 585.501 680.81C584.224 681.55 583.148 682.789 582.318 684.008C580.038 687.377 580.716 690.081 584.483 691.882C589.787 694.422 592.241 698.297 592.06 703.96C591.894 709.156 595.416 711.697 600.446 709.636C605.562 707.534 610.866 705.247 615.066 701.885C622.08 696.277 628.279 689.752 634.81 683.611C634.976 683.453 635.098 683.248 635.228 683.056C637.602 679.441 639.291 675.518 637.054 671.485C634.81 667.439 630.328 667.199 625.912 667.035L625.912 667.028Z" fill="url(#paint39_linear_1246_15675)"/>
<path d="M625.5 659.359C626.236 659.359 626.352 659.359 626.475 659.359C630.689 659.291 634.954 658.784 637.133 654.923C639.341 651.006 638.151 646.768 635.343 643.701C629.873 637.71 624.173 631.801 617.844 626.659C613.103 622.797 607.467 619.716 601.795 617.149C595.618 614.348 591.988 616.82 592.075 623.16C592.139 628.302 589.736 631.767 585.111 634.204C580.204 636.792 579.619 640.209 583.74 643.968C586.208 646.22 589.137 648.213 592.204 649.651C601.816 654.163 611.905 657.429 622.52 659.106C623.703 659.291 624.909 659.311 625.493 659.359L625.5 659.359Z" fill="url(#paint40_linear_1246_15675)"/>
<path d="M678.845 659.572C692.433 657.436 706.187 653.828 718.303 645.892C719.653 645.009 720.829 643.763 721.782 642.489C724.315 639.1 723.752 636.553 719.855 634.691C714.45 632.109 711.838 628.186 711.967 622.401C712.083 617.272 708.735 614.835 703.589 616.773C698.971 618.505 694.273 620.648 690.485 623.619C683.492 629.104 677.062 635.245 670.568 641.284C669.081 642.667 668.107 644.646 667.198 646.481C664.066 652.787 666.894 657.874 674.14 659.1C675.431 659.319 676.752 659.374 678.845 659.586L678.845 659.572Z" fill="url(#paint41_linear_1246_15675)"/>
<path d="M677.869 667.121C667.059 667.114 662.758 673.297 668.438 681.91C671.988 687.306 676.982 691.982 681.925 696.385C688.023 701.814 694.409 707.107 702.708 709.496C704.064 709.886 705.515 710.188 706.915 710.154C710.422 710.065 712.096 708.599 711.909 705.265C711.533 698.692 714.203 694.166 720.619 691.414C723.635 690.12 724.371 687.1 721.961 684.526C719.32 681.705 716.094 679.185 712.666 677.261C703.805 672.27 685.345 667.128 677.869 667.121Z" fill="url(#paint42_linear_1246_15675)"/>
<path d="M670.177 607.493C669.592 603.625 669.426 600.058 668.452 596.703C667.146 592.198 663.891 590.951 659.764 593.409C654.445 596.573 649.56 596.422 644.292 593.327C640.309 590.986 637.559 591.67 636.231 595.929C634.94 600.065 634.232 604.707 634.788 608.952C635.878 617.23 637.711 625.466 639.897 633.559C640.842 637.065 643.043 640.454 645.389 643.385C649.105 648.04 655.34 648.26 658.732 643.398C661.9 638.859 664.245 633.573 665.818 628.315C667.867 621.454 668.806 614.292 670.169 607.493L670.177 607.493Z" fill="url(#paint43_linear_1246_15675)"/>
<path d="M670.07 719.123C668.844 709.113 666.996 699.37 663.164 690.072C662.089 687.47 660.502 684.923 658.589 682.8C654.642 678.405 648.855 678.282 645.456 683.027C642.49 687.169 640.202 691.962 638.672 696.768C635.757 705.936 633.859 715.371 634.617 725.052C634.761 726.935 635.302 728.88 636.118 730.605C638.03 734.624 640.447 735.46 644.431 733.063C649.742 729.866 654.642 729.968 659.881 733.166C663.684 735.494 666.946 734.419 668.273 730.188C669.385 726.648 669.515 722.827 670.078 719.13L670.07 719.123Z" fill="url(#paint44_linear_1246_15675)"/>
<path d="M651.978 672.392C657.202 672.398 661.849 668.119 661.806 663.34C661.763 658.445 657.296 654.131 652.194 654.063C646.796 653.987 642.445 658.219 642.503 663.47C642.56 668.263 646.933 672.392 651.978 672.398L651.978 672.392Z" fill="url(#paint45_linear_1246_15675)"/>
</mask>
<g mask="url(#mask8_1246_15675)">
<rect width="493.907" height="507.98" transform="matrix(0.72543 -0.688295 -0.72543 -0.688295 556.152 1019.38)" fill="url(#paint46_linear_1246_15675)"/>
</g>
<mask id="mask9_1246_15675" style="mask-type:alpha" maskUnits="userSpaceOnUse" x="1190" y="662" width="114" height="115">
<path d="M1236.72 746.865C1237.08 757.592 1227.58 772.223 1246.45 775.778C1253.73 777.154 1259.24 772.223 1259.55 764.496C1259.78 758.701 1258.39 752.845 1257.41 744.276C1267.55 753.112 1272.81 773.538 1287.45 758.681C1301.55 744.358 1281.98 739.241 1275.29 729.357C1278.57 729.912 1282.05 731.371 1285.14 730.837C1291.13 729.809 1297.74 728.782 1302.42 725.432C1304.56 723.891 1304.54 714.665 1302.27 712.877C1298.03 709.527 1291.57 708.5 1285.85 707.575C1282.54 707.041 1278.89 708.644 1275.37 709.281C1274.94 708.377 1274.5 707.473 1274.06 706.568C1276.76 704.657 1279.32 702.52 1282.17 700.897C1288.49 697.301 1292.94 692.081 1290.32 685.074C1288.8 680.985 1283.42 675.21 1280.32 675.519C1275.04 676.032 1269.86 680.348 1265.31 683.903C1262.98 685.711 1262.09 689.307 1260.55 692.102C1259.59 691.835 1258.64 691.568 1257.68 691.3C1258.35 685.67 1259.51 680.04 1259.57 674.409C1259.63 667.114 1255.12 662.922 1248.01 662.45C1240.88 661.977 1235.85 665.573 1235.06 672.847C1234.62 676.793 1235.77 680.903 1236.18 684.93C1236.39 687.047 1236.54 689.184 1236.93 693.849C1226.81 685.341 1221.67 664.71 1206.93 679.793C1192.84 694.239 1212.59 699.13 1219.18 708.993C1215.52 708.397 1211.67 706.815 1208.22 707.39C1202.55 708.356 1196.1 709.569 1191.96 713.021C1189.76 714.85 1189.93 723.788 1192.21 725.597C1196.43 728.946 1202.9 729.974 1208.62 730.857C1211.92 731.371 1215.58 729.707 1219.07 729.029C1219.53 729.933 1219.97 730.857 1220.42 731.761C1217.74 733.693 1215.25 735.974 1212.36 737.495C1205.77 740.926 1201.67 746.29 1204.1 753.215C1205.54 757.304 1210.94 763.14 1214.08 762.852C1219.36 762.359 1224.58 758.064 1229.14 754.53C1231.46 752.722 1232.36 749.084 1233.9 746.29C1234.85 746.495 1235.79 746.701 1236.74 746.906L1236.72 746.865Z" fill="url(#paint47_linear_1246_15675)"/>
</mask>
<g mask="url(#mask9_1246_15675)">
<rect width="492.497" height="506.53" transform="matrix(0.71121 -0.702979 -0.71121 -0.702979 1083.53 1134.85)" fill="url(#paint48_linear_1246_15675)"/>
</g>
<mask id="mask10_1246_15675" style="mask-type:alpha" maskUnits="userSpaceOnUse" x="1382" y="715" width="160" height="161">
<path d="M1501.63 782.514C1507.94 777.862 1515.36 772.841 1522.21 767.128C1525.05 764.764 1527.26 761.151 1528.68 757.666C1531.16 751.644 1527.86 747.579 1521.36 747.699C1515.47 747.812 1510.57 750.567 1505.94 753.736C1500.02 757.794 1494.34 762.212 1489.15 766.044C1490.69 763.703 1493.12 760.79 1494.7 757.462C1497.67 751.2 1500.21 744.726 1502.78 738.283C1503.27 737.056 1503.21 735.558 1503.21 734.188C1503.22 730.499 1503.3 726.472 1499.3 724.778C1495.26 723.069 1491.88 725.109 1488.91 727.97C1481.22 735.339 1476.56 744.5 1473.15 754.429C1472.91 755.137 1472.69 755.859 1472.42 756.552C1472.34 756.762 1472.13 756.928 1471.64 757.515C1472.02 754.068 1472.43 751.057 1472.66 748.023C1473.27 739.743 1473.59 731.44 1470.24 723.596C1469.28 721.353 1467.73 719.261 1466.08 717.439C1463.67 714.767 1460.06 714.887 1457.49 717.612C1452.91 722.46 1451.76 728.678 1451.45 734.971C1451.12 741.828 1451.38 748.708 1451.38 754.73C1449.7 750.936 1448.06 745.863 1445.34 741.467C1442.16 736.325 1438.27 731.576 1434.25 727.052C1431.84 724.342 1428.3 723.085 1424.71 724.876C1420.83 726.818 1420.74 730.763 1420.93 734.383C1421.35 742.761 1424.98 750.063 1429.16 757.101C1430.92 760.075 1432.95 762.89 1435.1 766.149C1429.38 761.746 1424.33 757.177 1418.64 753.691C1414.27 751.019 1409.21 749.152 1404.21 748.023C1401.76 747.466 1398.08 748.663 1396.14 750.394C1393.45 752.796 1394.54 756.484 1396.14 759.48C1400.94 768.475 1409.02 773.865 1417.49 778.788C1419.74 780.098 1422.06 781.287 1424.35 782.544C1417.73 781.302 1411.19 779.375 1404.58 779.051C1398.77 778.765 1392.58 779.405 1387.08 781.234C1380.78 783.327 1380.37 789.552 1385.67 793.873C1391.49 798.63 1398.56 800.234 1405.82 800.994C1411.11 801.551 1416.43 801.784 1420.52 802.078C1414.36 804.193 1407.02 806.444 1399.91 809.251C1395.01 811.179 1390.67 814.212 1387.78 818.879C1384.97 823.418 1386.31 827.536 1391.36 829.357C1397.28 831.495 1403.27 830.592 1408.96 828.635C1414.7 826.662 1420.2 823.945 1425.8 821.559C1426.43 821.288 1427.06 820.994 1428.27 820.445C1423.11 825.759 1418.03 830.223 1413.93 835.47C1410.93 839.301 1408.47 843.938 1407.09 848.605C1404.8 856.321 1409.64 860.544 1417.32 857.999C1425.62 855.244 1431.19 848.936 1436.49 842.387C1438.68 839.677 1440.6 836.749 1443.27 833.053C1441.36 838.932 1439.59 843.765 1438.22 848.703C1436.43 855.154 1435.54 861.71 1437.29 868.365C1439.34 876.163 1445.2 877.864 1450.78 872C1456.7 865.775 1458.81 857.721 1460.29 849.523C1461.07 845.225 1461.42 840.844 1461.88 837.231C1463.29 844.156 1464.56 851.797 1466.48 859.264C1467.86 864.608 1470.3 869.592 1474.8 873.197C1479.69 877.127 1484.39 875.93 1486.5 869.885C1489.01 862.726 1487.9 855.5 1485.94 848.432C1484.64 843.765 1482.92 839.218 1481.04 833.565C1484.69 838.262 1487.3 842.515 1490.78 845.835C1495.23 850.095 1500.16 853.957 1505.33 857.307C1508.47 859.339 1512.67 860.017 1515.77 856.885C1518.95 853.678 1517.92 849.538 1516.54 845.895C1513.78 838.601 1508.8 832.812 1503.27 827.49C1501.23 825.533 1499.11 823.682 1496.45 821.258C1503.17 823.922 1508.97 826.896 1515.12 828.454C1520.29 829.771 1525.97 830.245 1531.26 829.651C1537.88 828.913 1539.74 823.478 1535.85 818.051C1531.33 811.743 1524.54 808.777 1517.56 806.383C1512.55 804.66 1507.34 803.515 1502.8 802.273C1509.13 801.671 1516.13 801.536 1522.89 800.188C1527.91 799.187 1532.76 796.929 1537.41 794.648C1540.53 793.112 1542.51 790.177 1541.89 786.285C1541.3 782.619 1538.32 781.189 1535.39 780.248C1526.54 777.418 1517.67 778.569 1508.85 780.617C1505.96 781.287 1503.11 782.122 1501.66 782.506L1501.63 782.514ZM1477.48 802.68C1477.81 802.733 1478.13 802.785 1478.46 802.838C1478.65 806.986 1476.07 809.854 1471.63 810.87C1470.25 811.186 1468.76 811.991 1467.8 813.015C1464.33 816.734 1459.58 816.771 1456.1 813.173C1454.83 811.863 1453.07 810.772 1451.33 810.245C1446.54 808.8 1444.32 804.291 1446.23 799.692C1446.69 798.578 1446.74 796.974 1446.32 795.86C1444.35 790.704 1447.18 785.818 1452.58 785.058C1453.82 784.877 1455.22 784.042 1456.08 783.078C1459.92 778.773 1464.91 778.833 1468.56 783.221C1469.37 784.193 1470.76 784.983 1471.99 785.209C1476.19 785.984 1478.93 789.176 1478.55 793.361C1478.26 796.47 1477.84 799.571 1477.49 802.672L1477.48 802.68Z" fill="url(#paint49_linear_1246_15675)"/>
</mask>
<g mask="url(#mask10_1246_15675)">
<g filter="url(#filter8_f_1246_15675)">
<rect width="779.211" height="515.912" transform="matrix(0.064864 -0.997894 0.99784 0.0656884 1223.29 1340.66)" fill="url(#paint50_linear_1246_15675)"/>
</g>
</g>
<path d="M1122.54 571.701C1125.28 574.162 1127.86 576.806 1130.77 579.03C1137.92 584.506 1148.03 583.493 1153.93 576.912C1160.03 570.105 1159.98 560.249 1153.9 553.461C1150.06 549.177 1144.9 547.785 1139.59 546.625C1138.83 546.456 1138.04 546.336 1137.33 546.205C1139.84 543.498 1142.47 541.027 1144.65 538.209C1149.05 532.516 1149.73 526.183 1146.5 519.756C1143.23 513.249 1137.66 509.942 1130.4 510.197C1123.25 510.445 1117.93 514.003 1115.11 520.657C1113.67 524.061 1112.79 527.703 1111.68 531.169C1109.92 529.398 1108.01 527.411 1106.03 525.501C1098.85 518.577 1088.74 518.403 1081.3 525.045C1072.46 532.946 1075.06 548.773 1086.04 553.286C1089.6 554.748 1093.35 555.739 1096.89 556.909C1094.78 559.089 1092.34 561.324 1090.24 563.844C1083.11 572.408 1085.31 584.817 1094.82 590.308C1104.31 595.787 1116.38 591.21 1119.82 580.783C1120.82 577.727 1121.67 574.623 1122.55 571.699L1122.54 571.701ZM1125.38 556.059C1122.93 560.57 1116.96 562.441 1113.07 560.095C1107.56 556.764 1106.12 551.525 1109.25 546.024C1111.76 541.613 1118.03 540.809 1122.08 543.231C1126.5 545.878 1127.99 551.605 1125.38 556.059Z" fill="url(#paint51_linear_1246_15675)"/>
<path d="M1740.09 749.237C1744.74 741.183 1749.55 733.503 1753.7 725.479C1757.64 717.849 1759.89 709.596 1760.02 700.919C1760.09 696.351 1759.67 691.754 1755.07 689.264C1750.65 686.867 1746.58 688.939 1742.88 691.243C1732.9 697.456 1725.88 706.487 1719.83 716.331C1716.68 721.442 1713.8 726.708 1710.83 731.859C1708.44 727.356 1705.97 722.272 1703.12 717.398C1697.52 707.808 1690.68 699.212 1681.61 692.618C1679.93 691.396 1678.09 690.286 1676.17 689.505C1668.54 686.421 1663.13 689.805 1662.41 698.033C1661.69 706.205 1663.58 714.027 1666.89 721.284C1671.26 730.88 1676.5 740.072 1681.21 749.139C1674.96 749.042 1667.81 748.533 1660.7 748.9C1649.21 749.491 1637.86 751.126 1627.97 757.814C1620.9 762.59 1620.83 769.223 1627.82 774.027C1638.54 781.379 1650.87 782.88 1663.37 783.328C1669.45 783.547 1675.56 783.037 1682.23 782.837C1679.89 786.381 1677.64 789.51 1675.67 792.805C1669.09 803.8 1663.65 815.25 1662.41 828.241C1662.25 829.895 1662.22 831.594 1662.35 833.25C1663.1 843.055 1669.44 846.5 1678.01 841.554C1691.66 833.682 1699.76 820.972 1706.9 807.52C1708.26 804.966 1709.47 802.329 1711.12 798.973C1713.72 804.061 1715.76 808.566 1718.23 812.815C1724.43 823.475 1731.37 833.574 1742.19 840.172C1746.24 842.637 1750.64 845.623 1755.39 842.478C1759.97 839.455 1760.35 834.341 1759.9 829.291C1758.42 812.42 1750.72 798.163 1741.14 784.701C1740.74 784.139 1740.32 783.587 1739.57 782.572C1744.53 782.852 1749.03 783.222 1753.55 783.325C1764.8 783.585 1775.87 782.34 1786.47 778.336C1788.94 777.41 1791.38 776.22 1793.55 774.75C1801.73 769.223 1801.4 761.554 1792.82 756.689C1781.93 750.498 1769.93 748.888 1757.68 748.681C1751.98 748.583 1746.26 749.017 1740.08 749.232L1740.09 749.237ZM1711.14 749.947C1712.68 746.498 1713.75 743.642 1715.18 740.969C1719.95 732.053 1725.18 723.412 1733.84 717.651C1738.59 714.495 1741.61 716.198 1741.76 721.837C1741.79 723.077 1741.57 724.335 1741.36 725.565C1739.55 736.012 1734.47 744.962 1728.47 753.482C1727.58 754.749 1726.72 756.037 1725.47 757.86C1728.29 757.565 1730.21 757.299 1732.14 757.174C1742.8 756.469 1753.43 756.462 1763.36 761.072C1765.28 761.965 1767.98 764.399 1767.81 765.804C1767.57 767.731 1765.21 770.307 1763.24 770.916C1757.43 772.711 1751.41 774.26 1745.36 774.807C1738.84 775.397 1732.21 774.758 1725.94 774.659C1728.63 778.891 1731.57 783.141 1734.11 787.616C1738.07 794.569 1741.32 801.855 1741.73 810.019C1742 815.265 1738.7 817.409 1734.28 814.689C1731.59 813.038 1729.06 810.871 1727 808.472C1720.49 800.871 1714.3 793.006 1711.75 782.913C1711.11 783.281 1710.8 783.353 1710.7 783.539C1710.3 784.279 1709.92 785.028 1709.64 785.816C1706.06 795.752 1699.91 803.965 1692.5 811.301C1690.96 812.835 1689 814.092 1687.02 815.024C1683.11 816.849 1680.6 815.39 1680.72 811.055C1680.82 807.486 1681.17 803.635 1682.61 800.451C1686.68 791.44 1691.37 782.7 1695.36 774.749C1689.21 774.786 1681.92 775.439 1674.78 774.683C1668.79 774.047 1662.76 772.292 1657.15 770.043C1653.08 768.412 1653.12 764.554 1656.79 762.349C1659.39 760.799 1662.32 759.235 1665.24 758.931C1675.55 757.822 1685.92 757.25 1696.04 756.494C1695.4 755.591 1694.08 753.83 1692.84 752.003C1687.65 744.326 1683.24 736.252 1681.35 727.071C1680.61 723.47 1678.87 718.915 1682.91 716.755C1686.77 714.69 1689.95 718.269 1692.66 720.824C1701.04 728.721 1706.53 738.534 1711.16 749.956L1711.14 749.947Z" fill="url(#paint52_linear_1246_15675)"/>
<defs>
<filter id="filter0_f_1246_15675" x="-1152.3" y="546.289" width="1404.21" height="949.609" filterUnits="userSpaceOnUse" color-interpolation-filters="sRGB">
<feFlood flood-opacity="0" result="BackgroundImageFix"/>
<feBlend mode="normal" in="SourceGraphic" in2="BackgroundImageFix" result="shape"/>
<feGaussianBlur stdDeviation="10" result="effect1_foregroundBlur_1246_15675"/>
</filter>
<filter id="filter1_f_1246_15675" x="30.2571" y="659.945" width="662.734" height="649.414" filterUnits="userSpaceOnUse" color-interpolation-filters="sRGB">
<feFlood flood-opacity="0" result="BackgroundImageFix"/>
<feBlend mode="normal" in="SourceGraphic" in2="BackgroundImageFix" result="shape"/>
<feGaussianBlur stdDeviation="10" result="effect1_foregroundBlur_1246_15675"/>
</filter>
<filter id="filter2_f_1246_15675" x="947.126" y="115.805" width="1002.13" height="1453.67" filterUnits="userSpaceOnUse" color-interpolation-filters="sRGB">
<feFlood flood-opacity="0" result="BackgroundImageFix"/>
<feBlend mode="normal" in="SourceGraphic" in2="BackgroundImageFix" result="shape"/>
<feGaussianBlur stdDeviation="25" result="effect1_foregroundBlur_1246_15675"/>
</filter>
<filter id="filter3_f_1246_15675" x="746" y="607.531" width="381.171" height="374.398" filterUnits="userSpaceOnUse" color-interpolation-filters="sRGB">
<feFlood flood-opacity="0" result="BackgroundImageFix"/>
<feBlend mode="normal" in="SourceGraphic" in2="BackgroundImageFix" result="shape"/>
<feGaussianBlur stdDeviation="10" result="effect1_foregroundBlur_1246_15675"/>
</filter>
<filter id="filter4_f_1246_15675" x="1325.74" y="284.852" width="656.854" height="916.859" filterUnits="userSpaceOnUse" color-interpolation-filters="sRGB">
<feFlood flood-opacity="0" result="BackgroundImageFix"/>
<feBlend mode="normal" in="SourceGraphic" in2="BackgroundImageFix" result="shape"/>
<feGaussianBlur stdDeviation="10" result="effect1_foregroundBlur_1246_15675"/>
</filter>
<filter id="filter5_f_1246_15675" x="1352.29" y="69.8125" width="752.529" height="1108.63" filterUnits="userSpaceOnUse" color-interpolation-filters="sRGB">
<feFlood flood-opacity="0" result="BackgroundImageFix"/>
<feBlend mode="normal" in="SourceGraphic" in2="BackgroundImageFix" result="shape"/>
<feGaussianBlur stdDeviation="10" result="effect1_foregroundBlur_1246_15675"/>
</filter>
<filter id="filter6_f_1246_15675" x="-260.114" y="413.062" width="672.057" height="668.938" filterUnits="userSpaceOnUse" color-interpolation-filters="sRGB">
<feFlood flood-opacity="0" result="BackgroundImageFix"/>
<feBlend mode="normal" in="SourceGraphic" in2="BackgroundImageFix" result="shape"/>
<feGaussianBlur stdDeviation="10" result="effect1_foregroundBlur_1246_15675"/>
</filter>
<filter id="filter7_f_1246_15675" x="119.244" y="271.547" width="533.146" height="522.953" filterUnits="userSpaceOnUse" color-interpolation-filters="sRGB">
<feFlood flood-opacity="0" result="BackgroundImageFix"/>
<feBlend mode="normal" in="SourceGraphic" in2="BackgroundImageFix" result="shape"/>
<feGaussianBlur stdDeviation="10" result="effect1_foregroundBlur_1246_15675"/>
</filter>
<filter id="filter8_f_1246_15675" x="1203.29" y="543.086" width="605.341" height="851.461" filterUnits="userSpaceOnUse" color-interpolation-filters="sRGB">
<feFlood flood-opacity="0" result="BackgroundImageFix"/>
<feBlend mode="normal" in="SourceGraphic" in2="BackgroundImageFix" result="shape"/>
<feGaussianBlur stdDeviation="10" result="effect1_foregroundBlur_1246_15675"/>
</filter>
<linearGradient id="paint0_linear_1246_15675" x1="-102.796" y1="1049.11" x2="197.204" y2="1049.11" gradientUnits="userSpaceOnUse">
<stop stop-color="#FFDF22"/>
<stop offset="1" stop-color="#FBCB34"/>
</linearGradient>
<linearGradient id="paint1_linear_1246_15675" x1="-450.195" y1="566.289" x2="-450.195" y2="1475.9" gradientUnits="userSpaceOnUse">
<stop stop-color="#FFDF22"/>
<stop offset="1" stop-color="#FBCB34"/>
</linearGradient>
<linearGradient id="paint2_linear_1246_15675" x1="410.2" y1="1040.4" x2="410.2" y2="789.998" gradientUnits="userSpaceOnUse">
<stop stop-color="#FFDF22"/>
<stop offset="1" stop-color="#FBCB34"/>
</linearGradient>
<linearGradient id="paint3_linear_1246_15675" x1="227.087" y1="0" x2="227.087" y2="428.679" gradientUnits="userSpaceOnUse">
<stop stop-color="#FFDF22"/>
<stop offset="1" stop-color="#FBCB34"/>
</linearGradient>
<linearGradient id="paint4_linear_1246_15675" x1="1400.4" y1="592.797" x2="1400.4" y2="309.997" gradientUnits="userSpaceOnUse">
<stop stop-color="#FFDF22"/>
<stop offset="1" stop-color="#FBCB34"/>
</linearGradient>
<linearGradient id="paint5_linear_1246_15675" x1="1673.96" y1="1519.48" x2="1673.96" y2="2421.61" gradientUnits="userSpaceOnUse">
<stop stop-color="#FFDF22"/>
<stop offset="1" stop-color="#FBCB34"/>
</linearGradient>
<linearGradient id="paint6_linear_1246_15675" x1="1265" y1="1007" x2="1265" y2="887" gradientUnits="userSpaceOnUse">
<stop stop-color="#FFDF22"/>
<stop offset="1" stop-color="#FBCB34"/>
</linearGradient>
<linearGradient id="paint7_linear_1246_15675" x1="1850.14" y1="1147.29" x2="1850.14" y2="903" gradientUnits="userSpaceOnUse">
<stop stop-color="#FFDF22"/>
<stop offset="1" stop-color="#FBCB34"/>
</linearGradient>
<linearGradient id="paint8_linear_1246_15675" x1="712" y1="947.078" x2="712" y2="851.245" gradientUnits="userSpaceOnUse">
<stop stop-color="#FFDF22"/>
<stop offset="1" stop-color="#FBCB34"/>
</linearGradient>
<linearGradient id="paint9_linear_1246_15675" x1="1522.3" y1="1146.58" x2="1522.3" y2="971.578" gradientUnits="userSpaceOnUse">
<stop stop-color="#FFDF22"/>
<stop offset="1" stop-color="#FBCB34"/>
</linearGradient>
<linearGradient id="paint10_linear_1246_15675" x1="959.786" y1="663" x2="959.786" y2="767.724" gradientUnits="userSpaceOnUse">
<stop stop-color="#FFDF22"/>
<stop offset="1" stop-color="#FBCB34"/>
</linearGradient>
<linearGradient id="paint11_linear_1246_15675" x1="959.786" y1="685.945" x2="959.786" y2="727.646" gradientUnits="userSpaceOnUse">
<stop stop-color="#FFDF22"/>
<stop offset="1" stop-color="#FBCB34"/>
</linearGradient>
<linearGradient id="paint12_linear_1246_15675" x1="990.471" y1="683.664" x2="990.471" y2="769.933" gradientUnits="userSpaceOnUse">
<stop stop-color="#FFDF22"/>
<stop offset="1" stop-color="#FBCB34"/>
</linearGradient>
<linearGradient id="paint13_linear_1246_15675" x1="997.307" y1="701.945" x2="997.307" y2="736.247" gradientUnits="userSpaceOnUse">
<stop stop-color="#FFDF22"/>
<stop offset="1" stop-color="#FBCB34"/>
</linearGradient>
<linearGradient id="paint14_linear_1246_15675" x1="1010.56" y1="731.398" x2="1010.56" y2="778.107" gradientUnits="userSpaceOnUse">
<stop stop-color="#FFDF22"/>
<stop offset="1" stop-color="#FBCB34"/>
</linearGradient>
<linearGradient id="paint15_linear_1246_15675" x1="1018.8" y1="743.32" x2="1018.8" y2="758.255" gradientUnits="userSpaceOnUse">
<stop stop-color="#FFDF22"/>
<stop offset="1" stop-color="#FBCB34"/>
</linearGradient>
<linearGradient id="paint16_linear_1246_15675" x1="930.497" y1="683.664" x2="930.497" y2="769.933" gradientUnits="userSpaceOnUse">
<stop stop-color="#FFDF22"/>
<stop offset="1" stop-color="#FBCB34"/>
</linearGradient>
<linearGradient id="paint17_linear_1246_15675" x1="923.662" y1="701.945" x2="923.662" y2="736.244" gradientUnits="userSpaceOnUse">
<stop stop-color="#FFDF22"/>
<stop offset="1" stop-color="#FBCB34"/>
</linearGradient>
<linearGradient id="paint18_linear_1246_15675" x1="909.445" y1="730.859" x2="909.445" y2="777.567" gradientUnits="userSpaceOnUse">
<stop stop-color="#FFDF22"/>
<stop offset="1" stop-color="#FBCB34"/>
</linearGradient>
<linearGradient id="paint19_linear_1246_15675" x1="901.206" y1="742.789" x2="901.206" y2="757.723" gradientUnits="userSpaceOnUse">
<stop stop-color="#FFDF22"/>
<stop offset="1" stop-color="#FBCB34"/>
</linearGradient>
<linearGradient id="paint20_linear_1246_15675" x1="909.439" y1="761.781" x2="909.439" y2="808.489" gradientUnits="userSpaceOnUse">
<stop stop-color="#FFDF22"/>
<stop offset="1" stop-color="#FBCB34"/>
</linearGradient>
<linearGradient id="paint21_linear_1246_15675" x1="901.201" y1="781.625" x2="901.201" y2="796.56" gradientUnits="userSpaceOnUse">
<stop stop-color="#FFDF22"/>
<stop offset="1" stop-color="#FBCB34"/>
</linearGradient>
<linearGradient id="paint22_linear_1246_15675" x1="929.367" y1="770.031" x2="929.367" y2="856.3" gradientUnits="userSpaceOnUse">
<stop stop-color="#FFDF22"/>
<stop offset="1" stop-color="#FBCB34"/>
</linearGradient>
<linearGradient id="paint23_linear_1246_15675" x1="922.53" y1="803.719" x2="922.53" y2="838.02" gradientUnits="userSpaceOnUse">
<stop stop-color="#FFDF22"/>
<stop offset="1" stop-color="#FBCB34"/>
</linearGradient>
<linearGradient id="paint24_linear_1246_15675" x1="959.786" y1="771.609" x2="959.786" y2="876.334" gradientUnits="userSpaceOnUse">
<stop stop-color="#FFDF22"/>
<stop offset="1" stop-color="#FBCB34"/>
</linearGradient>
<linearGradient id="paint25_linear_1246_15675" x1="959.786" y1="811.68" x2="959.786" y2="853.38" gradientUnits="userSpaceOnUse">
<stop stop-color="#FFDF22"/>
<stop offset="1" stop-color="#FBCB34"/>
</linearGradient>
<linearGradient id="paint26_linear_1246_15675" x1="988.767" y1="770.031" x2="988.767" y2="856.3" gradientUnits="userSpaceOnUse">
<stop stop-color="#FFDF22"/>
<stop offset="1" stop-color="#FBCB34"/>
</linearGradient>
<linearGradient id="paint27_linear_1246_15675" x1="995.603" y1="803.719" x2="995.603" y2="838.017" gradientUnits="userSpaceOnUse">
<stop stop-color="#FFDF22"/>
<stop offset="1" stop-color="#FBCB34"/>
</linearGradient>
<linearGradient id="paint28_linear_1246_15675" x1="1010.13" y1="762.852" x2="1010.13" y2="809.56" gradientUnits="userSpaceOnUse">
<stop stop-color="#FFDF22"/>
<stop offset="1" stop-color="#FBCB34"/>
</linearGradient>
<linearGradient id="paint29_linear_1246_15675" x1="1018.37" y1="782.695" x2="1018.37" y2="797.629" gradientUnits="userSpaceOnUse">
<stop stop-color="#FFDF22"/>
<stop offset="1" stop-color="#FBCB34"/>
</linearGradient>
<linearGradient id="paint30_linear_1246_15675" x1="140.943" y1="0" x2="140.943" y2="269.699" gradientUnits="userSpaceOnUse">
<stop stop-color="#FFDF22"/>
<stop offset="1" stop-color="#FBCB34"/>
</linearGradient>
<linearGradient id="paint31_linear_1246_15675" x1="1683.2" y1="568.797" x2="1683.2" y2="433" gradientUnits="userSpaceOnUse">
<stop stop-color="#FFDF22"/>
<stop offset="1" stop-color="#FBCB34"/>
</linearGradient>
<linearGradient id="paint32_linear_1246_15675" x1="421.023" y1="0" x2="421.023" y2="562.898" gradientUnits="userSpaceOnUse">
<stop stop-color="#FFDF22"/>
<stop offset="1" stop-color="#FBCB34"/>
</linearGradient>
<linearGradient id="paint33_linear_1246_15675" x1="1750.5" y1="352" x2="1750.5" y2="117" gradientUnits="userSpaceOnUse">
<stop stop-color="#FFDF22"/>
<stop offset="1" stop-color="#FBCB34"/>
</linearGradient>
<linearGradient id="paint34_linear_1246_15675" x1="1906.6" y1="1158.45" x2="1906.6" y2="1870.97" gradientUnits="userSpaceOnUse">
<stop stop-color="#FFDF22"/>
<stop offset="1" stop-color="#FBCB34"/>
</linearGradient>
<linearGradient id="paint35_linear_1246_15675" x1="98.0999" y1="805.203" x2="98.0995" y2="557.003" gradientUnits="userSpaceOnUse">
<stop stop-color="#FFDF22"/>
<stop offset="1" stop-color="#FBCB34"/>
</linearGradient>
<linearGradient id="paint36_linear_1246_15675" x1="231.792" y1="0" x2="231.792" y2="439.89" gradientUnits="userSpaceOnUse">
<stop stop-color="#FFDF22"/>
<stop offset="1" stop-color="#FBCB34"/>
</linearGradient>
<linearGradient id="paint37_linear_1246_15675" x1="455.535" y1="593.383" x2="339" y2="593.383" gradientUnits="userSpaceOnUse">
<stop stop-color="#FFDF22"/>
<stop offset="1" stop-color="#FBCB34"/>
</linearGradient>
<linearGradient id="paint38_linear_1246_15675" x1="238.962" y1="0" x2="238.962" y2="488.289" gradientUnits="userSpaceOnUse">
<stop stop-color="#FFDF22"/>
<stop offset="1" stop-color="#FBCB34"/>
</linearGradient>
<linearGradient id="paint39_linear_1246_15675" x1="609.555" y1="710.352" x2="609.555" y2="667.028" gradientUnits="userSpaceOnUse">
<stop stop-color="#FFDF22"/>
<stop offset="1" stop-color="#FBCB34"/>
</linearGradient>
<linearGradient id="paint40_linear_1246_15675" x1="609.64" y1="659.359" x2="609.64" y2="616.005" gradientUnits="userSpaceOnUse">
<stop stop-color="#FFDF22"/>
<stop offset="1" stop-color="#FBCB34"/>
</linearGradient>
<linearGradient id="paint41_linear_1246_15675" x1="694.627" y1="659.586" x2="694.627" y2="616.109" gradientUnits="userSpaceOnUse">
<stop stop-color="#FFDF22"/>
<stop offset="1" stop-color="#FBCB34"/>
</linearGradient>
<linearGradient id="paint42_linear_1246_15675" x1="694.663" y1="710.156" x2="694.663" y2="667.121" gradientUnits="userSpaceOnUse">
<stop stop-color="#FFDF22"/>
<stop offset="1" stop-color="#FBCB34"/>
</linearGradient>
<linearGradient id="paint43_linear_1246_15675" x1="652.387" y1="646.961" x2="652.387" y2="591.999" gradientUnits="userSpaceOnUse">
<stop stop-color="#FFDF22"/>
<stop offset="1" stop-color="#FBCB34"/>
</linearGradient>
<linearGradient id="paint44_linear_1246_15675" x1="652.264" y1="734.398" x2="652.263" y2="679.486" gradientUnits="userSpaceOnUse">
<stop stop-color="#FFDF22"/>
<stop offset="1" stop-color="#FBCB34"/>
</linearGradient>
<linearGradient id="paint45_linear_1246_15675" x1="652.154" y1="672.398" x2="652.154" y2="654.062" gradientUnits="userSpaceOnUse">
<stop stop-color="#FFDF22"/>
<stop offset="1" stop-color="#FBCB34"/>
</linearGradient>
<linearGradient id="paint46_linear_1246_15675" x1="246.953" y1="0" x2="246.953" y2="507.98" gradientUnits="userSpaceOnUse">
<stop stop-color="#FFDF22"/>
<stop offset="1" stop-color="#FBCB34"/>
</linearGradient>
<linearGradient id="paint47_linear_1246_15675" x1="1247.2" y1="776.008" x2="1247.2" y2="662.408" gradientUnits="userSpaceOnUse">
<stop stop-color="#FFDF22"/>
<stop offset="1" stop-color="#FBCB34"/>
</linearGradient>
<linearGradient id="paint48_linear_1246_15675" x1="246.248" y1="0" x2="246.248" y2="506.53" gradientUnits="userSpaceOnUse">
<stop stop-color="#FFDF22"/>
<stop offset="1" stop-color="#FBCB34"/>
</linearGradient>
<linearGradient id="paint49_linear_1246_15675" x1="1462" y1="875.5" x2="1462" y2="715.5" gradientUnits="userSpaceOnUse">
<stop stop-color="#FFDF22"/>
<stop offset="1" stop-color="#FBCB34"/>
</linearGradient>
<linearGradient id="paint50_linear_1246_15675" x1="389.605" y1="0" x2="389.605" y2="515.912" gradientUnits="userSpaceOnUse">
<stop stop-color="#FFDF22"/>
<stop offset="1" stop-color="#FBCB34"/>
</linearGradient>
<linearGradient id="paint51_linear_1246_15675" x1="1094.72" y1="590.25" x2="1139.72" y2="512.308" gradientUnits="userSpaceOnUse">
<stop stop-color="#FFDF22"/>
<stop offset="1" stop-color="#FBCB34"/>
</linearGradient>
<linearGradient id="paint52_linear_1246_15675" x1="1666.83" y1="842.699" x2="1755.34" y2="689.411" gradientUnits="userSpaceOnUse">
<stop stop-color="#FFDF22"/>
<stop offset="1" stop-color="#FBCB34"/>
</linearGradient>
</defs>
</svg>
