<svg width="100" height="100" viewBox="0 0 100 100" fill="none" xmlns="http://www.w3.org/2000/svg">
<path d="M82 100H18C17.7492 99.9001 17.5084 99.753 17.2475 99.7028C8.9398 98.0607 3.54515 93.1309 0.842809 85.1744C0.491639 84.1409 0.277592 83.0607 0 82.0005C0 60.666 0 39.3316 0 18.0005C0.100334 17.7496 0.250836 17.5088 0.297659 17.248C2.06355 7.19779 10.5819 0.0104953 20.7726 0.0071508C40.3211 0.000461839 59.8696 -0.00622712 79.4214 0.0104953C90.709 0.0205287 99.9833 9.29478 99.9933 20.5824C100.01 40.1878 100.003 59.7931 99.9933 79.3985C99.9866 88.5891 93.7057 96.8265 84.8696 99.2714C83.9197 99.5356 82.9565 99.7597 82.0033 100.004L82 100ZM83.3278 79.0205C83.3278 71.7663 83.3579 64.7162 83.3144 57.6694C83.2943 54.2847 83.3545 50.8801 83.0033 47.5255C82.3612 41.4085 79.5485 36.5657 73.5217 34.3985C67.3311 32.171 61.602 33.4018 56.5853 37.676C55.7358 38.4018 55.0769 39.355 54.0468 40.5255V33.472H41.7893V78.9704H54.097C54.097 78.2379 54.097 77.6359 54.097 77.0339C54.097 70.0908 53.9666 63.1443 54.1706 56.2045C54.2341 54.0138 54.8161 51.6526 55.8227 49.7162C57.3746 46.7329 60.2074 45.3449 63.6288 45.7229C66.8763 46.0807 69.0167 48.0439 70.0234 51.0607C70.5585 52.6627 70.8428 54.4185 70.8629 56.1075C70.9532 63.161 70.8997 70.2145 70.903 77.2714C70.903 77.8533 70.9498 78.4352 70.9766 79.0239H83.3211L83.3278 79.0205ZM21.0067 33.4219V78.9971H33.2274V33.4219H21.0067ZM19.8729 20.7362C19.8863 24.8065 23.1438 28.0573 27.1639 28.0172C31.0836 27.977 34.3177 24.7028 34.3378 20.7496C34.3612 16.7329 31.0635 13.3784 27.0903 13.3684C23.0836 13.3583 19.8562 16.6526 19.8696 20.7329L19.8729 20.7362Z" fill="#03351A"/>
</svg>
