<svg width="98" height="104" viewBox="0 0 98 104" fill="none" xmlns="http://www.w3.org/2000/svg">
<g id="Group 53">
<g id="Group 50">
<g id="Group 52">
<path id="Vector" d="M48.957 2C48.957 2 58.1328 12.9879 58.1328 26.5448C58.1328 40.0992 54.0249 51.0896 48.957 51.0896C43.8892 51.0896 39.7812 40.1017 39.7812 26.5448C39.7812 12.9904 48.957 2 48.957 2Z" fill="#FFDF22" stroke="#FFF9DE" stroke-width="1.33333" stroke-miterlimit="10"/>
<path id="Vector_2" d="M19.7672 11.6875C19.7672 11.6875 33.6499 15.1839 41.6176 26.1492C49.5853 37.1145 52.7208 48.4207 48.6204 51.4008C44.52 54.3808 34.7376 47.9044 26.7699 36.9391C18.8022 25.9738 19.7672 11.6875 19.7672 11.6875Z" fill="#FFDF22" stroke="#FFF9DE" stroke-width="1.33333" stroke-miterlimit="10"/>
<path id="Vector_3" d="M1.66797 36.5567C1.66797 36.5567 14.9542 31.2256 27.8469 35.4138C40.7396 39.6019 49.9204 46.9054 48.3539 51.7252C46.7875 56.5449 35.0677 57.0562 22.175 52.8681C9.28229 48.6799 1.66797 36.5567 1.66797 36.5567Z" fill="#FFDF22" stroke="#FFF9DE" stroke-width="1.33333" stroke-miterlimit="10"/>
<path id="Vector_4" d="M1.66602 67.451C1.66602 67.451 9.28034 55.3278 22.1731 51.1396C35.0658 46.9515 46.7855 47.4628 48.352 52.2825C49.9185 57.1023 40.7377 64.4058 27.8449 68.5939C14.9522 72.782 1.66602 67.451 1.66602 67.451Z" fill="#FFDF22" stroke="#FFF9DE" stroke-width="1.33333" stroke-miterlimit="10"/>
<path id="Vector_5" d="M19.23 92.6063C19.23 92.6063 18.2651 78.3226 26.2328 67.3548C34.2005 56.3894 43.9829 49.913 48.0833 52.8931C52.1837 55.8731 49.0482 67.1768 41.0805 78.1446C33.1128 89.11 19.23 92.6063 19.23 92.6063Z" fill="#FFDF22" stroke="#FFF9DE" stroke-width="1.33333" stroke-miterlimit="10"/>
<path id="Vector_6" d="M48.957 102C48.957 102 39.7812 91.0118 39.7812 77.4549C39.7812 63.9005 43.8892 52.9102 48.957 52.9102C54.0249 52.9102 58.1328 63.898 58.1328 77.4549C58.1328 91.0093 48.957 102 48.957 102Z" fill="#FFDF22" stroke="#FFF9DE" stroke-width="1.33333" stroke-miterlimit="10"/>
<path id="Vector_7" d="M78.0006 92.6063C78.0006 92.6063 64.1178 89.11 56.1501 78.1446C48.1824 67.1793 45.0469 55.8731 49.1474 52.8931C53.2478 49.913 63.0301 56.3894 70.9978 67.3548C78.9655 78.3201 78.0006 92.6063 78.0006 92.6063Z" fill="#FFDF22" stroke="#FFF9DE" stroke-width="1.33333" stroke-miterlimit="10"/>
<path id="Vector_8" d="M96.2468 67.951C96.2468 67.951 82.9605 73.282 70.0678 69.0939C57.1751 64.9058 47.9943 57.6023 49.5608 52.7825C51.1273 47.9628 62.847 47.4515 75.7397 51.6396C88.6324 55.8278 96.2468 67.951 96.2468 67.951Z" fill="#FFDF22" stroke="#FFF9DE" stroke-width="1.33333" stroke-miterlimit="10"/>
<path id="Vector_9" d="M96.4499 36.8067C96.4499 36.8067 88.8356 48.9299 75.9428 53.1181C63.0501 57.3062 51.3304 56.7949 49.7639 51.9752C48.1974 47.1554 57.3782 39.8519 70.2709 35.6638C83.1637 31.4756 96.4499 36.8067 96.4499 36.8067Z" fill="#FFDF22" stroke="#FFF9DE" stroke-width="1.33333" stroke-miterlimit="10"/>
<path id="Vector_10" d="M78.8072 11.6875C78.8072 11.6875 79.7722 25.9712 71.8044 36.9391C63.8367 47.9044 54.0544 54.3808 49.954 51.4008C45.8536 48.4207 48.989 37.117 56.9568 26.1492C64.9245 15.1839 78.8072 11.6875 78.8072 11.6875Z" fill="#FFDF22" stroke="#FFF9DE" stroke-width="1.33333" stroke-miterlimit="10"/>
</g>
<path id="Vector_11" d="M85.3781 64.4201L86.0123 64.6257L85.3781 64.4201C85.3769 64.4238 85.3755 64.4261 85.3738 64.428C85.3717 64.4304 85.3686 64.4331 85.3642 64.4353C85.3599 64.4375 85.3558 64.4385 85.3526 64.4388C85.3498 64.439 85.3471 64.4389 85.3434 64.4377C85.3433 64.4377 85.3432 64.4377 85.3432 64.4376L68.0748 58.826L68.0748 58.826L68.0731 58.8255C68.0687 58.8241 68.0665 58.8225 68.0649 58.8212C68.063 58.8195 68.0607 58.8168 68.0587 58.8129C68.0568 58.8091 68.0557 58.8052 68.0554 58.8017C68.0552 58.7988 68.0554 58.7954 68.0568 58.7909C68.058 58.7872 68.0595 58.785 68.0612 58.783C68.0632 58.7806 68.0664 58.778 68.0707 58.7757C68.0751 58.7735 68.0792 58.7725 68.0824 58.7722C68.0852 58.772 68.088 58.7722 68.0917 58.7734C68.0918 58.7734 68.0918 58.7734 68.0918 58.7734L85.3602 64.385L85.3619 64.3856C85.3662 64.387 85.3685 64.3885 85.37 64.3899C85.372 64.3916 85.3743 64.3943 85.3763 64.3981C85.3782 64.402 85.3793 64.4059 85.3795 64.4093C85.3798 64.4122 85.3796 64.4156 85.3781 64.4201Z" fill="#FFF9DE" stroke="#FFF9DE" stroke-width="1.33333"/>
<path id="Vector_12" d="M48.956 13.4245C48.9713 13.4245 48.9836 13.4368 48.9836 13.4521V31.6107C48.9836 31.6259 48.9713 31.6383 48.956 31.6383C48.9407 31.6383 48.9284 31.6259 48.9284 31.6107V13.4521C48.9284 13.4368 48.9407 13.4245 48.956 13.4245Z" fill="#FFF9DE" stroke="#FFF9DE" stroke-width="1.33333"/>
<path id="Vector_13" d="M61.4218 35.6549L61.4215 35.6552C61.4135 35.6663 61.3972 35.6707 61.3827 35.6601C61.3716 35.6521 61.3672 35.6359 61.3777 35.6214C61.3777 35.6214 61.3777 35.6213 61.3778 35.6213L72.0521 20.9318L72.0523 20.9315C72.0604 20.9204 72.0766 20.916 72.0912 20.9266C72.1023 20.9346 72.1067 20.9509 72.0961 20.9654L61.4218 35.6549Z" fill="#FFF9DE" stroke="#FFF9DE" stroke-width="1.33333"/>
<path id="Vector_14" d="M85.5828 40.3328L85.5832 40.3341C85.5847 40.3386 85.5849 40.342 85.5846 40.3449C85.5843 40.3484 85.5833 40.3523 85.5813 40.3561C85.5794 40.36 85.5771 40.3627 85.5751 40.3644C85.5735 40.3657 85.5713 40.3673 85.567 40.3687L85.5652 40.3692L68.2982 45.9804C68.2981 45.9805 68.2979 45.9805 68.2978 45.9805C68.292 45.9824 68.2879 45.9825 68.2849 45.9822C68.2814 45.9819 68.2778 45.9809 68.2744 45.9792C68.271 45.9775 68.2686 45.9754 68.267 45.9736C68.2657 45.9721 68.2639 45.9696 68.2623 45.9646L68.2619 45.9633C68.2605 45.9588 68.2603 45.9554 68.2605 45.9525C68.2608 45.9491 68.2618 45.9452 68.2638 45.9413C68.2657 45.9375 68.2681 45.9348 68.27 45.9331C68.2716 45.9317 68.2738 45.9302 68.2782 45.9288L68.2799 45.9282L85.547 40.317C85.5471 40.317 85.5472 40.3169 85.5473 40.3169C85.5532 40.3151 85.5572 40.3149 85.5602 40.3152C85.5637 40.3155 85.5673 40.3165 85.5707 40.3182C85.5741 40.32 85.5765 40.322 85.5781 40.3239C85.5794 40.3254 85.5812 40.3278 85.5828 40.3328Z" fill="#FFF9DE" stroke="#FFF9DE" stroke-width="1.33333"/>
<path id="Vector_15" d="M26.4827 20.929C26.4862 20.9266 26.4889 20.9256 26.4912 20.9251C26.4941 20.9245 26.4979 20.9242 26.5023 20.9249C26.5067 20.9256 26.5106 20.9271 26.5136 20.9289C26.5161 20.9304 26.5188 20.9326 26.5217 20.9365C26.5218 20.9366 26.5219 20.9367 26.5219 20.9368L37.195 35.6245C37.195 35.6245 37.195 35.6245 37.195 35.6245C37.198 35.6286 37.1991 35.6316 37.1997 35.6341C37.2003 35.637 37.2006 35.6408 37.1999 35.6452C37.1992 35.6496 37.1977 35.6535 37.1959 35.6565C37.1945 35.6589 37.1925 35.6614 37.189 35.6641C37.1854 35.6665 37.1827 35.6675 37.1805 35.668C37.1776 35.6686 37.1737 35.6689 37.1694 35.6682C37.165 35.6675 37.1611 35.666 37.1581 35.6642C37.1567 35.6634 37.1552 35.6623 37.1537 35.6609C37.1525 35.6597 37.1513 35.6584 37.15 35.6566C37.1499 35.6565 37.1498 35.6564 37.1497 35.6563L26.4766 20.9686C26.4766 20.9686 26.4766 20.9686 26.4766 20.9685C26.4736 20.9644 26.4726 20.9614 26.472 20.959C26.4713 20.9561 26.4711 20.9523 26.4718 20.9479C26.4725 20.9435 26.474 20.9396 26.4758 20.9366C26.4772 20.9342 26.4792 20.9317 26.4827 20.929Z" fill="#FFF9DE" stroke="#FFF9DE" stroke-width="1.33333"/>
<path id="Vector_16" d="M29.8367 45.678L29.8385 45.6785C29.8428 45.6799 29.845 45.6815 29.8466 45.6828C29.8486 45.6845 29.8509 45.6872 29.8528 45.6911C29.8548 45.6949 29.8558 45.6989 29.8561 45.7023C29.8564 45.7052 29.8562 45.7086 29.8547 45.7131L30.4889 45.9187L29.8547 45.7131C29.8535 45.7168 29.8521 45.719 29.8504 45.721C29.8483 45.7234 29.8451 45.7261 29.8408 45.7283C29.8365 45.7305 29.8324 45.7315 29.8291 45.7318C29.8264 45.732 29.8236 45.7318 29.8198 45.7306C29.8198 45.7306 29.8198 45.7306 29.8197 45.7306L12.5514 40.119L12.5514 40.119L12.5496 40.1184C12.5453 40.1171 12.5431 40.1155 12.5415 40.1141C12.5395 40.1124 12.5372 40.1097 12.5353 40.1059C12.5333 40.102 12.5323 40.0981 12.532 40.0947C12.5317 40.0918 12.5319 40.0884 12.5334 40.0839C12.5346 40.0802 12.536 40.0779 12.5377 40.076C12.5398 40.0736 12.543 40.0709 12.5473 40.0687C12.5516 40.0665 12.5557 40.0655 12.559 40.0652C12.5617 40.065 12.5645 40.0651 12.5683 40.0663C12.5683 40.0664 12.5683 40.0664 12.5684 40.0664L29.8367 45.678Z" fill="#FFF9DE" stroke="#FFF9DE" stroke-width="1.33333"/>
<path id="Vector_17" d="M12.5319 63.9216L12.5314 63.9203C12.53 63.9158 12.5298 63.9125 12.53 63.9095C12.5303 63.9061 12.5314 63.9022 12.5333 63.8983C12.5353 63.8945 12.5376 63.8918 12.5396 63.8901C12.5411 63.8887 12.5433 63.8872 12.5477 63.8858L12.5494 63.8852L29.8165 58.274C29.8166 58.274 29.8168 58.274 29.8169 58.2739C29.8227 58.2721 29.8267 58.272 29.8297 58.2722C29.8332 58.2725 29.8369 58.2735 29.8403 58.2753C29.8436 58.277 29.8461 58.2791 29.8477 58.2809C29.849 58.2824 29.8507 58.2848 29.8523 58.2899L29.8528 58.2911C29.8542 58.2957 29.8544 58.299 29.8542 58.302C29.8539 58.3054 29.8528 58.3093 29.8509 58.3132C29.8489 58.317 29.8466 58.3197 29.8446 58.3214C29.8431 58.3228 29.8409 58.3243 29.8365 58.3257L29.8348 58.3263L12.5677 63.9374C12.5676 63.9375 12.5674 63.9375 12.5673 63.9376C12.5615 63.9394 12.5575 63.9395 12.5545 63.9393C12.551 63.939 12.5473 63.9379 12.5439 63.9362C12.5406 63.9345 12.5381 63.9324 12.5365 63.9306C12.5352 63.9291 12.5335 63.9266 12.5319 63.9216Z" fill="#FFF9DE" stroke="#FFF9DE" stroke-width="1.33333"/>
<path id="Vector_18" d="M25.4027 82.9367C25.1771 83.2475 25.2448 83.6811 25.5556 83.9067C25.8663 84.1323 26.2999 84.0646 26.5255 83.7538L37.2001 69.064M25.4027 82.9367L25.942 83.3286L25.9422 83.3283M25.4027 82.9367L25.9422 83.3283M25.4027 82.9367L37.0472 68.0941M25.9422 83.3283C25.9317 83.3429 25.9361 83.3591 25.9472 83.3672C25.9617 83.3777 25.9779 83.3733 25.986 83.3622L25.9862 83.3619L36.6606 68.6724M25.9422 83.3283L36.6166 68.6389L36.6168 68.6386C36.6248 68.6275 36.6411 68.6231 36.6556 68.6336L37.0472 68.0941M36.6606 68.6724L37.2001 69.064M36.6606 68.6724L36.6608 68.6721L37.2001 69.064M36.6606 68.6724C36.6711 68.6579 36.6667 68.6417 36.6556 68.6336L37.0472 68.0941M37.2001 69.064C37.4257 68.7532 37.358 68.3196 37.0472 68.0941" fill="#FFF9DE" stroke="#FFF9DE" stroke-width="1.33333"/>
<path id="Vector_19" d="M48.956 90.5758C48.9407 90.5758 48.9284 90.5634 48.9284 90.5482V72.3896C48.9284 72.3743 48.9407 72.362 48.956 72.362C48.9713 72.362 48.9836 72.3743 48.9836 72.3896V90.5482C48.9836 90.5634 48.9713 90.5758 48.956 90.5758Z" fill="#FFF9DE" stroke="#FFF9DE" stroke-width="1.33333"/>
<path id="Vector_20" d="M71.2916 83.3596C71.2902 83.362 71.2882 83.3645 71.2847 83.3672C71.2811 83.3696 71.2784 83.3706 71.2762 83.3711C71.2733 83.3718 71.2694 83.372 71.2651 83.3713C71.2607 83.3706 71.2568 83.3691 71.2538 83.3673C71.2512 83.3658 71.2486 83.3636 71.2456 83.3597C71.2456 83.3596 71.2455 83.3595 71.2454 83.3594L60.5723 68.6717C60.5723 68.6717 60.5723 68.6717 60.5723 68.6717C60.5693 68.6676 60.5683 68.6646 60.5677 68.6621C60.567 68.6592 60.5668 68.6554 60.5675 68.651C60.5682 68.6466 60.5697 68.6428 60.5715 68.6398C60.5729 68.6374 60.5749 68.6349 60.5784 68.6322C60.5819 68.6297 60.5847 68.6288 60.5869 68.6283C60.5898 68.6276 60.5936 68.6273 60.598 68.628C60.6024 68.6287 60.6063 68.6302 60.6093 68.632C60.6118 68.6335 60.6145 68.6357 60.6174 68.6396C60.6175 68.6397 60.6176 68.6398 60.6176 68.6399L71.2907 83.3276C71.2907 83.3276 71.2907 83.3277 71.2907 83.3277C71.2937 83.3318 71.2948 83.3348 71.2954 83.3372C71.296 83.3401 71.2963 83.3439 71.2956 83.3483C71.2949 83.3527 71.2934 83.3566 71.2916 83.3596Z" fill="#FFF9DE" stroke="#FFF9DE" stroke-width="1.33333"/>
</g>
<circle id="Ellipse 18" cx="48.9751" cy="52.1274" r="18.7576" fill="#704F38" stroke="white" stroke-width="1.33333"/>
</g>
</svg>
