<svg width="240" height="230" viewBox="0 0 240 230" fill="none" xmlns="http://www.w3.org/2000/svg">
<path fill-rule="evenodd" clip-rule="evenodd" d="M210.049 167.707C205.857 165.598 201.668 163.488 197.481 161.378C194.76 160.008 192.04 158.637 189.321 157.267L186.635 155.913C180.421 152.782 174.207 149.65 167.987 146.519L167.123 146.084L166.003 145.52L163.043 144.03L162.327 143.67C162.168 143.874 162.008 144.079 161.847 144.286L161.495 144.737C160.869 145.541 160.234 146.362 159.623 147.182L159.793 147.366L160.229 147.839L161.843 149.591L162.285 150.07L164.307 152.264L180.138 169.436L194.873 185.421L204.746 196.131L205.047 196.457C204.844 196.631 204.639 196.807 204.432 196.984C204.139 197.235 203.843 197.489 203.548 197.743C203.044 198.176 202.54 198.609 202.048 199.03C193.888 191.436 185.715 183.842 177.542 176.248L175.664 174.503C169.931 169.176 164.198 163.849 158.471 158.522L156.007 156.23L154.963 155.259L154.378 154.715L153.96 154.326L153.036 153.465C152.471 153.984 151.906 154.491 151.342 154.997L151.34 154.999C150.774 155.506 150.209 156.013 149.644 156.533L149.834 156.906L150.115 157.454L151.885 160.919C155.513 168.02 159.141 175.127 162.77 182.234L163.51 183.685C165.363 187.315 167.216 190.945 169.069 194.574C171.268 198.879 173.466 203.183 175.664 207.484L175.895 207.935L172.208 209.716C167.324 202.152 162.451 194.6 157.584 187.048C152.84 179.687 148.102 172.326 143.364 164.955L142.947 164.306L142.783 164.051L141.925 162.717L141.781 162.797L137.766 165.042L137.501 165.19L137.571 165.515L137.704 166.132C139.63 175.057 141.565 183.974 143.504 192.89C145.432 201.756 147.366 210.62 149.3 219.491L149.322 219.592C150.021 222.795 150.719 225.998 151.418 229.202L151.462 229.406L149.103 230L149.077 229.926C145.546 219.685 142.015 209.456 138.484 199.227L137.114 195.258C134.196 186.806 131.278 178.352 128.36 169.89L127.866 168.456L127.701 168.498C126.797 168.73 125.893 168.952 124.99 169.173C124.365 169.326 123.74 169.479 123.115 169.636C122.781 169.719 122.448 169.804 122.114 169.89V170.439L122.114 174.027V176.561L122.114 197.775L122.114 227.456L122.114 227.625C120.836 227.724 119.508 227.774 118.181 227.823L118.162 227.625L115.265 196.624L113.076 173.212L112.857 170.867L112.766 169.89L112.724 169.445L108.693 169.445L108.56 169.834L108.541 169.89L107.114 174.071L100.031 194.82L92.2906 217.492L92.1752 217.83C91.659 217.657 91.1305 217.496 90.602 217.335C90.0736 217.174 89.5451 217.013 89.0289 216.84L89.0447 216.761C90.5842 209.058 92.1333 201.346 93.6835 193.628L93.6965 193.564L93.854 192.779C95.2163 185.997 96.5793 179.21 97.9371 172.423L98.2622 170.797C98.4059 170.078 98.5495 169.359 98.6931 168.64C98.8557 167.826 99.0183 167.012 99.1807 166.198L99.2276 165.963L99.4809 164.692L99.5493 164.349C98.7627 164.151 97.9639 163.953 97.165 163.756C96.4307 163.574 95.6964 163.392 94.9717 163.21L94.7808 163.162L94.6482 163.372L92.6294 166.578L92.145 167.347L79.6911 187.12L67.9407 205.777L67.8901 205.857C67.3254 205.585 66.7608 205.301 66.1961 205.017L66.194 205.016L66.1925 205.015C65.6277 204.731 65.0629 204.447 64.498 204.175L64.6615 203.824C67.8238 197.027 70.9954 190.24 74.168 183.453L75.3624 180.898L75.3756 180.87C78.3965 174.408 81.4174 167.947 84.4311 161.478C84.8449 160.59 85.2585 159.702 85.672 158.814L86.1717 157.74L86.2269 157.621C85.8796 157.417 85.5365 157.218 85.1965 157.02L85.1922 157.017C84.3786 156.544 83.5821 156.08 82.7857 155.592L82.7761 155.601L82.4715 155.874L80.5714 157.577L80.2113 157.899L79.0521 158.938C73.321 164.073 67.5971 169.201 61.8773 174.325C54.5629 180.877 47.2552 187.423 39.9475 193.968L39.8196 194.083C39.4266 193.712 39.0458 193.329 38.6651 192.946L38.6644 192.945L38.6637 192.944C38.2829 192.561 37.9021 192.178 37.5091 191.807L37.6445 191.654L57.5337 169.212L71.756 153.165L73.1839 151.554L75.5802 148.85L75.7818 148.622L76.1587 148.197L76.444 147.875L73.9369 144.758L73.3349 145.046L73.2807 145.071L70.6459 146.33L48.3255 156.987L33.8286 163.909L33.5272 164.053C33.2076 163.509 32.9004 162.952 32.5931 162.395C32.2859 161.839 31.9786 161.282 31.6591 160.738L31.8741 160.591C34.7501 158.623 37.6235 156.658 40.4948 154.695L40.6723 154.573L45.1293 151.525C52.4876 146.492 59.835 141.465 67.1816 136.421L67.651 136.099L68.5718 135.466L68.8734 135.259C68.5794 134.786 68.2933 134.305 68.0087 133.822L67.7919 133.453C67.4354 132.847 67.079 132.241 66.7103 131.648L66.4804 131.696L66.433 131.706C57.3224 133.632 48.2223 135.546 39.1228 137.46L37.2386 137.857L37.2374 137.857C27.5147 139.902 17.7921 141.947 8.05748 144.004L7.76726 144.066C7.64436 143.571 7.53375 143.089 7.42314 142.606L7.423 142.606C7.31244 142.123 7.20187 141.641 7.07902 141.147L7.14561 141.124L38.3729 130.431L58.341 123.593L62.4234 122.195L62.5317 122.158L63.8591 121.704L62.8221 117.138L62.6792 116.509L62.5317 116.503L62.071 116.482L58.8824 116.338L55.5127 116.187L36.2051 115.318L31.3356 115.099L0.196641 113.698L0 113.689C0.0245814 112.848 0.0614528 111.995 0.0983242 111.141L0.0983273 111.141C0.135198 110.288 0.172068 109.434 0.196648 108.593H0.229273L32.8835 108.593L55.844 108.593L59.3697 108.593H61.4873L62.5318 108.593C62.5424 108.512 62.5531 108.431 62.5639 108.35C62.7711 106.795 63.0107 105.27 63.2546 103.72L63.2611 103.679L63.3675 103.003L63.2881 102.976L62.5318 102.722L62.152 102.594L60.7483 102.122L58.2929 101.297C50.6324 98.7226 42.979 96.1559 35.3297 93.5932C25.9043 90.4354 16.485 87.2838 7.06589 84.1323L6.24143 83.8565L6.09591 83.8078L6.9808 80.5424L7.17405 80.5855C17.2948 82.8435 27.4275 85.1137 37.5602 87.3838L37.6078 87.3945L38.8273 87.6677C47.9754 89.7172 57.1232 91.7664 66.2618 93.8062L66.4465 93.8475L67.7303 94.134L67.7672 94.1422L68.2344 94.2464C68.5539 93.6033 68.8857 92.9601 69.2176 92.3169C69.5494 91.6737 69.8812 91.0305 70.2008 90.3874L69.8191 90.1357L69.2371 89.7519L68.0804 88.9893L67.3773 88.5256L44.7893 73.6315L23.0777 59.3153L23.007 59.2687L24.8751 55.8059L25.1856 55.9648C32.6923 59.8092 40.1989 63.6435 47.7056 67.477L49.6521 68.471C56.7786 72.1103 63.905 75.7495 71.0315 79.3967L71.395 79.5828L71.4944 79.6337L73.0826 80.4467L74.4286 81.1359C75.166 79.8002 75.9525 78.4641 76.7391 77.1283L76.5742 76.9466L75.8415 76.1394L74.3131 74.4556L73.3119 73.3529C67.8668 67.3561 62.416 61.3593 56.9645 55.3625L54.9612 53.1588C51.0627 48.8705 47.1642 44.5821 43.2676 40.2937C39.9612 36.6549 36.6563 33.0161 33.3538 29.3773L33.1833 29.1893C33.2517 29.1277 33.32 29.0657 33.3879 29.0036C33.934 28.5043 34.4642 27.9903 34.9886 27.4819L34.9894 27.4812C35.2899 27.1899 35.5885 26.9004 35.8871 26.6166L35.9522 26.6764C44.7349 34.736 53.5031 42.8102 62.2647 50.8911C68.0777 56.2524 73.8877 61.6167 79.6972 66.9816L81.0419 68.2234L82.2829 69.3695L83.1116 70.1348L83.1484 70.1687L83.7726 70.7452L84.2626 71.1977L84.3098 71.2413C84.826 70.6971 85.3421 70.1652 85.8583 69.6334L85.8593 69.6324C86.3752 69.1009 86.891 68.5693 87.4069 68.0255L87.3627 67.9356L87.2103 67.6253L87.1557 67.5141L85.841 64.8379L85.1123 63.355L84.5543 62.2198C82.3535 57.7428 80.1485 53.2616 77.9436 48.7804C76.7922 46.4404 75.6408 44.1004 74.49 41.761C72.5268 37.7702 70.5654 33.7812 68.6087 29.7969L68.4803 29.5353C69.8076 28.7932 71.0857 28.0514 72.3639 27.3093L72.5233 27.5498C74.9496 31.2121 77.3807 34.8744 79.8136 38.5367C81.1603 40.5639 82.5076 42.5912 83.8548 44.6185L83.892 44.6743C87.193 49.6415 90.494 54.6086 93.7873 59.5758L94.3288 60.3926L94.975 61.3677L95.2793 61.827L95.42 62.0394C96.1079 61.7674 96.7835 61.5077 97.4591 61.248L97.4601 61.2477C98.1361 60.9878 98.812 60.728 99.5003 60.4559L99.3013 59.4682L99.2569 59.2476L98.8753 57.3512C98.6311 56.1369 98.3871 54.9225 98.1433 53.7079L98.0285 53.1361C96.6625 46.3282 95.3026 39.5151 93.9462 32.7023C92.7431 26.6595 91.5427 20.6169 90.3431 14.5783L90.2674 14.1974C89.8093 11.8914 89.3513 9.58609 88.8934 7.28157L88.8326 6.97592L91.9297 6.2337L91.9706 6.35229C94.6695 14.1725 97.3794 22.0038 100.09 29.8356L100.508 31.0445C103.123 38.5999 105.738 46.1553 108.343 53.7012L108.666 54.6379L109.087 55.8553L112.921 55.014L112.965 54.5168L113.161 52.3032C113.879 44.1836 114.596 36.0727 115.314 27.962L115.354 27.507C116.157 18.441 116.959 9.37508 117.762 0.297135L117.788 0C118.722 0.0494684 119.644 0.0990123 120.566 0.148556C121.487 0.1981 122.409 0.247644 123.343 0.297127V0.49099L123.343 24.4384L123.343 54.7099L123.343 55.9351V56.1241V57.2895C124.133 57.3665 124.936 57.4302 125.746 57.4945L125.749 57.4947C126.412 57.5473 127.078 57.6002 127.746 57.6609C127.835 57.669 127.924 57.6773 128.013 57.6857L128.146 57.2895C131.529 47.1732 134.932 37.0363 138.343 26.8923C140.08 21.7248 141.82 16.5554 143.559 11.386L143.682 11.0212L143.73 10.8794L143.745 10.8349L147.382 11.7746L147.328 12.0407C145.933 18.8946 144.537 25.7572 143.142 32.6211L142.442 36.0657L142.435 36.0988C141.071 42.8085 139.707 49.5182 138.343 56.2208L138.125 57.2895L137.937 58.218L137.698 59.3888L137.501 60.3568C138.262 60.6533 139.023 60.9622 139.785 61.2711L139.787 61.272L139.789 61.2727C140.55 61.5817 141.312 61.8907 142.073 62.1873L142.582 61.3913L142.6 61.3638C147.503 53.6963 152.395 46.0174 157.288 38.3328C158.497 36.4328 159.707 34.5324 160.917 32.6317L160.936 32.601C164.7 26.688 168.465 20.7724 172.237 14.8568L172.405 14.5942L175.994 16.7713L175.951 16.8554C171.773 25.0522 167.583 33.2377 163.393 41.4174C162.31 43.5327 161.226 45.6476 160.143 47.7622L160.091 47.8627C157.468 52.9838 154.845 58.1031 152.225 63.222L152.164 63.3421L150.917 65.7793L150.365 66.86L150.121 67.3357L149.712 68.1357L149.693 68.1739L149.878 68.2831C150.527 68.6672 151.167 69.0514 151.807 69.4355L151.811 69.4381C152.51 69.8577 153.209 70.2774 153.921 70.6971L154.172 70.4638L154.515 70.1462L155.186 69.5239C155.8 68.9546 156.414 68.3851 157.028 67.8156L157.552 67.3299C163.554 61.7607 169.548 56.1828 175.543 50.6004C177.541 48.7398 179.539 46.8787 181.537 45.0173L183.889 42.8263C187.426 39.5327 190.963 36.2382 194.504 32.9436L194.871 32.6024L197.772 35.8678C191.941 42.3822 186.121 48.8857 180.307 55.3886C174.666 61.6983 169.03 68.0073 163.395 74.3249L162.872 74.911L162.327 75.5219L161.531 76.4144L160.41 77.6723C161.54 78.7607 162.72 79.8493 163.9 80.9377L164.009 80.8808L165.458 80.1216L166.286 79.6881L167.294 79.1597C174.003 75.6432 180.713 72.119 187.422 68.5947L187.423 68.5942L189.683 67.4073C192.34 66.0117 194.997 64.6162 197.654 63.2214C201.914 60.9849 206.174 58.7501 210.434 56.5189L210.946 56.2506C211.266 56.9185 211.585 57.5741 211.905 58.2297L211.907 58.2347C212.226 58.8886 212.545 59.5425 212.864 60.2087L192.196 73.8161L172.216 86.9705L171.424 87.4916L168.77 89.2389L168.381 89.495L167.81 89.8712L167.572 90.0279L166.801 90.5358C167.07 91.1531 167.353 91.7704 167.635 92.3877L167.636 92.391L167.638 92.3944C167.92 93.0117 168.202 93.629 168.472 94.2463L169.148 94.1019L169.304 94.0686L170.628 93.7858L172.437 93.3992C178.859 92.0257 185.281 90.6452 191.703 89.2646L191.774 89.2494C193.881 88.7964 195.989 88.3434 198.096 87.8906C203.613 86.7052 209.13 85.5215 214.647 84.344L215.076 84.2525C215.225 84.8514 215.364 85.4409 215.502 86.0252L215.503 86.026C215.684 86.7931 215.864 87.551 216.059 88.3091L215.95 88.348C209.649 90.5911 203.357 92.8342 197.067 95.0773L194.399 96.0286L194.248 96.0825C189.253 97.8636 184.258 99.6448 179.259 101.426L175.507 102.763L174.975 102.952L174.175 103.237L172.749 103.745L173.807 108.445L174.175 110.077H175.003L176.954 110.077L184.435 110.077L199.661 110.077L225 110.077L239.831 110.077H240V113.689C226.935 114.3 213.853 114.893 200.775 115.48C194.573 115.758 188.372 116.035 182.174 116.311L177.3 116.528L176.086 116.582L174.793 116.64L174.174 116.667L173.29 116.707L173.275 116.972C173.231 117.776 173.186 118.59 173.142 119.403C173.093 120.306 173.044 121.209 172.995 122.1L173.538 122.278L174.174 122.488L175.601 122.958L176.23 123.166C178.161 123.802 180.092 124.44 182.022 125.077C187.579 126.912 193.132 128.75 198.685 130.589L201.36 131.474L201.369 131.477C210.788 134.596 220.208 137.715 229.639 140.821L229.725 140.849C229.703 140.951 229.679 141.052 229.656 141.153C229.552 141.595 229.443 142.037 229.333 142.479L229.332 142.482L229.332 142.483C229.197 143.027 229.062 143.571 228.939 144.115L228.669 144.057C227.311 143.769 225.954 143.48 224.596 143.192C217.234 141.628 209.879 140.071 202.526 138.514L202.46 138.499L198.664 137.696C190.108 135.883 181.555 134.071 173.004 132.251C172.002 132.037 170.999 131.824 169.997 131.61L169.871 131.583L169.013 131.401L167.538 135.408L168.083 135.761L168.423 135.981L169.698 136.807L170.391 137.256L171.588 138.03L192.84 151.795L211.407 163.819L212.224 164.349L212.47 164.25C212.422 164.369 212.375 164.487 212.327 164.605C211.844 165.81 211.397 166.979 210.951 168.147L210.946 168.159L210.049 167.707ZM155 113.5C155 133.659 138.658 150 118.5 150C98.3414 150 81.9998 133.659 81.9998 113.5C81.9998 93.3418 98.3414 77.0002 118.5 77.0002C138.658 77.0002 155 93.3418 155 113.5Z" fill="#FFDD6A"/>
</svg>
