<svg width="96" height="96" viewBox="0 0 96 96" fill="none" xmlns="http://www.w3.org/2000/svg">
<path fill-rule="evenodd" clip-rule="evenodd" d="M74.056 2.86507C64.1751 -2.83966 51.5425 0.545245 45.8377 10.4261C45.1868 11.5536 44.658 12.7179 44.2423 13.8987L40.8803 22.2777L34.2625 16.6446C33.2954 15.809 32.2374 15.0481 31.0814 14.3807C21.2005 8.67596 8.56785 12.0609 2.86312 21.9418C-2.84161 31.8226 0.543294 44.4553 10.4242 50.16C11.5516 50.811 12.716 51.3397 13.8967 51.7554L22.2792 55.1188L16.6454 61.7376C15.8097 62.7046 15.0489 63.7627 14.3815 64.9187C8.67672 74.7996 12.0616 87.4322 21.9425 93.1369C31.8234 98.8417 44.456 95.4567 50.1608 85.5759C50.8117 84.4484 51.3405 83.2841 51.7562 82.1033L55.1207 73.7179L61.7356 79.3485C62.7027 80.1841 63.7607 80.945 64.9167 81.6124C74.7976 87.3171 87.4302 83.9322 93.135 74.0513C98.8397 64.1704 95.4548 51.5378 85.5739 45.8331C84.4464 45.1821 83.2821 44.6534 82.1014 44.2376L73.7248 40.8767L79.3531 34.2644C80.1888 33.2974 80.9496 32.2393 81.617 31.0833C87.3218 21.2024 83.9369 8.5698 74.056 2.86507ZM66.933 73.2667L58.2628 65.8867L59.9496 61.6828C56.1465 65.0043 51.1154 66.5806 46.1346 66.069L48.6952 68.2486L44.2978 79.2084L44.2622 79.2972L44.2308 79.3876C43.9706 80.1383 43.6393 80.8714 43.2326 81.5759C39.737 87.6304 31.9971 89.7043 25.9425 86.2087C19.888 82.7131 17.8141 74.9732 21.3097 68.9187C21.718 68.2114 22.1854 67.5611 22.7056 66.96L22.7164 66.9475L22.7272 66.9349L30.1104 58.2609L34.3186 59.9494C30.9953 56.1448 29.4188 51.111 29.9321 46.128L27.7486 48.6933L16.7916 44.2971L16.7028 44.2614L16.6124 44.2301C15.8618 43.9698 15.1286 43.6385 14.4242 43.2318C8.36963 39.7362 6.29573 31.9963 9.79132 25.9418C13.2869 19.8872 21.0268 17.8133 27.0814 21.3089C27.7886 21.7172 28.439 22.1846 29.04 22.7049L29.0525 22.7157L29.0651 22.7264L37.7382 30.1089L36.0488 34.3196C39.8533 30.9951 44.8877 29.4178 49.8714 29.9308L47.3058 27.747L51.7007 16.7936L51.7363 16.7048L51.7677 16.6144C52.0279 15.8637 52.3592 15.1306 52.7659 14.4261C56.2615 8.37159 64.0014 6.29768 70.056 9.79327C76.1105 13.2889 78.1844 21.0288 74.6888 27.0833C74.2805 27.7906 73.8131 28.4409 73.2929 29.042L73.2821 29.0545L73.2713 29.0671L65.8937 37.7346L61.6766 36.0425C65.0041 39.8476 66.583 44.8842 66.0698 49.87L68.2555 47.3021L79.2065 51.696L79.2953 51.7316L79.3857 51.763C80.1363 52.0232 80.8695 52.3545 81.5739 52.7613C87.6285 56.2569 89.7024 63.9968 86.2068 70.0513C82.7112 76.1059 74.9713 78.1798 68.9167 74.6842C68.2095 74.2759 67.5591 73.8085 66.958 73.2882L66.9455 73.2774L66.933 73.2667Z" fill="#FFDD6A"/>
<path d="M38.9204 63.7275C47.6066 68.7425 58.7137 65.7664 63.7287 57.0801C68.7437 48.3939 65.7676 37.2869 57.0813 32.2719C48.3951 27.2569 37.2881 30.233 32.2731 38.9192C27.2581 47.6055 30.2342 58.7125 38.9204 63.7275Z" stroke="#FFDD6A" stroke-width="8" stroke-miterlimit="10"/>
</svg>
